<svg viewBox="0 0 26.6667 26.6667" fill="none" xmlns="http://www.w3.org/2000/svg">
<rect width="26.6667" height="26.6667" rx="6" fill="#00A63E"/>
<path d="M18.208 15.657C17.7813 15.3674 17.2208 15.3689 16.7957 15.6607L16.1836 16.0808C15.5018 16.5487 14.5952 16.5233 13.9398 16.019C13.3222 15.5436 12.7328 15.0339 12.173 14.4938C11.6328 13.934 11.1232 13.3446 10.6478 12.7269C10.1434 12.0717 10.1181 11.165 10.586 10.4832L11.0061 9.87109C11.2978 9.44599 11.2993 8.88547 11.0098 8.4588L9.25771 5.87677C8.7737 5.16354 7.83161 4.92458 7.0674 5.32328L7.06693 5.32349C5.52323 6.12891 4.87557 7.9913 5.58287 9.58234C6.60094 11.8727 7.96792 13.9677 9.61766 15.8023L10.8645 17.0491C12.6992 18.6988 14.7941 20.0658 17.0844 21.0839C18.6755 21.7912 20.5379 21.1435 21.3433 19.5998L21.3435 19.5994C21.7422 18.8352 21.5033 17.8931 20.79 17.4091L18.208 15.657Z" fill="white"/>
</svg>
