<svg width="112" height="112" viewBox="40 32 112 112" fill="none" xmlns="http://www.w3.org/2000/svg" xmlns:xlink="http://www.w3.org/1999/xlink">
<path d="M40 48C40 39.1634 47.1634 32 56 32H136C144.837 32 152 39.1634 152 48V128C152 136.837 144.837 144 136 144H56C47.1634 144 40 136.837 40 128V48Z" fill="white"/>
<path d="M56 32.5H136C144.56 32.5 151.5 39.4396 151.5 48V128C151.5 136.56 144.56 143.5 136 143.5H56C47.4396 143.5 40.5 136.56 40.5 128V48C40.5 39.4396 47.4396 32.5 56 32.5Z" stroke="#E5E7EB"/>
<g opacity="0.5" clip-path="url(#clip0_2209_946)">
<path fill-rule="evenodd" clip-rule="evenodd" d="M96.6497 57.7108L114.753 62.5615L125.787 82.6569L117.467 113.71C116.425 117.6 112.439 119.917 108.55 118.875L82.1559 111.803C78.2865 110.766 75.9743 106.761 77.0163 102.872L87.7386 62.8556C88.7753 58.9862 92.7804 56.674 96.6497 57.7108Z" fill="#D1D5DC"/>
<g clip-path="url(#clip1_2209_946)">
<path d="M108.789 99.3657L94.1972 95.4559C94.5499 95.063 94.9069 94.6574 95.2661 94.2439C96.5294 94.7359 98.2976 94.2395 100.56 92.766C100.681 94.0503 101.095 95.7862 102.487 96.189C103.269 96.4153 104.18 96.1589 105.248 95.406C105.648 96.2686 106.67 97.3098 109.161 97.9772C109.345 98.0265 109.541 98.0007 109.706 97.9054C109.871 97.8101 109.992 97.6531 110.041 97.469C110.09 97.2848 110.065 97.0887 109.969 96.9236C109.874 96.7585 109.717 96.638 109.533 96.5887C106.892 95.8811 106.354 94.7649 106.436 94.2605C106.484 94.1136 106.481 93.9549 106.428 93.8099C106.374 93.6649 106.274 93.542 106.143 93.461C106.006 93.3766 105.846 93.3394 105.686 93.3553C105.526 93.3712 105.376 93.4391 105.259 93.5487C103.78 94.877 103.102 94.8711 102.883 94.8068C102.17 94.6008 101.891 92.7254 101.964 91.4522C101.972 91.3158 101.941 91.18 101.875 91.0607C101.808 90.9414 101.709 90.8434 101.589 90.7784C101.469 90.7133 101.333 90.6838 101.197 90.6933C101.06 90.7028 100.93 90.7509 100.82 90.8321C98.4775 92.5614 97.1041 92.9868 96.3212 92.9826C97.4967 91.5424 98.4323 90.2519 99.109 89.1356C100.246 87.2601 100.67 85.8493 100.405 84.823C100.27 84.2863 99.8688 83.5817 98.765 83.286C97.3713 82.9125 95.9187 83.9352 94.7791 86.0919C94.1022 87.3718 93.6441 88.8768 93.5223 90.2198C93.4006 91.5629 93.6112 92.6201 94.1325 93.3542C93.6293 93.9374 93.1242 94.5034 92.6369 95.0378L90.7381 94.529C90.5539 94.4797 90.3578 94.5055 90.1927 94.6008C90.0276 94.6962 89.9071 94.8531 89.8578 95.0373C89.8084 95.2214 89.8343 95.4176 89.9296 95.5827C90.0249 95.7478 90.1819 95.8682 90.366 95.9176L91.5298 96.2294C90.0591 97.7886 88.955 98.8545 88.9372 98.872C88.8668 98.9369 88.81 99.0153 88.7703 99.1025C88.7306 99.1896 88.7087 99.2838 88.7059 99.3796C88.7031 99.4753 88.7194 99.5707 88.754 99.66C88.7886 99.7494 88.8407 99.8309 88.9072 99.8998C88.9737 99.9687 89.0534 100.024 89.1415 100.061C89.2295 100.099 89.3242 100.119 89.42 100.119C89.5158 100.12 89.6108 100.101 89.6993 100.065C89.7878 100.028 89.8681 99.974 89.9354 99.9059C89.9545 99.8868 91.3504 98.5373 93.1049 96.6514L108.417 100.754C108.601 100.804 108.797 100.778 108.962 100.682C109.127 100.587 109.248 100.43 109.297 100.246C109.346 100.062 109.321 99.8657 109.225 99.7006C109.13 99.5355 108.973 99.4151 108.789 99.3657ZM96.0501 86.7636C96.8017 85.3401 97.7438 84.5005 98.3929 84.6745C98.8555 84.7984 98.9658 85.001 99.0131 85.182C99.1495 85.7143 99.0164 87.4329 95.1246 92.1755C94.67 91.0045 95.0257 88.7019 96.0501 86.7636Z" fill="#101828"/>
</g>
<path fill-rule="evenodd" clip-rule="evenodd" d="M114.733 62.5562L110.485 78.4086L125.825 82.5187L114.733 62.5562Z" fill="black" fill-opacity="0.2"/>
</g>
<g clip-path="url(#clip2_2209_946)">
<path fill-rule="evenodd" clip-rule="evenodd" d="M76.941 61.3586L95.6331 59.9983L112.653 75.3583L114.986 107.422C115.278 111.438 112.275 114.935 108.259 115.228L81.0056 117.211C77.0103 117.502 73.5115 114.478 73.2193 110.462L70.2124 69.1434C69.9215 65.1482 72.9457 61.6494 76.941 61.3586Z" fill="#FFD230"/>
<path d="M102.08 96.7211L87.0139 97.8175C87.2181 97.3306 87.4222 96.8302 87.6257 96.3218C88.9806 96.3718 90.4879 95.3226 92.1414 93.188C92.6772 94.3615 93.6379 95.8653 95.0853 95.7888C95.8983 95.7459 96.6742 95.2048 97.4356 94.1431C98.097 94.8265 99.4044 95.4745 101.976 95.2873C102.166 95.2735 102.343 95.1847 102.468 95.0405C102.592 94.8963 102.655 94.7084 102.641 94.5183C102.627 94.3282 102.538 94.1514 102.394 94.0267C102.25 93.9021 102.062 93.8398 101.872 93.8536C99.145 94.0521 98.2704 93.1744 98.1824 92.6709C98.1793 92.5165 98.1244 92.3676 98.0265 92.2481C97.9286 92.1286 97.7934 92.0455 97.6426 92.0121C97.486 91.9772 97.3221 91.9948 97.1765 92.0622C97.0308 92.1296 96.9113 92.2431 96.8365 92.3851C95.8759 94.1251 95.2332 94.3422 95.0052 94.3533C94.264 94.3929 93.385 92.7129 93.0363 91.4861C92.9991 91.3547 92.9252 91.2366 92.8233 91.1457C92.7213 91.0548 92.5956 90.9948 92.4608 90.9728C92.3261 90.9507 92.1878 90.9676 92.0622 91.0213C91.9366 91.075 91.829 91.1633 91.7518 91.276C90.107 93.6784 88.9493 94.531 88.2084 94.784C88.8461 93.0378 89.3061 91.5116 89.579 90.2352C90.0372 88.0903 89.9751 86.6184 89.3876 85.736C89.0837 85.2735 88.4737 84.7396 87.3339 84.8225C85.8948 84.9272 84.8585 86.3701 84.4899 88.7814C84.2706 90.2125 84.3319 91.7845 84.6577 93.093C84.9835 94.4016 85.5295 95.3312 86.263 95.8534C85.9791 96.5695 85.6877 97.2699 85.4028 97.9347L83.4422 98.0774C83.2521 98.0913 83.0753 98.1801 82.9506 98.3243C82.826 98.4685 82.7637 98.6563 82.7775 98.8464C82.7914 99.0366 82.8802 99.2134 83.0244 99.3381C83.1686 99.4627 83.3564 99.525 83.5466 99.5111L84.7482 99.4237C83.8708 101.379 83.1777 102.748 83.1667 102.771C83.1215 102.855 83.0936 102.948 83.0847 103.043C83.0758 103.139 83.086 103.235 83.1148 103.326C83.1436 103.418 83.1903 103.502 83.2523 103.575C83.3143 103.648 83.3903 103.708 83.4757 103.752C83.5612 103.795 83.6545 103.821 83.75 103.827C83.8456 103.834 83.9415 103.821 84.0322 103.791C84.1229 103.76 84.2064 103.711 84.278 103.647C84.3496 103.584 84.4077 103.506 84.449 103.42C84.4607 103.396 85.3363 101.663 86.3745 99.3053L102.185 98.1548C102.375 98.1409 102.552 98.0521 102.676 97.9079C102.801 97.7637 102.863 97.5759 102.849 97.3857C102.836 97.1956 102.747 97.0188 102.603 96.8941C102.458 96.7695 102.271 96.7072 102.08 96.7211ZM85.9109 88.9986C86.1537 87.4072 86.768 86.305 87.4382 86.2562C87.9158 86.2214 88.0866 86.3766 88.1907 86.532C88.4942 86.9901 88.9326 88.6571 86.8131 94.4144C85.9994 93.4575 85.5795 91.1658 85.9109 88.9986Z" fill="#101828"/>
<path fill-rule="evenodd" clip-rule="evenodd" d="M95.6127 59.9998L96.8039 76.3681L112.642 75.2155L95.6127 59.9998Z" fill="white" fill-opacity="0.5"/>
</g>
<defs>
<clipPath id="clip0_2209_946">
<rect width="56" height="56" fill="white" transform="translate(82.801 54) rotate(15)"/>
</clipPath>
<clipPath id="clip1_2209_946">
<rect width="23" height="23" fill="white" transform="translate(92.5618 79.3916) rotate(15)"/>
</clipPath>
<clipPath id="clip2_2209_946">
<rect width="56" height="56" fill="white" transform="translate(62.6415 62.3992) rotate(-4.1623)"/>
</clipPath>
</defs>
</svg>