<svg width="112" height="112" viewBox="40 32 112 112" fill="none" xmlns="http://www.w3.org/2000/svg" xmlns:xlink="http://www.w3.org/1999/xlink">
<path d="M40 48C40 39.1634 47.1634 32 56 32H136C144.837 32 152 39.1634 152 48V128C152 136.837 144.837 144 136 144H56C47.1634 144 40 136.837 40 128V48Z" fill="white"/>
<path d="M56 32.5H136C144.56 32.5 151.5 39.4396 151.5 48V128C151.5 136.56 144.56 143.5 136 143.5H56C47.4396 143.5 40.5 136.56 40.5 128V48C40.5 39.4396 47.4396 32.5 56 32.5Z" stroke="#E5E7EB"/>
<path d="M82.1367 60H100.879L116.745 76.5447V108.719C116.745 112.736 113.481 116 109.453 116H82.1368C78.119 116 74.8553 112.736 74.8553 108.719V67.2814C74.8553 63.2637 78.119 60 82.1367 60Z" fill="#F3F4F6"/>
<path fill-rule="evenodd" clip-rule="evenodd" d="M100.857 60V76.4155H116.745L100.857 60Z" fill="#D1D5DC"/>
<path d="M103.184 89.1365H88.4163C87.7377 89.1365 87.1776 88.5871 87.1776 87.9086C87.1776 87.23 87.7377 86.6807 88.4163 86.6807H103.184C103.862 86.6807 104.412 87.23 104.412 87.9086C104.412 88.5871 103.862 89.1365 103.184 89.1365ZM98.2613 103.904H88.4163C87.7377 103.904 87.1776 103.355 87.1776 102.676C87.1776 101.997 87.7377 101.448 88.4163 101.448H98.2613C98.9399 101.448 99.4892 101.997 99.4892 102.676C99.4892 103.355 98.9399 103.904 98.2613 103.904ZM103.184 98.9814H88.4163C87.7377 98.9814 87.1776 98.4321 87.1776 97.7535C87.1776 97.075 87.7377 96.5256 88.4163 96.5256H103.184C103.862 96.5256 104.412 97.075 104.412 97.7535C104.412 98.4321 103.862 98.9814 103.184 98.9814ZM103.184 94.0589H88.4163C87.7377 94.0589 87.1776 93.5096 87.1776 92.831C87.1776 92.1525 87.7377 91.6031 88.4163 91.6031H103.184C103.862 91.6031 104.412 92.1525 104.412 92.831C104.412 93.5096 103.862 94.0589 103.184 94.0589Z" fill="url(#paint0_linear_2209_979)"/>
<path d="M103.184 89.1365H88.4163C87.7377 89.1365 87.1776 88.5871 87.1776 87.9086C87.1776 87.23 87.7377 86.6807 88.4163 86.6807H103.184C103.862 86.6807 104.412 87.23 104.412 87.9086C104.412 88.5871 103.862 89.1365 103.184 89.1365ZM98.2613 103.904H88.4163C87.7377 103.904 87.1776 103.355 87.1776 102.676C87.1776 101.997 87.7377 101.448 88.4163 101.448H98.2613C98.9399 101.448 99.4892 101.997 99.4892 102.676C99.4892 103.355 98.9399 103.904 98.2613 103.904ZM103.184 98.9814H88.4163C87.7377 98.9814 87.1776 98.4321 87.1776 97.7535C87.1776 97.075 87.7377 96.5256 88.4163 96.5256H103.184C103.862 96.5256 104.412 97.075 104.412 97.7535C104.412 98.4321 103.862 98.9814 103.184 98.9814ZM103.184 94.0589H88.4163C87.7377 94.0589 87.1776 93.5096 87.1776 92.831C87.1776 92.1525 87.7377 91.6031 88.4163 91.6031H103.184C103.862 91.6031 104.412 92.1525 104.412 92.831C104.412 93.5096 103.862 94.0589 103.184 94.0589Z" fill="url(#paint1_linear_2209_979)"/>
<path fill-rule="evenodd" clip-rule="evenodd" d="M63.9819 59.9091C63.9819 60.5113 63.4931 61 62.891 61C62.2888 61 61.8 60.5113 61.8 59.9091V52.2727C61.8 50.4727 63.2728 49 65.0728 49H72.7091C73.3113 49 73.8 49.4887 73.8 50.0909C73.8 50.6931 73.3113 51.1818 72.7091 51.1818H65.0728C64.4728 51.1818 63.9819 51.6727 63.9819 52.2727V59.9091Z" fill="#A684FF"/>
<path fill-rule="evenodd" clip-rule="evenodd" d="M127.618 59.9091C127.618 60.5113 128.107 61 128.709 61C129.311 61 129.8 60.5113 129.8 59.9091V52.2727C129.8 50.4727 128.327 49 126.527 49H118.891C118.289 49 117.8 49.4887 117.8 50.0909C117.8 50.6931 118.289 51.1818 118.891 51.1818H126.527C127.127 51.1818 127.618 51.6727 127.618 52.2727V59.9091Z" fill="#A684FF"/>
<path fill-rule="evenodd" clip-rule="evenodd" d="M72.7091 124.818C73.3113 124.818 73.8 125.307 73.8 125.909C73.8 126.511 73.3113 127 72.7091 127L65.0728 127C63.2728 127 61.8 125.527 61.8 123.727L61.8 116.091C61.8 115.489 62.2888 115 62.891 115C63.4931 115 63.9819 115.489 63.9819 116.091L63.9819 123.727C63.9819 124.327 64.4728 124.818 65.0728 124.818L72.7091 124.818Z" fill="#A684FF"/>
<path fill-rule="evenodd" clip-rule="evenodd" d="M118.891 124.818C118.289 124.818 117.8 125.307 117.8 125.909C117.8 126.511 118.289 127 118.891 127L126.527 127C128.327 127 129.8 125.527 129.8 123.727L129.8 116.091C129.8 115.489 129.311 115 128.709 115C128.107 115 127.618 115.489 127.618 116.091L127.618 123.727C127.618 124.327 127.127 124.818 126.527 124.818L118.891 124.818Z" fill="#A684FF"/>
<defs>
<linearGradient id="paint0_linear_2209_979" x1="98.8001" y1="93.5" x2="86.8001" y2="93.5" gradientUnits="userSpaceOnUse">
<stop stop-color="#A684FF"/>
<stop offset="1" stop-color="#51A2FF"/>
</linearGradient>
<linearGradient id="paint1_linear_2209_979" x1="95.7946" y1="86.6807" x2="95.7946" y2="103.904" gradientUnits="userSpaceOnUse">
<stop stop-color="white" stop-opacity="0.05"/>
<stop offset="1" stop-color="white" stop-opacity="0.4"/>
</linearGradient>
</defs>
</svg>