<svg width="112" height="112" viewBox="40 32 112 112" fill="none" xmlns="http://www.w3.org/2000/svg" xmlns:xlink="http://www.w3.org/1999/xlink">
<rect x="40" y="32" width="112" height="112" rx="16" fill="white"/>
<rect x="40.5" y="32.5" width="111" height="111" rx="15.5" stroke="#E5E7EB"/>
<g clip-path="url(#clip0_2209_924)">
<path d="M107.048 57.7105L125.152 62.5613L136.195 82.6487L127.868 113.726C126.828 117.607 122.831 119.915 118.94 118.872L92.5543 111.802C88.6735 110.762 86.3657 106.765 87.4056 102.884L98.1303 62.8592C99.1701 58.9784 103.167 56.6706 107.048 57.7105Z" fill="#0263D1"/>
<path fill-rule="evenodd" clip-rule="evenodd" d="M125.131 62.5557L120.882 78.4118L136.228 82.5238L125.131 62.5557Z" fill="white" fill-opacity="0.3"/>
<path d="M112.11 89.2309L105.573 87.4793C104.917 87.3037 104.518 86.6281 104.694 85.9727C104.87 85.3173 105.553 84.9316 106.208 85.1072L112.745 86.8588C113.401 87.0344 113.789 87.7072 113.613 88.3626C113.438 89.0181 112.765 89.4065 112.11 89.2309ZM112.226 104.55L101.751 101.744C101.095 101.568 100.696 100.892 100.872 100.237C101.048 99.5815 101.731 99.1958 102.386 99.3715L112.862 102.178C113.517 102.354 113.906 103.027 113.73 103.682C113.554 104.338 112.882 104.726 112.226 104.55ZM106.664 97.9639L103.025 96.9888C102.369 96.8132 101.97 96.1376 102.146 95.4822C102.322 94.8268 103.005 94.4411 103.66 94.6167L107.299 95.5918C107.955 95.7675 108.343 96.4403 108.168 97.0957C107.992 97.7511 107.319 98.1396 106.664 97.9639ZM118.563 96.0562L104.299 92.2341C103.643 92.0585 103.244 91.3829 103.42 90.7274C103.596 90.072 104.279 89.6863 104.934 89.862L119.199 93.6841C119.854 93.8597 120.242 94.5325 120.067 95.1879C119.891 95.8434 119.218 96.2318 118.563 96.0562Z" fill="white"/>
</g>
<rect x="50.2" y="74" width="40" height="40" rx="12" transform="rotate(-15 50.2 74)" fill="#51A2FF"/>
<path d="M73.3943 83.2879L59.6477 83.501L63.9841 99.6847L76.8642 96.2336L75.811 89.1309L73.4531 83.2552L73.3943 83.2879Z" fill="#E5E7EB"/>
<path d="M85.4057 76.5992L73.3953 83.2875L76.8642 96.2336L89.7422 92.7829L85.4057 76.5992Z" fill="#D1D5DC"/>
<path d="M59.6477 83.501L75.1158 89.7128L75.1244 89.5436L74.4184 83.9844L72.5277 80.0498L59.6477 83.501Z" fill="white"/>
<path d="M72.5277 80.0498L75.1167 89.7118L85.4057 76.5992L72.5277 80.0498Z" fill="#F3F4F6"/>
<defs>
<clipPath id="clip0_2209_924">
<rect width="56" height="56" fill="white" transform="translate(93.2 54) rotate(15)"/>
</clipPath>
</defs>
</svg>