<svg width="112" height="112" viewBox="40 32 112 112" fill="none" xmlns="http://www.w3.org/2000/svg" xmlns:xlink="http://www.w3.org/1999/xlink">
<path d="M40 48C40 39.1634 47.1634 32 56 32H136C144.837 32 152 39.1634 152 48V128C152 136.837 144.837 144 136 144H56C47.1634 144 40 136.837 40 128V48Z" fill="white"/>
<path d="M56 32.5H136C144.56 32.5 151.5 39.4396 151.5 48V128C151.5 136.56 144.56 143.5 136 143.5H56C47.4396 143.5 40.5 136.56 40.5 128V48C40.5 39.4396 47.4396 32.5 56 32.5Z" stroke="#E5E7EB"/>
<g clip-path="url(#clip0_2209_995)">
<path fill-rule="evenodd" clip-rule="evenodd" d="M103.534 57.2079L121.625 62.0555L132.666 82.149L124.343 113.209C123.301 117.097 119.299 119.408 115.411 118.366L89.0399 111.3C85.1517 110.258 82.8411 106.256 83.883 102.368L94.6017 62.3648C95.6435 58.4766 99.6456 56.166 103.534 57.2079Z" fill="#00A63E"/>
<path opacity="0.302" fill-rule="evenodd" clip-rule="evenodd" d="M121.603 62.0493L117.356 77.8995L132.702 82.0117L121.603 62.0493Z" fill="#54D992"/>
<path fill-rule="evenodd" clip-rule="evenodd" d="M97.7725 98.1959L104.954 100.12L104.225 102.842L97.0432 100.918L97.7725 98.1959ZM110.922 86.8147L118.126 88.7452L117.403 91.4441L110.199 89.5136L110.922 86.8147ZM101.499 84.2898L108.68 86.2141L107.957 88.913L100.775 86.9887L101.499 84.2898ZM109.696 91.3891L116.901 93.3195L116.172 96.0413L108.967 94.1108L109.696 91.3891ZM100.273 88.8641L107.455 90.7885L106.725 93.5102L99.5437 91.5859L100.273 88.8641ZM108.421 96.1464L115.626 98.0769L114.897 100.799L107.692 98.8682L108.421 96.1464ZM98.9982 93.6215L106.18 95.5458L105.451 98.2676L98.2689 96.3432L98.9982 93.6215ZM107.196 100.721L114.4 102.651L113.671 105.373L106.466 103.443L107.196 100.721Z" fill="white"/>
</g>
<g clip-path="url(#clip1_2209_995)">
<path fill-rule="evenodd" clip-rule="evenodd" d="M62.2609 63.7799L80.3456 58.9341L99.9538 70.8033L108.28 101.877C109.323 105.77 107.018 109.763 103.138 110.802L76.7548 117.872C72.8621 118.915 68.869 116.609 67.826 112.717L57.1059 72.7087C56.0628 68.816 58.3682 64.8229 62.2609 63.7799Z" fill="#E5252A"/>
<path opacity="0.302" fill-rule="evenodd" clip-rule="evenodd" d="M80.332 58.9377L84.5802 74.7923L99.9211 70.6817L80.332 58.9377Z" fill="white"/>
<path d="M73.8591 103.929L71.2117 94.0488L75.4152 92.9225C76.456 92.6436 77.3565 92.7065 78.134 93.1211C78.9079 93.5222 79.4252 94.2094 79.6823 95.169C79.9395 96.1286 79.835 96.9824 79.3654 97.7167C78.8994 98.4644 78.1509 98.9692 77.1102 99.2481L75.4341 99.6972L76.3866 103.252L73.8591 103.929ZM74.8583 97.5481L76.2505 97.1751C76.6289 97.0737 76.9045 96.9129 77.0566 96.6694C77.2123 96.4394 77.2553 96.1671 77.1683 95.8427C77.0814 95.5183 76.9081 95.304 76.6583 95.1826C76.4048 95.0477 76.0858 95.0463 75.7073 95.1477L74.3151 95.5208L74.8583 97.5481ZM82.523 101.608L79.8755 91.7273L83.3762 90.7893C84.0656 90.6046 84.7397 90.5254 85.4022 90.5652C86.0648 90.6049 86.695 90.7403 87.2866 91.0019C87.8746 91.25 88.4042 91.6586 88.8619 92.2313C89.306 92.8077 89.654 93.5112 89.8785 94.3492C90.0994 95.1737 90.15 95.9569 90.0534 96.6781C89.9434 97.4029 89.6891 98.0216 89.3039 98.5304C88.9223 99.0527 88.4442 99.4851 87.8903 99.8508C87.3364 100.216 86.713 100.485 86.0237 100.67L82.523 101.608ZM84.4206 98.7959L85.1505 98.6003C85.5424 98.4953 85.8965 98.357 86.2091 98.1718C86.5081 97.9903 86.7791 97.7583 87.0222 97.4759C87.2517 97.1971 87.4054 96.8516 87.4662 96.4298C87.527 96.0079 87.4886 95.54 87.351 95.0264C87.2097 94.4993 87.0091 94.075 86.7455 93.74C86.4819 93.4051 86.1761 93.1828 85.8379 93.0561C85.4862 92.933 85.1355 92.8676 84.7858 92.86C84.4225 92.8559 84.0467 92.9131 83.6547 93.0181L82.9249 93.2137L84.4206 98.7959ZM92.4709 98.9422L89.8235 89.0618L96.8519 87.1785L97.4278 89.3276L92.9269 90.5337L93.3506 92.115L96.9459 91.1517L97.5181 93.2872L93.9228 94.2506L94.9984 98.2649L92.4709 98.9422Z" fill="white"/>
</g>
<defs>
<clipPath id="clip0_2209_995">
<rect width="56" height="56" fill="white" transform="translate(89.6735 53.4939) rotate(15)"/>
</clipPath>
<clipPath id="clip1_2209_995">
<rect width="56" height="56" fill="white" transform="translate(48.4 67.4939) rotate(-15)"/>
</clipPath>
</defs>
</svg>