<svg preserveAspectRatio="none" width="100%" height="100%" overflow="visible" style="display: block;" viewBox="0 0 23.2642 23.9999" fill="none" xmlns="http://www.w3.org/2000/svg">
<g id="logomark">
<path id="text" fill-rule="evenodd" clip-rule="evenodd" d="M5.53562 12.5923H1.31449L1.31419 12.6784C1.31419 14.8786 1.76213 16.8359 2.65741 18.55C3.57832 20.2641 4.85713 21.6077 6.49444 22.5799C8.13175 23.5265 10.0633 23.9999 12.2889 23.9999C14.5145 23.9999 16.4461 23.5264 18.0834 22.5799C19.7207 21.6077 20.9869 20.2641 21.8823 18.55C22.8033 16.8358 23.2642 14.8786 23.2642 12.6784C23.2642 10.4527 22.8033 8.48286 21.8823 6.76877C20.9869 5.05464 19.7207 3.71163 18.0834 2.73943C16.5207 1.81155 14.6901 1.32611 12.5913 1.2838V5.04692C13.869 5.08985 14.971 5.40778 15.8964 6.00108C16.894 6.61509 17.6615 7.49781 18.1987 8.64905C18.736 9.80029 19.0044 11.1435 19.0044 12.6784C19.0044 14.1878 18.736 15.5184 18.1987 16.6697C17.6615 17.7953 16.894 18.678 15.8964 19.3176C14.8987 19.9317 13.696 20.2387 12.2889 20.2387C10.882 20.2387 9.66659 19.9317 8.64336 19.3176C7.64575 18.678 6.87826 17.7953 6.34103 16.6697C5.8038 15.5184 5.53533 14.1878 5.53533 12.6784L5.53562 12.5923Z" fill="var(--fill-0, #101828)"/>
<path id="arrow" d="M10.7926 10.7933L1.33079 10.7933L1.3308 7.88181L5.82269 7.88181L4.85695e-06 2.05873L2.05863 0L7.88129 5.82301L7.88129 1.33092L10.7926 1.33092L10.7926 10.7933Z" fill="var(--fill-0, #FFD230)"/>
</g>
</svg>
