<svg preserveAspectRatio="none" width="100%" height="100%" overflow="visible" style="display: block;" viewBox="0 0 46.5283 48" fill="none" xmlns="http://www.w3.org/2000/svg">
<g id="logomark">
<path id="text" fill-rule="evenodd" clip-rule="evenodd" d="M11.0712 25.1845H2.62898L2.62839 25.3567C2.62839 29.7571 3.52426 33.6718 5.31483 37.1C7.15663 40.5283 9.71425 43.2155 12.9889 45.1599C16.2635 47.0531 20.1265 48 24.5778 48C29.029 48 32.8921 47.0531 36.1667 45.1599C39.4413 43.2155 41.9737 40.5283 43.7646 37.1C45.6064 33.6717 46.5283 29.7571 46.5283 25.3567C46.5283 20.9052 45.6064 16.9655 43.7646 13.5373C41.9737 10.109 39.4413 7.42291 36.1667 5.47848C33.0414 3.62269 29.38 2.65179 25.1826 2.56718V10.0935C27.7379 10.1794 29.9419 10.8153 31.7927 12.0019C33.788 13.2299 35.3229 14.9954 36.3974 17.2979C37.4718 19.6004 38.0088 22.2868 38.0088 25.3567C38.0088 28.3755 37.4718 31.0368 36.3974 33.3394C35.3229 35.5906 33.788 37.3562 31.7927 38.6354C29.7972 39.8634 27.3919 40.4776 24.5778 40.4776C21.764 40.4776 19.3331 39.8634 17.2867 38.6354C15.2915 37.3562 13.7565 35.5906 12.682 33.3394C11.6076 31.0368 11.0706 28.3755 11.0706 25.3567L11.0712 25.1845Z" fill="var(--fill-0, white)"/>
<path id="arrow" d="M21.5852 21.587L2.66158 21.5869L2.66158 15.7639L11.6453 15.7639L3.05823e-06 4.11751L4.11724 1.19761e-06L15.7625 11.6462L15.7625 2.66189L21.5852 2.66189L21.5852 21.587Z" fill="var(--fill-0, #FFD230)"/>
</g>
</svg>
