<svg width="48" height="48" viewBox="448 764 48 48" fill="none" xmlns="http://www.w3.org/2000/svg">
<path d="M480.875 774.5C480.875 774.202 480.994 773.915 481.205 773.704C481.415 773.493 481.702 773.375 482 773.375H491C491.298 773.375 491.585 773.493 491.796 773.704C492.006 773.915 492.125 774.202 492.125 774.5C492.125 774.798 492.006 775.084 491.796 775.295C491.585 775.506 491.298 775.625 491 775.625H482C481.702 775.625 481.415 775.506 481.205 775.295C480.994 775.084 480.875 774.798 480.875 774.5ZM491.036 781.625C492.43 785.578 492.486 789.879 491.195 793.867C489.903 797.854 487.337 801.307 483.89 803.692C480.444 806.077 476.308 807.263 472.122 807.066C467.935 806.869 463.929 805.302 460.721 802.604C457.513 799.907 455.281 796.229 454.369 792.138C453.457 788.047 453.916 783.77 455.674 779.965C457.432 776.16 460.393 773.039 464.1 771.083C467.807 769.127 472.054 768.444 476.188 769.139C476.335 769.161 476.477 769.213 476.605 769.291C476.733 769.368 476.844 769.471 476.932 769.592C477.019 769.713 477.082 769.85 477.116 769.996C477.15 770.141 477.155 770.292 477.13 770.439C477.105 770.587 477.051 770.728 476.971 770.854C476.891 770.98 476.787 771.09 476.664 771.175C476.541 771.26 476.403 771.321 476.257 771.352C476.11 771.383 475.959 771.385 475.813 771.357C474.883 771.203 473.942 771.125 473 771.125C469.706 771.123 466.484 772.086 463.731 773.895C460.978 775.703 458.815 778.278 457.508 781.302C456.202 784.326 455.81 787.666 456.38 790.91C456.95 794.154 458.458 797.16 460.717 799.557C462.485 796.809 465.127 794.736 468.217 793.674C466.676 792.647 465.506 791.152 464.881 789.41C464.255 787.667 464.207 785.77 464.743 783.998C465.279 782.225 466.371 780.673 467.858 779.569C469.344 778.466 471.147 777.87 472.998 777.87C474.85 777.87 476.652 778.466 478.139 779.569C479.625 780.673 480.717 782.225 481.254 783.998C481.79 785.77 481.741 787.667 481.116 789.41C480.49 791.152 479.32 792.647 477.779 793.674C480.87 794.736 483.512 796.809 485.279 799.557C487.404 797.303 488.867 794.507 489.509 791.476C490.15 788.446 489.945 785.297 488.915 782.375C488.862 782.235 488.837 782.085 488.842 781.935C488.847 781.785 488.882 781.638 488.945 781.502C489.008 781.366 489.098 781.244 489.209 781.143C489.32 781.042 489.45 780.964 489.591 780.914C489.733 780.864 489.883 780.842 490.032 780.851C490.182 780.86 490.329 780.899 490.463 780.965C490.598 781.031 490.718 781.124 490.816 781.237C490.914 781.351 490.989 781.482 491.036 781.625ZM473 792.875C474.261 792.875 475.493 792.501 476.542 791.801C477.59 791.1 478.407 790.104 478.89 788.94C479.372 787.775 479.498 786.493 479.253 785.256C479.007 784.02 478.399 782.884 477.508 781.992C476.616 781.101 475.48 780.493 474.244 780.247C473.007 780.001 471.725 780.128 470.56 780.61C469.396 781.093 468.4 781.91 467.699 782.958C466.999 784.007 466.625 785.239 466.625 786.5C466.625 788.191 467.297 789.812 468.492 791.008C469.688 792.203 471.309 792.875 473 792.875ZM473 804.875C476.861 804.881 480.606 803.557 483.605 801.125C482.505 799.295 480.95 797.782 479.092 796.731C477.233 795.68 475.135 795.128 473 795.128C470.865 795.128 468.767 795.68 466.908 796.731C465.05 797.782 463.495 799.295 462.395 801.125C465.394 803.557 469.139 804.881 473 804.875Z" fill="#00A63E"/>
</svg>