<svg width="48" height="48" viewBox="0 488 48 48" fill="none" xmlns="http://www.w3.org/2000/svg">
<path d="M46.4231 505.816L29.8894 495.284C29.4932 495.033 29.0369 494.892 28.568 494.877C28.0991 494.862 27.6347 494.972 27.2231 495.198C26.8154 495.421 26.4751 495.75 26.2379 496.149C26.0007 496.549 25.8754 497.005 25.875 497.47V505.158L10.3894 495.284C9.99321 495.033 9.53694 494.892 9.06802 494.877C8.59911 494.862 8.1347 494.972 7.72312 495.198C7.31536 495.421 6.97508 495.75 6.73791 496.149C6.50074 496.549 6.37539 497.005 6.375 497.47V518.53C6.37539 518.995 6.50074 519.451 6.73791 519.851C6.97508 520.251 7.31536 520.579 7.72312 520.803C8.1347 521.028 8.59911 521.139 9.06802 521.123C9.53694 521.108 9.99321 520.968 10.3894 520.716L25.875 510.852V518.53C25.8754 518.995 26.0007 519.451 26.2379 519.851C26.4751 520.251 26.8154 520.579 27.2231 520.803C27.6347 521.028 28.0991 521.139 28.568 521.123C29.0369 521.108 29.4932 520.968 29.8894 520.716L46.4231 510.185C46.7914 509.951 47.0947 509.629 47.3049 509.247C47.5151 508.865 47.6253 508.436 47.6253 508C47.6253 507.564 47.5151 507.135 47.3049 506.754C47.0947 506.372 46.7914 506.049 46.4231 505.816ZM25.7156 508.287L9.1875 518.817C9.13223 518.854 9.06785 518.874 9.0016 518.876C8.93535 518.878 8.86987 518.861 8.8125 518.828C8.75586 518.802 8.70803 518.76 8.67477 518.707C8.64151 518.654 8.62422 518.593 8.625 518.53V497.47C8.62422 497.408 8.64151 497.346 8.67477 497.293C8.70803 497.241 8.75586 497.198 8.8125 497.172C8.86965 497.14 8.93431 497.123 9 497.123C9.06695 497.125 9.13201 497.146 9.1875 497.183L25.7231 507.713C25.772 507.744 25.8123 507.786 25.8402 507.836C25.8682 507.886 25.8828 507.943 25.8828 508C25.8828 508.058 25.8682 508.114 25.8402 508.164C25.8123 508.215 25.772 508.257 25.7231 508.287H25.7156ZM45.2156 508.287L28.6875 518.817C28.6322 518.854 28.5679 518.874 28.5016 518.876C28.4354 518.878 28.3699 518.861 28.3125 518.828C28.2559 518.802 28.208 518.76 28.1748 518.707C28.1415 518.654 28.1242 518.593 28.125 518.53V497.47C28.1242 497.408 28.1415 497.346 28.1748 497.293C28.208 497.241 28.2559 497.198 28.3125 497.172C28.3697 497.14 28.4343 497.123 28.5 497.123C28.5669 497.125 28.632 497.146 28.6875 497.183L45.2231 507.713C45.272 507.744 45.3123 507.786 45.3402 507.836C45.3682 507.886 45.3828 507.943 45.3828 508C45.3828 508.058 45.3682 508.114 45.3402 508.164C45.3123 508.215 45.272 508.257 45.2231 508.287H45.2156Z" fill="#8E51FF"/>
</svg>