<svg width="48" height="48" viewBox="448 204 48 48" fill="none" xmlns="http://www.w3.org/2000/svg">
<path d="M487.559 217.89C485.65 215.976 483.38 214.46 480.881 213.427C478.382 212.395 475.704 211.867 473 211.875H472.927C461.594 211.914 452.375 221.261 452.375 232.712V237C452.375 237.696 452.652 238.364 453.144 238.856C453.636 239.349 454.304 239.625 455 239.625H491C491.696 239.625 492.364 239.349 492.856 238.856C493.348 238.364 493.625 237.696 493.625 237V232.5C493.632 229.784 493.1 227.094 492.059 224.586C491.017 222.078 489.488 219.802 487.559 217.89ZM491.375 237C491.375 237.1 491.335 237.195 491.265 237.265C491.195 237.336 491.099 237.375 491 237.375H470.709L481.409 222.662C481.577 222.42 481.644 222.123 481.595 221.833C481.546 221.543 481.386 221.283 481.148 221.11C480.91 220.937 480.614 220.864 480.323 220.907C480.032 220.949 479.769 221.104 479.591 221.338L467.926 237.375H455C454.901 237.375 454.805 237.336 454.735 237.265C454.665 237.195 454.625 237.1 454.625 237V232.712C454.626 232.015 454.665 231.318 454.741 230.625H459.5C459.798 230.625 460.085 230.507 460.295 230.296C460.506 230.085 460.625 229.798 460.625 229.5C460.625 229.202 460.506 228.916 460.295 228.705C460.085 228.494 459.798 228.375 459.5 228.375H455.133C456.987 220.575 463.724 214.661 471.875 214.161V219C471.875 219.298 471.994 219.585 472.205 219.796C472.415 220.007 472.702 220.125 473 220.125C473.298 220.125 473.585 220.007 473.795 219.796C474.006 219.585 474.125 219.298 474.125 219V214.161C478.082 214.404 481.854 215.919 484.879 218.48C487.904 221.042 490.02 224.513 490.912 228.375H486.5C486.202 228.375 485.915 228.494 485.705 228.705C485.494 228.916 485.375 229.202 485.375 229.5C485.375 229.798 485.494 230.085 485.705 230.296C485.915 230.507 486.202 230.625 486.5 230.625H491.281C491.343 231.244 491.375 231.87 491.375 232.5V237Z" fill="#FB2C36"/>
</svg>