<svg width="48" height="48" viewBox="448 488 48 48" fill="none" xmlns="http://www.w3.org/2000/svg">
<path d="M474.125 499V507.362L481.079 511.534C481.335 511.688 481.52 511.937 481.592 512.227C481.665 512.517 481.619 512.823 481.466 513.079C481.312 513.335 481.063 513.52 480.773 513.592C480.483 513.665 480.177 513.619 479.921 513.466L472.421 508.966C472.254 508.865 472.116 508.724 472.021 508.555C471.925 508.385 471.875 508.194 471.875 508V499C471.875 498.702 471.994 498.415 472.204 498.204C472.415 497.993 472.702 497.875 473 497.875C473.298 497.875 473.585 497.993 473.795 498.204C474.006 498.415 474.125 498.702 474.125 499ZM491 494.875C490.702 494.875 490.415 494.993 490.204 495.204C489.994 495.415 489.875 495.702 489.875 496V500.38C488.472 498.724 487.074 497.168 485.463 495.537C483.014 493.087 479.896 491.414 476.501 490.726C473.106 490.038 469.583 490.365 466.373 491.668C463.163 492.97 460.408 495.19 458.453 498.049C456.497 500.909 455.427 504.281 455.377 507.745C455.327 511.208 456.299 514.61 458.171 517.525C460.043 520.44 462.733 522.738 465.904 524.133C469.075 525.528 472.587 525.957 476 525.367C479.414 524.778 482.578 523.195 485.097 520.817C485.307 520.611 485.427 520.33 485.433 520.036C485.438 519.742 485.328 519.457 485.125 519.244C484.923 519.03 484.645 518.903 484.351 518.892C484.057 518.881 483.771 518.985 483.552 519.182C481.354 521.256 478.594 522.635 475.616 523.149C472.638 523.662 469.575 523.287 466.81 522.069C464.044 520.852 461.698 518.847 460.066 516.304C458.433 513.761 457.586 510.794 457.63 507.772C457.674 504.751 458.608 501.81 460.314 499.316C462.02 496.822 464.424 494.886 467.224 493.75C470.024 492.614 473.096 492.328 476.058 492.928C479.019 493.529 481.738 494.988 483.875 497.125C485.607 498.88 487.096 500.556 488.621 502.375H483.5C483.202 502.375 482.915 502.493 482.704 502.704C482.494 502.915 482.375 503.202 482.375 503.5C482.375 503.798 482.494 504.084 482.704 504.295C482.915 504.506 483.202 504.625 483.5 504.625H491C491.298 504.625 491.585 504.506 491.795 504.295C492.006 504.084 492.125 503.798 492.125 503.5V496C492.125 495.702 492.006 495.415 491.795 495.204C491.585 494.993 491.298 494.875 491 494.875Z" fill="#4A5565"/>
</svg>