<svg width="48" height="48" viewBox="0 0 48 48" fill="none" xmlns="http://www.w3.org/2000/svg">
<path d="M41.625 23.9998C41.625 24.2981 41.5065 24.5843 41.2955 24.7953C41.0845 25.0062 40.7984 25.1248 40.5 25.1248H24C23.7016 25.1248 23.4155 25.0062 23.2045 24.7953C22.9935 24.5843 22.875 24.2981 22.875 23.9998C22.875 23.7014 22.9935 23.4153 23.2045 23.2043C23.4155 22.9933 23.7016 22.8748 24 22.8748H40.5C40.7984 22.8748 41.0845 22.9933 41.2955 23.2043C41.5065 23.4153 41.625 23.7014 41.625 23.9998ZM24 13.1248H40.5C40.7984 13.1248 41.0845 13.0062 41.2955 12.7953C41.5065 12.5843 41.625 12.2981 41.625 11.9998C41.625 11.7014 41.5065 11.4153 41.2955 11.2043C41.0845 10.9933 40.7984 10.8748 40.5 10.8748H24C23.7016 10.8748 23.4155 10.9933 23.2045 11.2043C22.9935 11.4153 22.875 11.7014 22.875 11.9998C22.875 12.2981 22.9935 12.5843 23.2045 12.7953C23.4155 13.0062 23.7016 13.1248 24 13.1248ZM40.5 34.8748H24C23.7016 34.8748 23.4155 34.9933 23.2045 35.2043C22.9935 35.4153 22.875 35.7014 22.875 35.9998C22.875 36.2981 22.9935 36.5843 23.2045 36.7953C23.4155 37.0062 23.7016 37.1248 24 37.1248H40.5C40.7984 37.1248 41.0845 37.0062 41.2955 36.7953C41.5065 36.5843 41.625 36.2981 41.625 35.9998C41.625 35.7014 41.5065 35.4153 41.2955 35.2043C41.0845 34.9933 40.7984 34.8748 40.5 34.8748ZM15.705 8.20477L10.5 13.4079L8.29499 11.2048C8.08172 11.006 7.79965 10.8979 7.5082 10.903C7.21675 10.9081 6.93867 11.0262 6.73255 11.2323C6.52643 11.4385 6.40837 11.7165 6.40322 12.008C6.39808 12.2994 6.50627 12.5815 6.70499 12.7948L9.70499 15.7948C9.91592 16.0054 10.2019 16.1238 10.5 16.1238C10.7981 16.1238 11.084 16.0054 11.295 15.7948L17.295 9.79477C17.4937 9.58151 17.6019 9.29944 17.5967 9.00799C17.5916 8.71653 17.4735 8.43846 17.2674 8.23234C17.0613 8.02622 16.7832 7.90815 16.4918 7.90301C16.2003 7.89786 15.9182 8.00605 15.705 8.20477ZM15.705 20.2048L10.5 25.4079L8.29499 23.2048C8.19199 23.0942 8.06779 23.0056 7.92979 22.9441C7.79179 22.8826 7.64282 22.8495 7.49177 22.8469C7.34072 22.8442 7.19067 22.872 7.05059 22.9286C6.91051 22.9852 6.78326 23.0694 6.67643 23.1762C6.5696 23.283 6.48538 23.4103 6.4288 23.5504C6.37222 23.6905 6.34443 23.8405 6.3471 23.9916C6.34976 24.1426 6.38283 24.2916 6.44431 24.4296C6.5058 24.5676 6.59446 24.6918 6.70499 24.7948L9.70499 27.7948C9.91592 28.0054 10.2019 28.1238 10.5 28.1238C10.7981 28.1238 11.084 28.0054 11.295 27.7948L17.295 21.7948C17.4937 21.5815 17.6019 21.2994 17.5967 21.008C17.5916 20.7165 17.4735 20.4385 17.2674 20.2323C17.0613 20.0262 16.7832 19.9081 16.4918 19.903C16.2003 19.8979 15.9182 20.006 15.705 20.2048ZM15.705 32.2048L10.5 37.4079L8.29499 35.2048C8.08172 35.006 7.79965 34.8979 7.5082 34.903C7.21675 34.9081 6.93867 35.0262 6.73255 35.2323C6.52643 35.4385 6.40837 35.7165 6.40322 36.008C6.39808 36.2994 6.50627 36.5815 6.70499 36.7948L9.70499 39.7948C9.91592 40.0054 10.2019 40.1238 10.5 40.1238C10.7981 40.1238 11.084 40.0054 11.295 39.7948L17.295 33.7948C17.4937 33.5815 17.6019 33.2994 17.5967 33.008C17.5916 32.7165 17.4735 32.4385 17.2674 32.2323C17.0613 32.0262 16.7832 31.9081 16.4918 31.903C16.2003 31.8979 15.9182 32.006 15.705 32.2048Z" fill="#00A63E"/>
</svg>