<svg width="398" height="48" viewBox="0 0 398 48" fill="none" xmlns="http://www.w3.org/2000/svg">
<rect x="0.5" y="0.5" width="397" height="47" rx="5.5" fill="url(#paint0_linear_2483_159)"/>
<rect x="0.5" y="0.5" width="397" height="47" rx="5.5" stroke="url(#paint1_linear_2483_159)"/>
<path d="M124 25.5C124.002 25.8058 123.909 26.1047 123.734 26.3555C123.559 26.6063 123.311 26.7968 123.023 26.9006L118.188 28.6875L116.406 33.5269C116.301 33.8134 116.11 34.0608 115.859 34.2355C115.609 34.4101 115.311 34.5038 115.006 34.5038C114.7 34.5038 114.402 34.4101 114.152 34.2355C113.901 34.0608 113.711 33.8134 113.605 33.5269L111.813 28.6875L106.973 26.9062C106.687 26.8008 106.439 26.6099 106.265 26.3595C106.09 26.109 105.996 25.811 105.996 25.5056C105.996 25.2003 106.09 24.9022 106.265 24.6518C106.439 24.4013 106.687 24.2105 106.973 24.105L111.813 22.3125L113.594 17.4731C113.699 17.1866 113.89 16.9392 114.141 16.7645C114.391 16.5899 114.689 16.4962 114.994 16.4962C115.3 16.4962 115.598 16.5899 115.848 16.7645C116.099 16.9392 116.29 17.1866 116.395 17.4731L118.188 22.3125L123.027 24.0938C123.315 24.1986 123.563 24.3901 123.737 24.642C123.912 24.8939 124.003 25.1937 124 25.5ZM118.75 16.5H120.25V18C120.25 18.1989 120.329 18.3897 120.47 18.5303C120.61 18.671 120.801 18.75 121 18.75C121.199 18.75 121.39 18.671 121.53 18.5303C121.671 18.3897 121.75 18.1989 121.75 18V16.5H123.25C123.449 16.5 123.64 16.421 123.78 16.2803C123.921 16.1397 124 15.9489 124 15.75C124 15.5511 123.921 15.3603 123.78 15.2197C123.64 15.079 123.449 15 123.25 15H121.75V13.5C121.75 13.3011 121.671 13.1103 121.53 12.9697C121.39 12.829 121.199 12.75 121 12.75C120.801 12.75 120.61 12.829 120.47 12.9697C120.329 13.1103 120.25 13.3011 120.25 13.5V15H118.75C118.551 15 118.36 15.079 118.22 15.2197C118.079 15.3603 118 15.5511 118 15.75C118 15.9489 118.079 16.1397 118.22 16.2803C118.36 16.421 118.551 16.5 118.75 16.5ZM127 19.5H126.25V18.75C126.25 18.5511 126.171 18.3603 126.03 18.2197C125.89 18.079 125.699 18 125.5 18C125.301 18 125.11 18.079 124.97 18.2197C124.829 18.3603 124.75 18.5511 124.75 18.75V19.5H124C123.801 19.5 123.61 19.579 123.47 19.7197C123.329 19.8603 123.25 20.0511 123.25 20.25C123.25 20.4489 123.329 20.6397 123.47 20.7803C123.61 20.921 123.801 21 124 21H124.75V21.75C124.75 21.9489 124.829 22.1397 124.97 22.2803C125.11 22.421 125.301 22.5 125.5 22.5C125.699 22.5 125.89 22.421 126.03 22.2803C126.171 22.1397 126.25 21.9489 126.25 21.75V21H127C127.199 21 127.39 20.921 127.53 20.7803C127.671 20.6397 127.75 20.4489 127.75 20.25C127.75 20.0511 127.671 19.8603 127.53 19.7197C127.39 19.579 127.199 19.5 127 19.5Z" fill="#7F22FE"/>
<path d="M139.986 18.7H141.442L138.418 28.5H136.822L139.986 18.7ZM142.072 18.7L145.306 28.5H143.71L140.602 18.7H142.072ZM138.348 24.888H143.626V26.232H138.348V24.888ZM146.403 18.7H147.929V28.5H146.403V18.7ZM152.336 28.5V18.7H159.07V20.058H153.862V22.9H158.51V24.244H153.862V27.142H159.126V28.5H152.336ZM159.969 20.66H161.705L166.703 28.5H164.967L159.969 20.66ZM166.661 20.66L161.663 28.5H159.927L164.925 20.66H166.661ZM167.365 20.66H171.495V21.948H167.365V20.66ZM168.541 18.7H170.039V26.372C170.039 26.6613 170.109 26.876 170.249 27.016C170.389 27.1467 170.595 27.212 170.865 27.212H171.719V28.5H170.851C170.086 28.5 169.507 28.3133 169.115 27.94C168.733 27.5573 168.541 27.0347 168.541 26.372V18.7ZM172.829 20.66H174.327V28.5H172.829V20.66ZM174.327 24.384L174.117 23.222C174.117 22.9793 174.145 22.6993 174.201 22.382C174.266 22.0647 174.392 21.7613 174.579 21.472C174.775 21.1733 175.059 20.926 175.433 20.73C175.815 20.534 176.319 20.436 176.945 20.436V21.948C176.394 21.948 175.923 22.0227 175.531 22.172C175.139 22.3213 174.84 22.5733 174.635 22.928C174.429 23.2733 174.327 23.7587 174.327 24.384ZM182.639 24.02H184.137V28.5H182.639V24.02ZM180.889 20.436C181.963 20.436 182.77 20.758 183.311 21.402C183.862 22.046 184.137 22.9187 184.137 24.02H182.639C182.639 23.5627 182.583 23.1707 182.471 22.844C182.359 22.508 182.173 22.2467 181.911 22.06C181.659 21.8733 181.319 21.78 180.889 21.78C180.292 21.78 179.835 21.9387 179.517 22.256C179.209 22.5733 179.055 22.9607 179.055 23.418H177.473C177.473 22.9047 177.604 22.424 177.865 21.976C178.127 21.5187 178.514 21.15 179.027 20.87C179.541 20.5807 180.161 20.436 180.889 20.436ZM182.765 23.642L183.059 24.734C181.753 24.622 180.787 24.7153 180.161 25.014C179.545 25.3033 179.237 25.6953 179.237 26.19C179.237 26.5913 179.363 26.8947 179.615 27.1C179.877 27.296 180.236 27.394 180.693 27.394C181.067 27.394 181.398 27.3193 181.687 27.17C181.986 27.0113 182.219 26.7827 182.387 26.484C182.555 26.1853 182.639 25.826 182.639 25.406L183.017 26.078C182.961 26.6007 182.831 27.0627 182.625 27.464C182.42 27.856 182.131 28.164 181.757 28.388C181.384 28.612 180.922 28.724 180.371 28.724C179.858 28.724 179.396 28.6307 178.985 28.444C178.575 28.248 178.248 27.968 178.005 27.604C177.772 27.24 177.655 26.7967 177.655 26.274C177.655 25.77 177.758 25.3547 177.963 25.028C178.169 24.692 178.444 24.426 178.789 24.23C179.135 24.034 179.527 23.894 179.965 23.81C180.413 23.7167 180.875 23.6607 181.351 23.642C181.827 23.6233 182.299 23.6233 182.765 23.642ZM192.853 25.21C192.825 25.882 192.657 26.484 192.349 27.016C192.051 27.548 191.631 27.968 191.089 28.276C190.548 28.5747 189.909 28.724 189.171 28.724C188.359 28.724 187.655 28.5513 187.057 28.206C186.46 27.8513 185.993 27.3613 185.657 26.736C185.331 26.1107 185.167 25.3967 185.167 24.594C185.167 23.782 185.331 23.0633 185.657 22.438C185.993 21.8127 186.46 21.3227 187.057 20.968C187.655 20.6133 188.359 20.436 189.171 20.436C189.881 20.436 190.506 20.5947 191.047 20.912C191.589 21.22 192.013 21.626 192.321 22.13C192.629 22.6247 192.797 23.1613 192.825 23.74H191.229C191.211 23.4133 191.127 23.1053 190.977 22.816C190.828 22.5267 190.604 22.2887 190.305 22.102C190.016 21.9153 189.638 21.822 189.171 21.822C188.621 21.822 188.163 21.9433 187.799 22.186C187.435 22.4193 187.16 22.746 186.973 23.166C186.796 23.586 186.707 24.062 186.707 24.594C186.707 25.1167 186.796 25.588 186.973 26.008C187.16 26.4187 187.435 26.7453 187.799 26.988C188.163 27.2213 188.621 27.338 189.171 27.338C189.657 27.338 190.049 27.24 190.347 27.044C190.655 26.8387 190.884 26.5773 191.033 26.26C191.183 25.9333 191.267 25.5833 191.285 25.21H192.853ZM193.356 20.66H197.486V21.948H193.356V20.66ZM194.532 18.7H196.03V26.372C196.03 26.6613 196.1 26.876 196.24 27.016C196.38 27.1467 196.585 27.212 196.856 27.212H197.71V28.5H196.842C196.076 28.5 195.498 28.3133 195.106 27.94C194.723 27.5573 194.532 27.0347 194.532 26.372V18.7ZM198.862 20.66H200.374V28.5H198.862V20.66ZM198.778 18H200.458V19.722H198.778V18ZM205.523 28.724C204.711 28.724 204.006 28.5513 203.409 28.206C202.812 27.8513 202.345 27.3613 202.009 26.736C201.682 26.1107 201.519 25.3967 201.519 24.594C201.519 23.782 201.682 23.0633 202.009 22.438C202.345 21.8127 202.812 21.3227 203.409 20.968C204.006 20.6133 204.711 20.436 205.523 20.436C206.335 20.436 207.04 20.6133 207.637 20.968C208.234 21.3227 208.696 21.8127 209.023 22.438C209.359 23.0633 209.527 23.782 209.527 24.594C209.527 25.3967 209.359 26.1107 209.023 26.736C208.696 27.3613 208.234 27.8513 207.637 28.206C207.04 28.5513 206.335 28.724 205.523 28.724ZM205.523 27.352C206.036 27.352 206.475 27.24 206.839 27.016C207.203 26.7827 207.483 26.4607 207.679 26.05C207.875 25.63 207.973 25.1447 207.973 24.594C207.973 24.034 207.875 23.544 207.679 23.124C207.483 22.704 207.203 22.382 206.839 22.158C206.475 21.9247 206.036 21.808 205.523 21.808C205.01 21.808 204.566 21.9247 204.193 22.158C203.829 22.382 203.549 22.704 203.353 23.124C203.157 23.544 203.059 24.034 203.059 24.594C203.059 25.1447 203.157 25.63 203.353 26.05C203.549 26.4607 203.829 26.7827 204.193 27.016C204.566 27.24 205.01 27.352 205.523 27.352ZM210.59 20.66H212.088V21.948C212.2 21.6867 212.364 21.444 212.578 21.22C212.793 20.9867 213.073 20.8 213.418 20.66C213.764 20.5107 214.184 20.436 214.678 20.436C215.182 20.436 215.63 20.5387 216.022 20.744C216.424 20.9493 216.736 21.29 216.96 21.766C217.194 22.2327 217.31 22.8673 217.31 23.67V28.5H215.812V23.852C215.812 23.4227 215.77 23.054 215.686 22.746C215.602 22.4287 215.448 22.186 215.224 22.018C215 21.8407 214.688 21.752 214.286 21.752C213.913 21.752 213.558 21.8593 213.222 22.074C212.886 22.2887 212.611 22.606 212.396 23.026C212.191 23.446 212.088 23.9687 212.088 24.594V28.5H210.59V20.66ZM221.64 20.66H223.152V28.5H221.64V20.66ZM221.556 18H223.236V19.722H221.556V18ZM224.631 20.66H226.129V21.948C226.241 21.6867 226.405 21.444 226.619 21.22C226.834 20.9867 227.114 20.8 227.459 20.66C227.805 20.5107 228.225 20.436 228.719 20.436C229.223 20.436 229.671 20.5387 230.063 20.744C230.465 20.9493 230.777 21.29 231.001 21.766C231.235 22.2327 231.351 22.8673 231.351 23.67V28.5H229.853V23.852C229.853 23.4227 229.811 23.054 229.727 22.746C229.643 22.4287 229.489 22.186 229.265 22.018C229.041 21.8407 228.729 21.752 228.327 21.752C227.954 21.752 227.599 21.8593 227.263 22.074C226.927 22.2887 226.652 22.606 226.437 23.026C226.232 23.446 226.129 23.9687 226.129 24.594V28.5H224.631V20.66ZM239.615 28.724C238.999 28.724 238.481 28.598 238.061 28.346C237.65 28.0847 237.328 27.7393 237.095 27.31V21.878C237.347 21.43 237.678 21.08 238.089 20.828C238.509 20.5667 239.017 20.436 239.615 20.436C240.343 20.436 240.968 20.6133 241.491 20.968C242.013 21.3227 242.419 21.8127 242.709 22.438C242.998 23.0633 243.143 23.782 243.143 24.594C243.143 25.3967 242.998 26.1107 242.709 26.736C242.419 27.3613 242.013 27.8513 241.491 28.206C240.968 28.5513 240.343 28.724 239.615 28.724ZM235.597 31.3V20.66H237.095V31.3H235.597ZM239.405 27.352C239.871 27.352 240.263 27.24 240.581 27.016C240.907 26.7827 241.159 26.4607 241.337 26.05C241.514 25.63 241.603 25.1447 241.603 24.594C241.603 24.034 241.514 23.544 241.337 23.124C241.159 22.704 240.907 22.382 240.581 22.158C240.263 21.9247 239.871 21.808 239.405 21.808C238.891 21.808 238.462 21.9293 238.117 22.172C237.781 22.4147 237.524 22.746 237.347 23.166C237.179 23.586 237.095 24.062 237.095 24.594C237.095 25.1167 237.179 25.588 237.347 26.008C237.524 26.428 237.781 26.7593 238.117 27.002C238.462 27.2353 238.891 27.352 239.405 27.352ZM244.25 20.66H245.748V28.5H244.25V20.66ZM245.748 24.384L245.538 23.222C245.538 22.9793 245.566 22.6993 245.622 22.382C245.688 22.0647 245.814 21.7613 246 21.472C246.196 21.1733 246.481 20.926 246.854 20.73C247.237 20.534 247.741 20.436 248.366 20.436V21.948C247.816 21.948 247.344 22.0227 246.952 22.172C246.56 22.3213 246.262 22.5733 246.056 22.928C245.851 23.2733 245.748 23.7587 245.748 24.384ZM252.595 28.724C251.783 28.724 251.079 28.5513 250.481 28.206C249.884 27.8513 249.417 27.3613 249.081 26.736C248.755 26.1107 248.591 25.3967 248.591 24.594C248.591 23.782 248.755 23.0633 249.081 22.438C249.417 21.8127 249.884 21.3227 250.481 20.968C251.079 20.6133 251.783 20.436 252.595 20.436C253.407 20.436 254.112 20.6133 254.709 20.968C255.307 21.3227 255.769 21.8127 256.095 22.438C256.431 23.0633 256.599 23.782 256.599 24.594C256.599 25.3967 256.431 26.1107 256.095 26.736C255.769 27.3613 255.307 27.8513 254.709 28.206C254.112 28.5513 253.407 28.724 252.595 28.724ZM252.595 27.352C253.109 27.352 253.547 27.24 253.911 27.016C254.275 26.7827 254.555 26.4607 254.751 26.05C254.947 25.63 255.045 25.1447 255.045 24.594C255.045 24.034 254.947 23.544 254.751 23.124C254.555 22.704 254.275 22.382 253.911 22.158C253.547 21.9247 253.109 21.808 252.595 21.808C252.082 21.808 251.639 21.9247 251.265 22.158C250.901 22.382 250.621 22.704 250.425 23.124C250.229 23.544 250.131 24.034 250.131 24.594C250.131 25.1447 250.229 25.63 250.425 26.05C250.621 26.4607 250.901 26.7827 251.265 27.016C251.639 27.24 252.082 27.352 252.595 27.352ZM260.897 28.444C260.178 28.444 259.553 28.2807 259.021 27.954C258.498 27.6273 258.092 27.1653 257.803 26.568C257.513 25.9613 257.369 25.2567 257.369 24.454C257.369 23.642 257.513 22.9373 257.803 22.34C258.092 21.7333 258.498 21.2667 259.021 20.94C259.553 20.604 260.178 20.436 260.897 20.436C261.858 20.436 262.586 20.7253 263.081 21.304C263.575 21.8733 263.879 22.662 263.991 23.67L263.963 25.266C263.907 25.8913 263.767 26.442 263.543 26.918C263.319 27.394 262.992 27.7673 262.563 28.038C262.133 28.3087 261.578 28.444 260.897 28.444ZM261.443 31.524C260.612 31.524 259.94 31.3933 259.427 31.132C258.913 30.8707 258.526 30.53 258.265 30.11C258.013 29.6993 257.849 29.2747 257.775 28.836H259.329C259.422 29.2933 259.651 29.6247 260.015 29.83C260.379 30.0447 260.855 30.152 261.443 30.152C261.844 30.152 262.189 30.082 262.479 29.942C262.777 29.802 263.006 29.578 263.165 29.27C263.333 28.9713 263.417 28.5747 263.417 28.08H264.915C264.915 28.8173 264.765 29.4427 264.467 29.956C264.168 30.4693 263.757 30.8567 263.235 31.118C262.721 31.3887 262.124 31.524 261.443 31.524ZM261.093 27.072C261.877 27.072 262.46 26.834 262.843 26.358C263.225 25.882 263.417 25.2473 263.417 24.454C263.417 23.6513 263.225 23.012 262.843 22.536C262.46 22.0507 261.877 21.808 261.093 21.808C260.421 21.808 259.889 22.0413 259.497 22.508C259.105 22.9653 258.909 23.614 258.909 24.454C258.909 25.2847 259.105 25.9287 259.497 26.386C259.889 26.8433 260.421 27.072 261.093 27.072ZM263.417 28.08V20.66H264.915V28.08H263.417ZM266.317 20.66H267.815V28.5H266.317V20.66ZM267.815 24.384L267.605 23.222C267.605 22.9793 267.633 22.6993 267.689 22.382C267.754 22.0647 267.88 21.7613 268.067 21.472C268.263 21.1733 268.548 20.926 268.921 20.73C269.304 20.534 269.808 20.436 270.433 20.436V21.948C269.882 21.948 269.411 22.0227 269.019 22.172C268.627 22.3213 268.328 22.5733 268.123 22.928C267.918 23.2733 267.815 23.7587 267.815 24.384ZM274.662 28.724C273.85 28.724 273.145 28.5513 272.548 28.206C271.95 27.8513 271.484 27.3613 271.148 26.736C270.821 26.1107 270.658 25.3967 270.658 24.594C270.658 23.782 270.821 23.0633 271.148 22.438C271.484 21.8127 271.95 21.3227 272.548 20.968C273.145 20.6133 273.85 20.436 274.662 20.436C275.194 20.436 275.693 20.5387 276.16 20.744C276.626 20.9493 277.028 21.2527 277.364 21.654C277.7 22.0553 277.947 22.5453 278.106 23.124C278.264 23.6933 278.306 24.3467 278.232 25.084H271.512V23.824H277.392L276.762 24.258C276.79 23.81 276.724 23.404 276.566 23.04C276.407 22.6667 276.169 22.368 275.852 22.144C275.534 21.92 275.138 21.808 274.662 21.808C274.111 21.808 273.654 21.9293 273.29 22.172C272.926 22.4147 272.65 22.746 272.464 23.166C272.286 23.586 272.198 24.062 272.198 24.594C272.198 25.1167 272.286 25.588 272.464 26.008C272.65 26.428 272.926 26.7593 273.29 27.002C273.654 27.2353 274.111 27.352 274.662 27.352C275.212 27.352 275.646 27.226 275.964 26.974C276.29 26.7127 276.514 26.3953 276.636 26.022H278.232C278.11 26.5633 277.886 27.0347 277.56 27.436C277.242 27.8373 276.836 28.1547 276.342 28.388C275.856 28.612 275.296 28.724 274.662 28.724ZM280.687 26.022C280.733 26.498 280.934 26.8527 281.289 27.086C281.653 27.3193 282.087 27.436 282.591 27.436C283.095 27.436 283.496 27.3427 283.795 27.156C284.103 26.9693 284.257 26.6753 284.257 26.274C284.257 26.0313 284.163 25.8493 283.977 25.728C283.799 25.5973 283.561 25.4947 283.263 25.42C282.973 25.3453 282.651 25.28 282.297 25.224C281.951 25.168 281.601 25.098 281.247 25.014C280.892 24.93 280.565 24.8087 280.267 24.65C279.977 24.482 279.744 24.258 279.567 23.978C279.389 23.698 279.301 23.334 279.301 22.886C279.301 22.466 279.431 22.0693 279.693 21.696C279.954 21.3133 280.323 21.01 280.799 20.786C281.284 20.5527 281.844 20.436 282.479 20.436C283.048 20.436 283.571 20.5527 284.047 20.786C284.523 21.01 284.901 21.3227 285.181 21.724C285.47 22.1253 285.615 22.592 285.615 23.124H284.187C284.149 22.648 283.963 22.298 283.627 22.074C283.3 21.8407 282.899 21.724 282.423 21.724C281.881 21.724 281.471 21.836 281.191 22.06C280.92 22.2747 280.785 22.55 280.785 22.886C280.785 23.1473 280.873 23.348 281.051 23.488C281.237 23.628 281.475 23.7353 281.765 23.81C282.063 23.8847 282.39 23.95 282.745 24.006C283.099 24.062 283.449 24.132 283.795 24.216C284.149 24.3 284.471 24.4213 284.761 24.58C285.059 24.7293 285.297 24.9393 285.475 25.21C285.652 25.4807 285.741 25.8353 285.741 26.274C285.741 26.7687 285.61 27.2027 285.349 27.576C285.087 27.94 284.714 28.2247 284.229 28.43C283.753 28.626 283.183 28.724 282.521 28.724C281.905 28.724 281.349 28.6073 280.855 28.374C280.36 28.1313 279.963 27.8093 279.665 27.408C279.375 26.9973 279.221 26.5353 279.203 26.022H280.687ZM288.015 26.022C288.061 26.498 288.262 26.8527 288.617 27.086C288.981 27.3193 289.415 27.436 289.919 27.436C290.423 27.436 290.824 27.3427 291.123 27.156C291.431 26.9693 291.585 26.6753 291.585 26.274C291.585 26.0313 291.491 25.8493 291.305 25.728C291.127 25.5973 290.889 25.4947 290.591 25.42C290.301 25.3453 289.979 25.28 289.625 25.224C289.279 25.168 288.929 25.098 288.575 25.014C288.22 24.93 287.893 24.8087 287.595 24.65C287.305 24.482 287.072 24.258 286.895 23.978C286.717 23.698 286.629 23.334 286.629 22.886C286.629 22.466 286.759 22.0693 287.021 21.696C287.282 21.3133 287.651 21.01 288.127 20.786C288.612 20.5527 289.172 20.436 289.807 20.436C290.376 20.436 290.899 20.5527 291.375 20.786C291.851 21.01 292.229 21.3227 292.509 21.724C292.798 22.1253 292.943 22.592 292.943 23.124H291.515C291.477 22.648 291.291 22.298 290.955 22.074C290.628 21.8407 290.227 21.724 289.751 21.724C289.209 21.724 288.799 21.836 288.519 22.06C288.248 22.2747 288.113 22.55 288.113 22.886C288.113 23.1473 288.201 23.348 288.379 23.488C288.565 23.628 288.803 23.7353 289.093 23.81C289.391 23.8847 289.718 23.95 290.073 24.006C290.427 24.062 290.777 24.132 291.123 24.216C291.477 24.3 291.799 24.4213 292.089 24.58C292.387 24.7293 292.625 24.9393 292.803 25.21C292.98 25.4807 293.069 25.8353 293.069 26.274C293.069 26.7687 292.938 27.2027 292.677 27.576C292.415 27.94 292.042 28.2247 291.557 28.43C291.081 28.626 290.511 28.724 289.849 28.724C289.233 28.724 288.677 28.6073 288.183 28.374C287.688 28.1313 287.291 27.8093 286.993 27.408C286.703 26.9973 286.549 26.5353 286.531 26.022H288.015Z" fill="#7F22FE"/>
<defs>
<linearGradient id="paint0_linear_2483_159" x1="0" y1="24" x2="398" y2="24" gradientUnits="userSpaceOnUse">
<stop stop-color="#8E51FF" stop-opacity="0.1"/>
<stop offset="0.50267" stop-color="#C7A8FF" stop-opacity="0.049733"/>
<stop offset="1" stop-color="white" stop-opacity="0"/>
</linearGradient>
<linearGradient id="paint1_linear_2483_159" x1="359.115" y1="105" x2="389.523" y2="-2.40005" gradientUnits="userSpaceOnUse">
<stop stop-color="white" stop-opacity="0"/>
<stop offset="1" stop-color="#8E51FF" stop-opacity="0.9"/>
</linearGradient>
</defs>
</svg>