<svg width="247" height="137" viewBox="0 0 247 137" fill="none" xmlns="http://www.w3.org/2000/svg">
<rect width="219.313" height="64" transform="translate(4.88745 23.1901) rotate(-6.06979)" fill="#FEE685"/>
<path d="M28.3736 56.3324C27.7906 55.9815 27.4145 55.7043 27.2454 55.5011C27.0747 55.2832 26.9578 55.0154 26.8945 54.6977C26.8374 54.4383 26.7994 54.0809 26.7805 53.6257C26.7762 53.1689 26.7799 52.7187 26.7917 52.275C26.8035 51.8312 26.8197 51.4976 26.8402 51.2742C26.9053 51.1935 26.9244 51.0956 26.8974 50.9805C26.8835 50.8493 26.8765 50.7836 26.8765 50.7836C26.8542 50.7123 26.885 50.5172 26.9692 50.1986C27.0517 49.8653 27.1177 49.4453 27.167 48.9386C27.3657 48.0325 27.5652 47.2738 27.7657 46.6625C27.9792 46.0351 28.1948 45.4959 28.4123 45.0451C28.6299 44.5942 28.8513 44.1798 29.0766 43.8019C29.6094 43.1257 30.0418 42.6151 30.3739 42.2701C30.7044 41.9105 31.0848 41.6045 31.5152 41.3523C31.7883 41.1462 32.0434 40.979 32.2805 40.8505C32.5176 40.7221 32.7202 40.6858 32.8884 40.7416C33.7237 40.8298 34.3719 41.1001 34.833 41.5526C35.2926 41.9904 35.6714 42.7097 35.9696 43.7105C36.1399 44.3413 36.2603 44.9185 36.3307 45.442C36.4141 45.9494 36.4319 46.4637 36.3841 46.985C36.3348 47.4917 36.2033 48.0588 35.9898 48.6862C35.7909 49.3121 35.4934 50.0517 35.0974 50.905C34.694 51.9656 34.2109 52.902 33.6483 53.714C33.1003 54.5245 32.5133 55.1769 31.8874 55.6712C31.2776 56.1785 30.6623 56.4947 30.0413 56.6197C29.435 56.7432 28.8791 56.6474 28.3736 56.3324ZM29.7063 55.5491C30.0371 55.4697 30.3471 55.3335 30.6363 55.1405C30.9255 54.9475 31.2215 54.68 31.5244 54.3381C31.8257 53.9816 32.1623 53.5402 32.534 53.0139C32.8667 52.5361 33.1342 52.1389 33.3366 51.8224C33.5519 51.4897 33.7235 51.1617 33.8514 50.8384C33.9938 50.5135 34.1147 50.1246 34.214 49.6715C34.3279 49.2169 34.4498 48.6288 34.5795 47.907C34.6497 47.457 34.6984 47.0831 34.7257 46.7852C34.753 46.4873 34.7608 46.2137 34.749 45.9642C34.7357 45.7001 34.7039 45.4011 34.6536 45.0672C34.618 44.7318 34.5722 44.3015 34.5164 43.7765C34.4754 43.5301 34.3973 43.2803 34.2818 43.0271C34.1649 42.7593 34.0411 42.566 33.9104 42.4471C33.7475 42.3022 33.5317 42.2145 33.263 42.1841C32.9927 42.1391 32.7049 42.2066 32.3996 42.3865C32.2323 42.4781 32.0241 42.6698 31.7749 42.9618C31.5241 43.2392 31.2635 43.5619 30.9929 43.9299C30.7223 44.298 30.467 44.6717 30.2271 45.0512C30.0018 45.4291 29.8164 45.766 29.6709 46.0617C29.5384 46.3413 29.4775 46.5321 29.4884 46.6342C29.4884 46.6342 29.485 46.6714 29.4781 46.7459C29.4859 46.8188 29.4645 46.8948 29.4139 46.974C29.246 47.1983 29.0733 47.5854 28.8958 48.1353C28.7328 48.6836 28.585 49.304 28.4521 49.9966C28.3177 50.6746 28.2125 51.3495 28.1364 52.0213C28.0734 52.677 28.0529 53.247 28.0749 53.7314C28.0876 54.1283 28.1017 54.3997 28.1172 54.5455C28.1327 54.6914 28.1743 54.8049 28.242 54.8862C28.3081 54.953 28.4184 55.0887 28.5729 55.2935C28.6759 55.4301 28.8334 55.524 29.0453 55.5752C29.2718 55.6248 29.4922 55.6161 29.7063 55.5491ZM36.9984 54.1985C36.8563 54.1104 36.7506 54.0183 36.6814 53.9225C36.6268 53.825 36.6059 53.6281 36.6186 53.3318C36.6189 52.9188 36.6393 52.5552 36.6796 52.2412C36.7184 51.9126 36.7672 51.5387 36.8259 51.1195C36.8364 50.9414 36.8848 50.6338 36.9711 50.1969C37.072 49.7585 37.1981 49.2805 37.3496 48.7629C37.5011 48.2453 37.6556 47.7569 37.8133 47.2976C37.9694 46.8238 38.1087 46.4698 38.2313 46.2355C38.3387 46.1356 38.4733 46.0844 38.6353 46.0819C38.8119 46.0779 38.9647 46.128 39.0938 46.2323C39.2682 46.3465 39.3149 46.5775 39.2339 46.9253C39.1659 47.257 39.0014 47.7908 38.7404 48.5265C38.6073 48.9389 38.5078 49.2518 38.442 49.4653C38.3747 49.6642 38.3506 49.7848 38.3698 49.827C38.3875 49.8546 38.4508 49.8257 38.5597 49.7404C38.6302 49.5707 38.7712 49.3713 38.9829 49.1423C39.193 48.8987 39.4184 48.6609 39.6592 48.4288C39.9 48.1967 40.1286 47.988 40.3449 47.8028C40.5612 47.6175 40.7107 47.4984 40.7936 47.4453C40.9025 47.36 41.0276 47.2877 41.1688 47.2284C41.323 47.153 41.4277 47.0977 41.483 47.0623C41.8013 46.8662 42.1379 46.7714 42.4925 46.7779C42.8472 46.7845 43.08 46.8925 43.1907 47.1019C43.2177 47.2171 43.2708 47.2999 43.3499 47.3505C43.4436 47.3995 43.4905 47.424 43.4905 47.424C43.5488 47.4178 43.5803 47.4366 43.5849 47.4804C43.6042 47.5226 43.6138 47.5437 43.6138 47.5437C43.6247 47.6458 43.5514 47.7199 43.3941 47.7661C43.2498 47.7962 43.0618 47.831 42.83 47.8704C42.6419 47.9051 42.4781 47.9594 42.3384 48.0333C42.1988 48.1071 42.0315 48.1987 41.8366 48.3079C41.3166 48.6877 40.8176 49.0578 40.3397 49.4184C39.8764 49.7774 39.4385 50.2369 39.0261 50.797C38.9364 50.9245 38.849 51.074 38.764 51.2452C38.679 51.4165 38.5882 51.6032 38.4917 51.8052C38.4265 51.8858 38.3707 52.054 38.3241 52.3097C38.2775 52.5654 38.2375 52.813 38.204 53.0526C38.1835 53.276 38.1756 53.4096 38.1802 53.4533C38.1802 53.4533 38.1661 53.5286 38.1379 53.6791C38.1081 53.815 38.0491 53.954 37.961 54.0961C37.8108 54.3481 37.6773 54.4803 37.5607 54.4927C37.444 54.5051 37.2566 54.407 36.9984 54.1985ZM49.2495 53.4489C49.1912 53.4551 49.1029 53.4571 48.9847 53.4549C48.8795 53.4366 48.785 53.3803 48.7012 53.2859C48.4546 53.0467 48.2927 52.8426 48.2158 52.6738C48.1388 52.505 48.1044 52.2506 48.1125 51.9105C48.1184 51.6886 48.1128 51.4974 48.0958 51.337C48.0917 51.1604 48.0908 51.0131 48.093 50.8948C48.0285 50.8427 47.9237 50.8981 47.7788 51.061C47.6469 51.2077 47.4606 51.3972 47.2198 51.6293C46.7844 52.2508 46.3861 52.7356 46.0249 53.0838C45.6767 53.4158 45.3549 53.6491 45.0595 53.7838C44.7625 53.9039 44.4739 53.964 44.1937 53.9643C43.9427 53.9615 43.7349 53.8804 43.5705 53.7209C43.4045 53.5468 43.2841 53.3162 43.2093 53.0292C43.1491 52.7406 43.1158 52.427 43.1093 52.0885C43.1164 51.601 43.1697 51.1307 43.269 50.6777C43.3829 50.2231 43.5862 49.7074 43.8788 49.1305C44.0082 48.8218 44.1895 48.5149 44.4225 48.2099C44.6686 47.8887 44.9404 47.6017 45.238 47.3488C45.5487 47.0798 45.8517 46.878 46.1471 46.7433C46.4686 46.5764 46.8036 46.467 47.152 46.4152C47.499 46.3488 47.8156 46.3446 48.1021 46.4027C48.2864 46.4716 48.4296 46.5006 48.5317 46.4897C48.6483 46.4773 48.7281 46.3951 48.7709 46.2431C48.8314 46.1186 48.8857 45.9359 48.9339 45.6948C48.9804 45.4391 49.0454 45.2183 49.1289 45.0324L49.459 43.5593C49.5776 43.1484 49.7084 42.7142 49.8514 42.2565C49.9945 41.7988 50.164 41.2424 50.3598 40.5874C50.5581 40.0943 50.7336 39.8028 50.8863 39.7128C51.0374 39.6082 51.2259 39.6472 51.4518 39.8296C51.6324 40.0022 51.714 40.2147 51.6966 40.4673C51.6777 40.7053 51.5867 41.0985 51.4238 41.6468C51.3388 41.8181 51.2675 41.9805 51.2101 42.1341C51.1512 42.2731 51.0715 42.4955 50.9713 42.8011C50.8298 43.2734 50.6982 43.7004 50.5765 44.082C50.4533 44.4491 50.3283 44.868 50.2013 45.3387C50.1678 45.5783 50.1163 45.8566 50.0467 46.1738C49.9918 46.4893 49.9484 46.7742 49.9164 47.0283C49.8974 47.2664 49.8697 47.4905 49.833 47.7009C49.8094 47.8952 49.7685 47.9954 49.7101 48.0016C49.6074 48.1453 49.5228 48.3903 49.4564 48.7366C49.3885 49.0683 49.3366 49.413 49.3009 49.7708C49.2798 50.127 49.2598 50.4241 49.2408 50.6622C49.2303 50.8403 49.2324 51.0687 49.2473 51.3473C49.2622 51.626 49.2836 51.8965 49.3115 52.1591C49.3379 52.407 49.3565 52.582 49.3673 52.6841C49.4015 53.005 49.4159 53.2099 49.4106 53.299C49.4053 53.388 49.3516 53.438 49.2495 53.4489ZM44.4433 52.5661C44.7495 52.5336 45.0564 52.3682 45.364 52.07C45.6861 51.7702 46.0051 51.4413 46.321 51.0833C46.518 50.8558 46.7227 50.5612 46.935 50.1994C47.1618 49.836 47.3741 49.4742 47.5718 49.114C47.784 48.7522 47.9499 48.4395 48.0694 48.1761C48.1873 47.8981 48.2432 47.7299 48.237 47.6715C48.2292 47.5986 48.1582 47.5545 48.0238 47.5393C47.8894 47.5241 47.7348 47.5258 47.5597 47.5444C47.3978 47.5469 47.2673 47.5682 47.1683 47.6082C46.8552 47.7152 46.5498 47.8952 46.2522 48.1481C45.9692 48.3994 45.6687 48.7632 45.3506 49.2395C45.021 49.7466 44.7586 50.2612 44.5634 50.7834C44.3828 51.3041 44.2812 51.7353 44.2585 52.0769C44.2358 52.4186 44.2974 52.5816 44.4433 52.5661ZM55.1545 52.2678C54.8761 52.5629 54.5351 52.7541 54.1314 52.8412C53.7423 52.9269 53.3496 52.9096 52.9533 52.7895C52.5555 52.6548 52.214 52.4257 51.9289 52.102C51.6468 51.8075 51.4476 51.4599 51.3313 51.0593C51.2134 50.6441 51.1479 50.098 51.1349 49.4209C51.1182 48.8475 51.24 48.2593 51.5004 47.6564C51.7592 47.0389 52.0906 46.48 52.4947 45.9798C52.9133 45.4781 53.3394 45.1157 53.7729 44.8926C53.9761 44.7235 54.1515 44.6385 54.2989 44.6375C54.4593 44.6205 54.7015 44.6095 55.0254 44.6045C55.3655 44.6126 55.6205 44.6519 55.7902 44.7223C55.9745 44.7912 56.1255 44.8932 56.2431 45.0282C56.4851 45.2237 56.6542 45.4269 56.7504 45.6379C56.845 45.8344 56.9032 46.0347 56.9249 46.2388C56.9007 46.5659 56.7238 46.9829 56.3942 47.49C56.0777 47.9809 55.636 48.4039 55.069 48.7592C54.759 48.8954 54.4136 48.9764 54.0329 49.0021C53.6521 49.0279 53.3285 48.9664 53.0619 48.8178C52.7724 48.7306 52.5925 48.7718 52.522 48.9416C52.45 49.0967 52.4086 49.4698 52.3977 50.061C52.3983 50.6214 52.4854 51.0251 52.6592 51.2721C52.8314 51.5045 53.0438 51.6294 53.2964 51.6468C53.5943 51.6742 53.825 51.6939 53.9885 51.706C54.1651 51.702 54.3696 51.6138 54.602 51.4416C54.8199 51.271 54.9572 51.1752 55.014 51.1545C55.0692 51.1191 55.1099 51.0853 55.1359 51.053C55.175 51.0046 55.2597 50.8997 55.3901 50.7384C55.4813 50.6254 55.5538 50.544 55.6075 50.494C55.6596 50.4295 55.7221 50.3933 55.795 50.3856C55.868 50.3778 55.9375 50.4073 56.0036 50.474C56.0681 50.5261 56.1311 50.5637 56.1925 50.5867C56.3384 50.5711 56.3769 50.6556 56.308 50.8399C56.2536 51.0226 56.123 51.2504 55.916 51.5231C55.7075 51.7813 55.4536 52.0295 55.1545 52.2678ZM54.6394 47.6323C54.7921 47.5423 54.949 47.4224 55.11 47.2725C55.2695 47.1081 55.3991 46.9394 55.4987 46.7666C55.6114 46.5776 55.6615 46.4248 55.6491 46.3081C55.6274 46.104 55.5147 45.9463 55.3112 45.8352C55.1061 45.7095 54.8194 45.7179 54.451 45.8603C54.2952 45.9211 54.1246 46.0499 53.939 46.2466C53.7519 46.4288 53.5744 46.632 53.4065 46.8563C53.2532 47.0791 53.1267 47.2769 53.0271 47.4498C52.9421 47.6211 52.9157 47.7197 52.948 47.7458C52.9995 47.8141 53.1296 47.8592 53.3385 47.8813C53.5458 47.8887 53.7726 47.872 54.019 47.831C54.2799 47.7885 54.4868 47.7223 54.6394 47.6323ZM58.6651 52.16C58.6077 52.3136 58.5029 52.369 58.3509 52.3262C58.2134 52.2818 58.0978 52.2351 58.0041 52.1861C57.902 52.1969 57.8114 52.1771 57.7323 52.1265C57.6532 52.0759 57.5928 51.9938 57.5512 51.8802C57.5128 51.7958 57.4946 51.6945 57.4968 51.5763C57.4974 51.4435 57.5111 51.2945 57.5378 51.1295C57.5775 50.9482 57.6157 50.7524 57.6523 50.5421C57.7178 50.0484 57.7608 49.6898 57.7813 49.4664C57.8018 49.243 57.8254 49.0487 57.8521 48.8836C57.8788 48.7185 57.9123 48.479 57.9526 48.165C58.0383 47.8609 58.1028 47.5664 58.1463 47.2815C58.1898 46.9967 58.2697 46.7079 58.3861 46.4153C58.4478 46.0253 58.5338 45.6548 58.644 45.3038C58.7672 44.9367 58.8893 44.6288 59.0103 44.3799C59.0348 44.3331 59.0797 44.2693 59.1449 44.1886C59.2246 44.1064 59.2937 44.0622 59.352 44.056C59.4563 43.9269 59.5537 43.8723 59.6443 43.8921C59.7479 43.8959 59.8789 43.9483 60.0371 44.0495C60.2323 44.2205 60.3212 44.4323 60.3038 44.6848C60.301 44.9359 60.1648 45.3191 59.8951 45.8345C59.7682 46.3052 59.6496 46.7161 59.5394 47.067C59.4277 47.4034 59.3582 47.7205 59.3309 48.0184C59.4665 47.768 59.619 47.5379 59.7884 47.3282C59.9709 47.1023 60.1208 46.9167 60.2381 46.7715C60.5248 46.4165 60.7625 46.1552 60.9512 45.9877C61.1545 45.8186 61.3919 45.6237 61.6634 45.4031C61.826 45.2678 61.9829 45.1479 62.134 45.0433C62.2836 44.9242 62.4508 44.8326 62.6358 44.7687C62.8353 44.7033 63.0541 44.68 63.2921 44.6989C63.4364 44.6689 63.5577 44.7002 63.6561 44.793C63.769 44.8842 63.8639 45.0142 63.9409 45.1831C64.0178 45.3519 64.076 45.5522 64.1154 45.784C63.7722 45.7467 63.4748 45.7931 63.2231 45.9231C62.9699 46.0385 62.7555 46.1719 62.5798 46.3234C62.4188 46.4732 62.2911 46.5901 62.1968 46.6738C61.9935 46.8429 61.7373 47.0693 61.4282 47.3529C61.1176 47.6219 60.8124 47.942 60.5126 48.3131C60.2811 48.6327 60.0815 48.9047 59.9136 49.129C59.7603 49.3518 59.6338 49.5496 59.5342 49.7225C59.4492 49.8938 59.3868 50.07 59.347 50.2512C59.2369 50.6022 59.1225 50.9831 59.004 51.3939C58.8854 51.8047 58.7724 52.0601 58.6651 52.16ZM69.8059 53.8294C69.7246 53.897 69.621 53.8933 69.495 53.8182C69.3836 53.7415 69.2134 53.5974 68.9844 53.3857C68.8699 53.2799 68.7911 53.1629 68.7479 53.0348C68.7048 52.9066 68.6857 52.6579 68.6907 52.2886C68.732 52.122 68.7449 51.9658 68.7294 51.8199C68.7285 51.6725 68.7249 51.5697 68.7187 51.5113C68.7094 51.4238 68.7096 51.2173 68.7192 50.8918C68.7434 50.5647 68.7661 50.2231 68.7872 49.8669C68.8068 49.496 68.8283 49.2135 68.8519 49.0193C68.8504 49.0047 68.8538 48.9674 68.8622 48.9076C68.8706 48.8477 68.8797 48.7951 68.8896 48.7498C68.9049 48.6154 68.9227 48.4365 68.9432 48.2131C68.9783 47.9881 69.0006 47.7129 69.0103 47.3874C69.0882 47.0104 69.145 46.643 69.1807 46.2852C69.2294 45.9113 69.2468 45.6587 69.2328 45.5274C69.2049 45.2649 69.2869 45.0644 69.4786 44.9261C69.4855 44.8516 69.5176 44.7375 69.575 44.5839C69.6309 44.4158 69.6825 44.2775 69.73 44.1692C69.9333 43.3069 70.1042 42.625 70.2426 42.1236C70.3794 41.6075 70.5306 41.1564 70.696 40.77C70.7571 40.5128 70.8248 40.2475 70.899 39.9741C70.9877 39.6992 71.0827 39.4826 71.1839 39.3243C71.2366 39.127 71.3788 38.8685 71.6103 38.5489C71.8402 38.2147 72.0863 37.8936 72.3485 37.5854C72.6092 37.2627 72.8193 37.0192 72.9788 36.8547C73.2826 36.6601 73.5262 36.5236 73.7096 36.4451C73.893 36.3666 74.1378 36.3111 74.4441 36.2785C74.7212 36.2491 74.9074 36.2661 75.0026 36.3298C75.1109 36.3772 75.2692 36.4784 75.4774 36.6333C75.7048 36.8303 75.837 36.9637 75.8739 37.0336C75.9109 37.1034 75.9402 37.2404 75.9619 37.4446C75.9529 37.6373 75.899 37.8937 75.8003 38.214C75.7147 38.5181 75.6121 38.8018 75.4926 39.0653C75.3862 39.3126 75.29 39.4482 75.204 39.4721C75.0352 39.549 74.9024 39.5484 74.8056 39.4702C74.7218 39.3759 74.6683 39.2193 74.645 39.0005C74.6342 38.8984 74.5949 38.8068 74.5273 38.7254C74.4727 38.628 74.4454 38.5793 74.4454 38.5793C74.4407 38.5355 74.4403 38.4618 74.444 38.3582C74.4607 38.2384 74.4929 38.1244 74.5403 38.0161C74.5978 37.8625 74.6007 37.7516 74.5492 37.6833C74.5123 37.6135 74.4159 37.609 74.2602 37.6698C74.2195 37.7036 74.1121 37.8035 73.938 37.9695C73.764 38.1355 73.5776 38.325 73.379 38.5378C73.1934 38.7345 73.029 38.9216 72.8856 39.0991C72.7422 39.2766 72.6729 39.3872 72.6775 39.431C72.6775 39.431 72.6553 39.4997 72.6109 39.6372C72.565 39.7601 72.4719 39.9248 72.3316 40.1315C72.2451 40.2882 72.1658 40.4441 72.0938 40.5993C72.0348 40.7383 72.0069 40.8224 72.01 40.8515C72.0162 40.9099 72.0159 40.9763 72.009 41.0508C72.0152 41.1091 71.9819 41.1421 71.909 41.1499C71.909 41.1499 71.8941 41.2179 71.8643 41.3538C71.8345 41.4897 71.7721 41.6659 71.6771 41.8825C71.6343 42.0346 71.5777 42.1955 71.5072 42.3652C71.4352 42.5203 71.3732 42.6302 71.321 42.6947L71.3429 42.6924C71.3429 42.6924 71.3165 42.7911 71.2638 42.9884C71.224 43.1696 71.1786 43.3662 71.1273 43.5782C71.0746 43.7755 71.0498 43.8888 71.0529 43.9179C71.0591 43.9763 71.1643 43.9946 71.3684 43.9729C71.5872 43.9496 71.8401 43.9006 72.1271 43.8258C72.4126 43.7365 72.6689 43.6502 72.8961 43.5671C73.0941 43.487 73.2295 43.4431 73.3024 43.4354C73.3754 43.4276 73.5243 43.4413 73.7493 43.4763C73.8737 43.5369 73.9801 43.6362 74.0686 43.7743C74.17 43.8962 74.2423 44.0213 74.2855 44.1494C74.3416 44.2614 74.3509 44.349 74.3134 44.4119C74.305 44.4718 74.1531 44.5691 73.8577 44.7038C73.5623 44.8384 73.2645 44.9512 72.9644 45.0421C72.7081 45.1284 72.3942 45.2281 72.0228 45.3414C71.6514 45.4546 71.3229 45.5559 71.0374 45.6453C70.7665 45.7331 70.6334 45.7988 70.638 45.8426C70.5797 45.8488 70.5325 45.8907 70.4965 45.9683C70.459 46.0313 70.4425 46.0846 70.4472 46.1284C70.4689 46.3326 70.456 46.4888 70.4085 46.5971C70.3887 46.6877 70.3562 46.8681 70.3112 47.1384C70.2662 47.4087 70.217 47.7089 70.1636 48.0391C70.1248 48.3677 70.0902 48.6664 70.0598 48.9351C70.044 49.2022 70.0407 49.3796 70.05 49.4671C69.9733 49.5785 69.9363 49.7152 69.9387 49.8772C69.9397 50.0246 69.9463 50.1566 69.9587 50.2733C69.9128 50.3961 69.888 50.5094 69.8842 50.613C69.879 50.7021 69.8794 50.7758 69.8856 50.8341C69.8872 50.8487 69.8903 50.8779 69.8949 50.9216C69.8996 50.9654 69.8969 51.0099 69.887 51.0552C69.8879 51.2026 69.8862 51.3946 69.8819 51.631C69.8936 51.8805 69.9119 52.1219 69.9368 52.3553L69.9386 52.9967C69.9442 53.1878 69.9394 53.3506 69.9241 53.4849C69.9105 53.6339 69.8711 53.7487 69.8059 53.8294ZM76.7562 49.9044C76.4561 49.9953 76.2615 50.0382 76.1725 50.0329C76.0965 50.0115 75.9705 49.9364 75.7945 49.8076C75.5488 49.7157 75.3364 49.5908 75.1574 49.4329C74.9929 49.2733 74.8641 49.1027 74.771 48.9208C74.691 48.7229 74.6513 48.5575 74.6519 48.4246C74.6414 47.9095 74.7072 47.3494 74.8493 46.7443C74.9915 46.1393 75.1797 45.5514 75.414 44.9808C75.6483 44.4101 75.9131 43.9174 76.2082 43.5025C76.5163 43.0715 76.8246 42.7806 77.1331 42.6298C77.4124 42.4821 77.6848 42.4089 77.9504 42.4101C78.2161 42.4114 78.4204 42.5298 78.5634 42.7653C78.8272 43.165 78.8048 43.4402 78.4964 43.591C78.4526 43.5957 78.4039 43.623 78.3502 43.6729C78.295 43.7083 78.2705 43.7552 78.2767 43.8135C78.3381 43.8365 78.4993 43.8267 78.7603 43.7842C79.0197 43.7271 79.2776 43.6555 79.5339 43.5692C79.8032 43.4668 79.9778 43.3745 80.0575 43.2923C80.1404 43.2392 80.2037 43.2104 80.2474 43.2057C80.2912 43.2011 80.4021 43.204 80.5802 43.2146C80.8359 43.2611 80.9692 43.3355 80.9801 43.4375C80.9863 43.4959 81.0143 43.5519 81.0643 43.6056C81.1127 43.6447 81.1661 43.6611 81.2244 43.6549C81.3281 43.6587 81.3204 43.7258 81.2016 43.8565C81.0973 43.9856 80.9102 44.1677 80.6402 44.4029C80.3817 44.6074 80.2191 44.7427 80.1524 44.8088C80.0987 44.8587 80.1023 44.9616 80.1631 45.1174C80.3092 45.382 80.3507 45.7021 80.2873 46.0776C80.224 46.4531 80.0813 46.8444 79.8591 47.2515C79.6369 47.6586 79.354 48.05 79.0105 48.4258C78.68 48.7854 78.3157 49.1044 77.9175 49.3827C77.5324 49.6449 77.1453 49.8188 76.7562 49.9044ZM76.2819 48.9814C76.3403 48.9752 76.4393 48.9352 76.5789 48.8613C76.717 48.7729 76.8275 48.7022 76.9103 48.6491C76.9624 48.5846 77.0284 48.5112 77.1081 48.4289C77.2009 48.3306 77.2757 48.271 77.3325 48.2502C77.3908 48.244 77.4614 48.2144 77.5443 48.1613C77.6256 48.0937 77.7379 47.9711 77.8813 47.7936C78.0231 47.6016 78.2074 47.3238 78.4343 46.9605C78.6919 46.6086 78.8869 46.2929 79.0194 46.0133C79.1504 45.7191 79.167 45.4593 79.0693 45.2337C79.0485 45.1769 79.0008 45.1451 78.9264 45.1382C78.8665 45.1299 78.7824 45.1019 78.6741 45.0544C78.5283 45.07 78.3858 45.0482 78.2468 44.9893C78.1208 44.9142 77.9706 44.8195 77.7963 44.7053L77.3997 44.305L77.0674 44.7164C76.8588 44.9746 76.6481 45.351 76.4352 45.8456C76.2353 46.3241 76.0735 46.8133 75.9497 47.3132C75.8243 47.7985 75.7617 48.1813 75.762 48.4615C75.7707 48.6818 75.8227 48.8238 75.9179 48.8874C76.0132 48.951 76.1345 48.9823 76.2819 48.9814Z" fill="#101828"/>
<g filter="url(#filter0_f_2483_23)">
<rect width="207.218" height="9.99168" transform="matrix(0.982121 -0.188251 0.13832 0.990388 21.1241 116.393)" fill="black" fill-opacity="0.1"/>
</g>
<g filter="url(#filter1_f_2483_23)">
<rect x="20" y="106.057" width="206.78" height="10" transform="rotate(-6.06979 20 106.057)" fill="black" fill-opacity="0.1"/>
</g>
<rect x="11.6548" y="86.8312" width="219.313" height="30" transform="rotate(-6.06979 11.6548 86.8312)" fill="#FEE685"/>
<defs>
<filter id="filter0_f_2483_23" x="11.1241" y="67.3844" width="224.895" height="68.9046" filterUnits="userSpaceOnUse" color-interpolation-filters="sRGB">
<feFlood flood-opacity="0" result="BackgroundImageFix"/>
<feBlend mode="normal" in="SourceGraphic" in2="BackgroundImageFix" result="shape"/>
<feGaussianBlur stdDeviation="5" result="effect1_foregroundBlur_2483_23"/>
</filter>
<filter id="filter1_f_2483_23" x="0" y="64.1917" width="246.679" height="71.8088" filterUnits="userSpaceOnUse" color-interpolation-filters="sRGB">
<feFlood flood-opacity="0" result="BackgroundImageFix"/>
<feBlend mode="normal" in="SourceGraphic" in2="BackgroundImageFix" result="shape"/>
<feGaussianBlur stdDeviation="10" result="effect1_foregroundBlur_2483_23"/>
</filter>
</defs>
</svg>