<svg width="109" height="109" viewBox="0 0 109 109" fill="none" xmlns="http://www.w3.org/2000/svg">
<g filter="url(#filter0_d_2483_119)">
<rect x="32.1017" y="13.1927" width="56" height="56" rx="16" transform="rotate(11.2333 32.1017 13.1927)" fill="#39AE41"/>
<path d="M48.1177 36.5441C48.8007 36.0676 49.4455 36.183 50.3091 36.4338C50.5914 36.4899 50.9907 36.4518 51.1799 37.4155C51.3837 38.3854 51.8492 40.8091 51.9182 41.0607C51.9859 41.3105 52.0137 41.5777 51.7975 41.8678C50.6262 43.3098 49.6691 43.2339 49.9628 44.0947C50.1404 44.6058 50.7543 46.274 51.8683 47.756C53.2985 49.6577 54.6723 50.4302 55.0846 50.7499C55.4968 51.0459 55.7668 51.0757 56.0929 50.8312C56.4168 50.5815 57.4953 49.7348 57.8853 49.3444C58.4477 48.7805 58.7544 49.073 61.7774 51.4115L61.8138 51.2998C62.2306 51.5966 62.5069 51.7705 62.5789 51.9989C62.6524 52.2276 62.4752 53.1201 61.8725 54.1185C61.279 55.1186 59.2679 55.7184 58.3645 55.6833C57.5564 55.6401 56.5534 55.4917 55.5328 54.929C51.774 52.7425 49.7659 51.3064 46.7014 45.0647C45.1841 41.6771 45.1176 38.7617 48.1177 36.5441Z" fill="white"/>
<path fill-rule="evenodd" clip-rule="evenodd" d="M35.9884 42.3423C39.1736 26.345 60.2221 21.9758 69.701 35.6464L69.6664 35.7014C72.4263 39.8115 73.4124 44.7477 72.45 49.5934C69.7019 63.3985 53.0987 69.0931 42.3317 60.1828L32.1657 60.7836L36.6206 51.896C35.5716 48.8251 35.3533 45.5402 35.9884 42.3423ZM57.2611 30.8238C45.3421 28.4566 35.5132 40.1117 39.816 51.3778L40.067 52.0223L37.4292 57.2791L43.4461 56.9278L43.9305 57.3634C52.8609 65.3158 67.0895 60.5816 69.4116 48.9376C70.2116 44.9097 69.3888 40.7957 67.0914 37.3912C64.7973 33.962 61.3104 31.6281 57.2611 30.8238Z" fill="white"/>
</g>
<defs>
<filter id="filter0_d_2483_119" x="-2.80737" y="-2.80725" width="113.836" height="113.836" filterUnits="userSpaceOnUse" color-interpolation-filters="sRGB">
<feFlood flood-opacity="0" result="BackgroundImageFix"/>
<feColorMatrix in="SourceAlpha" type="matrix" values="0 0 0 0 0 0 0 0 0 0 0 0 0 0 0 0 0 0 127 0" result="hardAlpha"/>
<feOffset dy="8"/>
<feGaussianBlur stdDeviation="12"/>
<feComposite in2="hardAlpha" operator="out"/>
<feColorMatrix type="matrix" values="0 0 0 0 0 0 0 0 0 0 0 0 0 0 0 0 0 0 0.1 0"/>
<feBlend mode="normal" in2="BackgroundImageFix" result="effect1_dropShadow_2483_119"/>
<feBlend mode="normal" in="SourceGraphic" in2="effect1_dropShadow_2483_119" result="shape"/>
</filter>
</defs>
</svg>