<svg width="112" height="112" viewBox="40 32 112 112" fill="none" xmlns="http://www.w3.org/2000/svg" xmlns:xlink="http://www.w3.org/1999/xlink">
<path d="M40 48C40 39.1634 47.1634 32 56 32H136C144.837 32 152 39.1634 152 48V128C152 136.837 144.837 144 136 144H56C47.1634 144 40 136.837 40 128V48Z" fill="white"/>
<path d="M56 32.5H136C144.56 32.5 151.5 39.4396 151.5 48V128C151.5 136.56 144.56 143.5 136 143.5H56C47.4396 143.5 40.5 136.56 40.5 128V48C40.5 39.4396 47.4396 32.5 56 32.5Z" stroke="#E5E7EB"/>
<g clip-path="url(#clip0_2209_965)">
<path fill-rule="evenodd" clip-rule="evenodd" d="M108.06 57.714L126.152 62.5616L137.192 82.6551L128.87 113.715C127.828 117.603 123.826 119.914 119.938 118.872L93.5665 111.806C89.6783 110.764 87.3677 106.762 88.4096 102.874L99.1283 62.8709C100.17 58.9827 104.172 56.6721 108.06 57.714Z" fill="#DCFCE7"/>
<path fill-rule="evenodd" clip-rule="evenodd" d="M126.129 62.5554L121.882 78.4056L137.229 82.5178L126.129 62.5554Z" fill="black" fill-opacity="0.2"/>
<path fill-rule="evenodd" clip-rule="evenodd" d="M122.314 89.3834L106.257 85.0809C105.055 84.7588 103.801 85.4824 103.479 86.6847L100.744 96.8906C100.422 98.0928 101.146 99.3463 102.348 99.6685L118.405 103.971C119.607 104.293 120.834 103.562 121.156 102.36L123.891 92.154C124.213 90.9517 123.516 89.7055 122.314 89.3834ZM109.901 89.0068C111.21 89.3576 111.966 90.7054 111.622 91.9878C111.271 93.297 109.943 94.0865 108.634 93.7357C107.325 93.3849 106.542 92.0299 106.893 90.7207C107.237 89.4383 108.592 88.656 109.901 89.0068ZM119.713 101.973C119.606 102.374 119.192 102.636 118.792 102.528L102.735 98.2257C102.334 98.1183 102.106 97.6851 102.214 97.2843L102.328 96.8569L106.021 94.7251L107.781 97.7739C107.996 98.1465 108.45 98.2682 108.823 98.0531L116.479 93.6329L120.215 100.103L119.713 101.973Z" fill="#00A63E"/>
</g>
<rect x="51.2" y="74" width="40" height="40" rx="12" transform="rotate(-15 51.2 74)" fill="#39AE41"/>
<path d="M68.8345 83.9047C69.1217 83.3837 69.5712 83.2541 70.2038 83.1421C70.4023 83.0889 70.6461 82.9384 71.0716 83.4962C71.5085 84.0532 72.5719 85.4592 72.6956 85.5986C72.8178 85.7372 72.92 85.8996 72.8731 86.1538C72.5779 87.4476 71.9407 87.7011 72.4007 88.1599C72.6758 88.4313 73.5959 89.3063 74.7775 89.9041C76.2943 90.671 77.4184 90.7322 77.7835 90.8069C78.1411 90.8664 78.3235 90.8002 78.4552 90.5406C78.584 90.2784 79.0076 89.3953 79.1342 89.022C79.3165 88.4832 79.6054 88.5737 82.2806 89.1176L82.2686 89.0345C82.6294 89.0931 82.8614 89.1173 82.9796 89.2409C83.0989 89.3642 83.2672 89.992 83.1962 90.822C83.1317 91.6502 82.0325 92.6694 81.4427 92.9322C80.9113 93.1597 80.2218 93.3813 79.3902 93.343C76.2915 93.1288 74.5515 92.8427 70.6173 89.8111C68.5755 88.1197 67.6125 86.2727 68.8345 83.9047Z" fill="white"/>
<path fill-rule="evenodd" clip-rule="evenodd" d="M62.8938 91.4492C59.8837 80.1939 71.9902 70.7487 82.3799 76.5149L82.375 76.5611C85.441 78.3231 87.6314 81.1744 88.5447 84.583C91.1426 94.2958 82.3027 103.187 72.5909 100.877L66.267 104.472L66.3152 97.3709C64.6736 95.7345 63.4965 93.6987 62.8938 91.4492ZM72.8867 77.3527C64.5026 79.5992 61.885 90.1701 68.1989 96.0299L68.5633 96.3637L68.5329 100.565L72.2771 98.4398L72.725 98.566C80.9577 100.842 88.5795 93.3158 86.3909 85.1221C85.6317 82.2888 83.8056 79.9127 81.2587 78.4568C78.7061 76.984 75.7351 76.5895 72.8867 77.3527Z" fill="white"/>
<defs>
<clipPath id="clip0_2209_965">
<rect width="56" height="56" fill="white" transform="translate(94.2 54) rotate(15)"/>
</clipPath>
</defs>
</svg>