<svg width="48" height="48" viewBox="448 0 48 48" fill="none" xmlns="http://www.w3.org/2000/svg">
<path d="M489.5 16.875H480.125V7.5C480.125 7.20163 480.006 6.91548 479.795 6.7045C479.585 6.49353 479.298 6.375 479 6.375H456.5C456.202 6.375 455.915 6.49353 455.705 6.7045C455.494 6.91548 455.375 7.20163 455.375 7.5V30C455.375 30.2984 455.494 30.5845 455.705 30.7955C455.915 31.0065 456.202 31.125 456.5 31.125H465.875V40.5C465.875 40.7984 465.994 41.0845 466.205 41.2955C466.415 41.5065 466.702 41.625 467 41.625H489.5C489.798 41.625 490.085 41.5065 490.295 41.2955C490.506 41.0845 490.625 40.7984 490.625 40.5V18C490.625 17.7016 490.506 17.4155 490.295 17.2045C490.085 16.9935 489.798 16.875 489.5 16.875ZM479.465 39.375L471.215 31.125H478.528L486.778 39.375H479.465ZM480.125 29.535V22.2225L488.375 30.4725V37.785L480.125 29.535ZM488.375 27.285L480.215 19.125H488.375V27.285ZM457.625 8.625H477.875V28.875H457.625V8.625ZM468.125 31.215L476.285 39.375H468.125V31.215Z" fill="#2B7FFF"/>
</svg>