<svg width="48" height="48" viewBox="0 764 48 48" fill="none" xmlns="http://www.w3.org/2000/svg">
<path d="M42.3525 769.648C42.0246 769.315 41.6127 769.076 41.1606 768.958C40.7084 768.84 40.2327 768.846 39.7838 768.976H39.7631L3.77626 779.894C3.26515 780.042 2.8111 780.342 2.47428 780.754C2.13747 781.166 1.93381 781.671 1.89029 782.201C1.84678 782.731 1.96546 783.263 2.23061 783.724C2.49577 784.185 2.89487 784.555 3.37501 784.784L19.4175 792.592L27.21 808.625C27.42 809.075 27.7541 809.455 28.1731 809.72C28.592 809.986 29.0783 810.127 29.5744 810.125C29.6494 810.125 29.7263 810.125 29.8013 810.116C30.3328 810.074 30.8386 809.87 31.2507 809.532C31.6627 809.194 31.9611 808.737 32.1056 808.224L43.0181 772.237V772.216C43.1488 771.768 43.156 771.293 43.0388 770.84C42.9216 770.388 42.6845 769.976 42.3525 769.648ZM40.8525 771.598L29.9494 807.581V807.601C29.9285 807.676 29.8851 807.742 29.8251 807.791C29.765 807.84 29.6913 807.869 29.6141 807.875C29.5368 807.88 29.4598 807.861 29.3936 807.821C29.3274 807.781 29.2753 807.721 29.2444 807.65L21.6169 791.979L30.8044 782.791C30.9089 782.687 30.9918 782.563 31.0484 782.426C31.105 782.29 31.1341 782.143 31.1341 781.995C31.1341 781.848 31.105 781.701 31.0484 781.565C30.9918 781.428 30.9089 781.304 30.8044 781.199C30.6999 781.095 30.5758 781.012 30.4392 780.955C30.3026 780.899 30.1563 780.87 30.0084 780.87C29.8606 780.87 29.7143 780.899 29.5777 780.955C29.4411 781.012 29.317 781.095 29.2125 781.199L20.025 790.387L4.34063 782.75C4.27113 782.718 4.21322 782.665 4.17472 782.598C4.13622 782.532 4.11898 782.456 4.12531 782.379C4.13165 782.303 4.16126 782.23 4.21015 782.171C4.25904 782.112 4.32487 782.069 4.39876 782.049H4.41938L40.4025 771.14C40.4657 771.122 40.5326 771.122 40.596 771.139C40.6593 771.156 40.7169 771.19 40.7625 771.238C40.8088 771.284 40.8421 771.341 40.8592 771.405C40.8763 771.468 40.8766 771.534 40.86 771.598H40.8525Z" fill="#2B7FFF"/>
</svg>