<svg width="48" height="48" viewBox="0 204 48 48" fill="none" xmlns="http://www.w3.org/2000/svg">
<path d="M24 208.875C20.2174 208.875 16.5198 209.997 13.3747 212.098C10.2296 214.2 7.77834 217.187 6.33081 220.681C4.88329 224.176 4.50455 228.021 5.24249 231.731C5.98043 235.441 7.80191 238.849 10.4766 241.523C13.1513 244.198 16.559 246.02 20.2689 246.758C23.9788 247.495 27.8242 247.117 31.3188 245.669C34.8135 244.222 37.8004 241.77 39.9019 238.625C42.0033 235.48 43.125 231.783 43.125 228C43.1191 222.93 41.1022 218.069 37.5168 214.483C33.9315 210.898 29.0704 208.881 24 208.875ZM40.8375 226.875H35.5688C35.3053 224.195 34.1203 221.689 32.2159 219.784C30.3114 217.88 27.8054 216.695 25.125 216.431V211.163C29.2005 211.441 33.0374 213.186 35.926 216.074C38.8145 218.963 40.5593 222.799 40.8375 226.875ZM22.875 226.875H14.6944C14.9492 224.794 15.8931 222.858 17.3756 221.376C18.8581 219.893 20.794 218.949 22.875 218.694V226.875ZM22.875 229.125V237.306C20.794 237.051 18.8581 236.107 17.3756 234.624C15.8931 233.142 14.9492 231.206 14.6944 229.125H22.875ZM25.125 229.125H33.3056C33.0508 231.206 32.107 233.142 30.6245 234.624C29.142 236.107 27.206 237.051 25.125 237.306V229.125ZM25.125 226.875V218.694C27.206 218.949 29.142 219.893 30.6245 221.376C32.107 222.858 33.0508 224.794 33.3056 226.875H25.125ZM22.875 211.163V216.431C20.1946 216.695 17.6886 217.88 15.7842 219.784C13.8797 221.689 12.6947 224.195 12.4313 226.875H7.16251C7.44076 222.799 9.18552 218.963 12.0741 216.074C14.9626 213.186 18.7995 211.441 22.875 211.163ZM7.16251 229.125H12.4313C12.6947 231.805 13.8797 234.311 15.7842 236.216C17.6886 238.12 20.1946 239.305 22.875 239.569V244.838C18.7995 244.559 14.9626 242.814 12.0741 239.926C9.18552 237.037 7.44076 233.201 7.16251 229.125ZM25.125 244.838V239.569C27.8054 239.305 30.3114 238.12 32.2159 236.216C34.1203 234.311 35.3053 231.805 35.5688 229.125H40.8375C40.5593 233.201 38.8145 237.037 35.926 239.926C33.0374 242.814 29.2005 244.559 25.125 244.838Z" fill="#FE9A00"/>
</svg>