<svg width="505" height="557" viewBox="0 0 505 557" fill="none" xmlns="http://www.w3.org/2000/svg">
<g filter="url(#filter0_d_2483_121)">
<rect x="41.5" y="33.5" width="422" height="474" rx="16" fill="white"/>
<rect x="40.75" y="32.75" width="423.5" height="475.5" rx="16.75" stroke="#E5E7EB" stroke-width="1.5"/>
<g clip-path="url(#clip0_2483_121)">
<rect x="53.5" y="45.5" width="398" height="390" rx="16" fill="#F9FAFB"/>
<rect x="224.5" y="61.5" width="56" height="56" rx="16" fill="#FFD230"/>
<path fill-rule="evenodd" clip-rule="evenodd" d="M243.017 90.4213H236.45L236.45 90.5552C236.45 93.9778 237.147 97.0225 238.539 99.6889C239.972 102.355 241.961 104.445 244.508 105.958C247.055 107.43 250.06 108.167 253.522 108.167C256.984 108.167 259.988 107.43 262.535 105.958C265.082 104.445 267.052 102.355 268.445 99.6889C269.877 97.0224 270.594 93.9778 270.594 90.5552C270.594 87.0929 269.877 84.0288 268.445 81.3624C267.052 78.696 265.082 76.6068 262.535 75.0945C260.104 73.6511 257.257 72.896 253.992 72.8301V78.6839C255.98 78.7507 257.694 79.2453 259.133 80.1682C260.685 81.1233 261.879 82.4965 262.715 84.2873C263.55 86.0781 263.968 88.1675 263.968 90.5552C263.968 92.9032 263.55 94.9731 262.715 96.7639C261.879 98.5149 260.685 99.8881 259.133 100.883C257.581 101.838 255.71 102.316 253.522 102.316C251.333 102.316 249.443 101.838 247.851 100.883C246.299 99.8881 245.105 98.5149 244.269 96.7639C243.434 94.9731 243.016 92.9032 243.016 90.5552L243.017 90.4213Z" fill="#101828"/>
<path d="M251.194 87.6232L236.476 87.6232L236.476 83.0941L243.463 83.0941L234.406 74.0359L237.608 70.8334L246.665 79.8915L246.665 72.9037L251.194 72.9037L251.194 87.6232Z" fill="white"/>
<path d="M170.117 150.486C170.165 150.906 170.309 151.272 170.549 151.584C170.789 151.896 171.101 152.136 171.485 152.304C171.881 152.46 172.325 152.538 172.817 152.538C173.477 152.538 174.029 152.424 174.473 152.196C174.929 151.956 175.157 151.59 175.157 151.098C175.157 150.75 175.019 150.48 174.743 150.288C174.479 150.084 174.119 149.922 173.663 149.802C173.219 149.67 172.733 149.55 172.205 149.442C171.677 149.322 171.143 149.178 170.603 149.01C170.075 148.842 169.589 148.614 169.145 148.326C168.701 148.026 168.341 147.636 168.065 147.156C167.801 146.676 167.669 146.064 167.669 145.32C167.669 144.6 167.879 143.964 168.299 143.412C168.719 142.848 169.301 142.41 170.045 142.098C170.801 141.774 171.665 141.612 172.637 141.612C173.561 141.612 174.389 141.798 175.121 142.17C175.853 142.542 176.435 143.052 176.867 143.7C177.299 144.348 177.515 145.08 177.515 145.896H174.923C174.875 145.248 174.653 144.75 174.257 144.402C173.873 144.042 173.303 143.862 172.547 143.862C171.791 143.862 171.215 144 170.819 144.276C170.423 144.54 170.225 144.888 170.225 145.32C170.225 145.704 170.357 146.004 170.621 146.22C170.897 146.424 171.257 146.598 171.701 146.742C172.145 146.874 172.631 146.994 173.159 147.102C173.699 147.21 174.233 147.348 174.761 147.516C175.289 147.672 175.775 147.894 176.219 148.182C176.675 148.458 177.035 148.83 177.299 149.298C177.575 149.766 177.713 150.366 177.713 151.098C177.713 152.262 177.269 153.168 176.381 153.816C175.505 154.464 174.281 154.788 172.709 154.788C171.737 154.788 170.861 154.602 170.081 154.23C169.313 153.858 168.701 153.348 168.245 152.7C167.801 152.052 167.561 151.314 167.525 150.486H170.117ZM178.734 144.42H184.044V146.49H178.734V144.42ZM179.976 141.9H182.388V151.494C182.388 151.806 182.472 152.04 182.64 152.196C182.808 152.352 183.054 152.43 183.378 152.43H184.332V154.5H183.36C182.232 154.5 181.386 154.248 180.822 153.744C180.258 153.228 179.976 152.478 179.976 151.494V141.9ZM185.723 144.42H188.135V154.5H185.723V144.42ZM188.135 149.478L187.865 147.714C187.865 147.402 187.895 147.042 187.955 146.634C188.027 146.226 188.177 145.836 188.405 145.464C188.633 145.08 188.981 144.762 189.449 144.51C189.917 144.258 190.553 144.132 191.357 144.132V146.508C190.649 146.508 190.055 146.592 189.575 146.76C189.095 146.928 188.735 147.222 188.495 147.642C188.255 148.062 188.135 148.674 188.135 149.478ZM201.507 154.5H199.095V144.42H201.507V154.5ZM199.095 149.37L199.383 151.422C199.383 151.734 199.335 152.082 199.239 152.466C199.143 152.85 198.969 153.222 198.717 153.582C198.465 153.93 198.111 154.218 197.655 154.446C197.199 154.674 196.605 154.788 195.873 154.788C195.225 154.788 194.649 154.656 194.145 154.392C193.641 154.128 193.245 153.69 192.957 153.078C192.669 152.466 192.525 151.65 192.525 150.63V144.42H194.919V150.396C194.919 150.828 194.955 151.218 195.027 151.566C195.099 151.902 195.249 152.172 195.477 152.376C195.717 152.58 196.071 152.682 196.539 152.682C196.935 152.682 197.331 152.574 197.727 152.358C198.123 152.13 198.447 151.776 198.699 151.296C198.963 150.804 199.095 150.162 199.095 149.37ZM212.7 150.27C212.688 151.134 212.484 151.908 212.088 152.592C211.692 153.276 211.14 153.816 210.432 154.212C209.736 154.596 208.914 154.788 207.966 154.788C206.922 154.788 206.016 154.566 205.248 154.122C204.48 153.666 203.88 153.036 203.448 152.232C203.028 151.428 202.818 150.51 202.818 149.478C202.818 148.434 203.028 147.51 203.448 146.706C203.88 145.902 204.48 145.272 205.248 144.816C206.016 144.36 206.922 144.132 207.966 144.132C208.878 144.132 209.682 144.336 210.378 144.744C211.086 145.14 211.638 145.662 212.034 146.31C212.442 146.946 212.652 147.636 212.664 148.38H210.108C210.096 148.032 210.018 147.708 209.874 147.408C209.73 147.096 209.502 146.838 209.19 146.634C208.878 146.43 208.47 146.328 207.966 146.328C207.33 146.328 206.814 146.466 206.418 146.742C206.022 147.018 205.734 147.396 205.554 147.876C205.374 148.356 205.284 148.89 205.284 149.478C205.284 150.054 205.374 150.582 205.554 151.062C205.734 151.53 206.022 151.902 206.418 152.178C206.814 152.454 207.33 152.592 207.966 152.592C208.482 152.592 208.896 152.484 209.208 152.268C209.532 152.04 209.772 151.752 209.928 151.404C210.084 151.056 210.168 150.678 210.18 150.27H212.7ZM213.468 144.42H218.778V146.49H213.468V144.42ZM214.71 141.9H217.122V151.494C217.122 151.806 217.206 152.04 217.374 152.196C217.542 152.352 217.788 152.43 218.112 152.43H219.066V154.5H218.094C216.966 154.5 216.12 154.248 215.556 153.744C214.992 153.228 214.71 152.478 214.71 151.494V141.9ZM229.333 154.5H226.921V144.42H229.333V154.5ZM226.921 149.37L227.209 151.422C227.209 151.734 227.161 152.082 227.065 152.466C226.969 152.85 226.795 153.222 226.543 153.582C226.291 153.93 225.937 154.218 225.481 154.446C225.025 154.674 224.431 154.788 223.699 154.788C223.051 154.788 222.475 154.656 221.971 154.392C221.467 154.128 221.071 153.69 220.783 153.078C220.495 152.466 220.351 151.65 220.351 150.63V144.42H222.745V150.396C222.745 150.828 222.781 151.218 222.853 151.566C222.925 151.902 223.075 152.172 223.303 152.376C223.543 152.58 223.897 152.682 224.365 152.682C224.761 152.682 225.157 152.574 225.553 152.358C225.949 152.13 226.273 151.776 226.525 151.296C226.789 150.804 226.921 150.162 226.921 149.37ZM231.057 144.42H233.469V154.5H231.057V144.42ZM233.469 149.478L233.199 147.714C233.199 147.402 233.229 147.042 233.289 146.634C233.361 146.226 233.511 145.836 233.739 145.464C233.967 145.08 234.315 144.762 234.783 144.51C235.251 144.258 235.887 144.132 236.691 144.132V146.508C235.983 146.508 235.389 146.592 234.909 146.76C234.429 146.928 234.069 147.222 233.829 147.642C233.589 148.062 233.469 148.674 233.469 149.478ZM242.155 154.788C241.111 154.788 240.205 154.566 239.437 154.122C238.669 153.666 238.069 153.036 237.637 152.232C237.217 151.428 237.007 150.51 237.007 149.478C237.007 148.434 237.217 147.51 237.637 146.706C238.069 145.902 238.669 145.272 239.437 144.816C240.205 144.36 241.111 144.132 242.155 144.132C242.839 144.132 243.481 144.27 244.081 144.546C244.693 144.822 245.221 145.224 245.665 145.752C246.109 146.268 246.433 146.91 246.637 147.678C246.841 148.434 246.877 149.298 246.745 150.27H238.375V148.29H245.161L244.333 148.794C244.393 148.398 244.345 148.008 244.189 147.624C244.045 147.24 243.805 146.928 243.469 146.688C243.133 146.436 242.695 146.31 242.155 146.31C241.519 146.31 241.003 146.448 240.607 146.724C240.211 147 239.923 147.384 239.743 147.876C239.563 148.356 239.473 148.89 239.473 149.478C239.473 150.054 239.563 150.582 239.743 151.062C239.923 151.542 240.211 151.92 240.607 152.196C241.003 152.472 241.519 152.61 242.155 152.61C242.695 152.61 243.139 152.484 243.487 152.232C243.835 151.98 244.075 151.668 244.207 151.296H246.763C246.619 151.992 246.337 152.604 245.917 153.132C245.497 153.648 244.969 154.056 244.333 154.356C243.697 154.644 242.971 154.788 242.155 154.788ZM252.283 154.788C251.335 154.788 250.519 154.566 249.835 154.122C249.163 153.666 248.647 153.036 248.287 152.232C247.927 151.428 247.747 150.51 247.747 149.478C247.747 148.434 247.927 147.51 248.287 146.706C248.647 145.902 249.163 145.272 249.835 144.816C250.519 144.36 251.335 144.132 252.283 144.132C252.979 144.132 253.567 144.264 254.047 144.528C254.539 144.78 254.941 145.152 255.253 145.644V153.294C254.953 153.762 254.563 154.128 254.083 154.392C253.615 154.656 253.015 154.788 252.283 154.788ZM252.679 152.61C253.255 152.61 253.735 152.472 254.119 152.196C254.503 151.92 254.785 151.542 254.965 151.062C255.157 150.582 255.253 150.054 255.253 149.478C255.253 148.89 255.157 148.356 254.965 147.876C254.785 147.384 254.503 147 254.119 146.724C253.735 146.448 253.255 146.31 252.679 146.31C252.151 146.31 251.701 146.448 251.329 146.724C250.957 147 250.675 147.378 250.483 147.858C250.303 148.338 250.213 148.878 250.213 149.478C250.213 150.066 250.303 150.6 250.483 151.08C250.675 151.548 250.957 151.92 251.329 152.196C251.701 152.472 252.151 152.61 252.679 152.61ZM255.253 154.5V141H257.665V154.5H255.253ZM263.122 154.5V141.9H271.852V144.042H265.57V147.102H271.132V149.226H265.57V152.358H271.924V154.5H263.122ZM273.616 141.9H276.064V154.5H273.616V141.9ZM274.606 147.984H277.972V150.108H274.606V147.984ZM277.972 147.984C278.584 147.984 279.106 147.924 279.538 147.804C279.982 147.684 280.318 147.48 280.546 147.192C280.786 146.904 280.906 146.508 280.906 146.004C280.906 145.5 280.786 145.104 280.546 144.816C280.318 144.528 279.982 144.33 279.538 144.222C279.106 144.102 278.584 144.042 277.972 144.042V141.9C279.064 141.9 280.018 142.032 280.834 142.296C281.662 142.56 282.304 142.992 282.76 143.592C283.228 144.18 283.462 144.984 283.462 146.004C283.462 147.012 283.228 147.822 282.76 148.434C282.304 149.034 281.662 149.466 280.834 149.73C280.018 149.982 279.064 150.108 277.972 150.108V147.984ZM274.606 141.9H277.972V144.042H274.606V141.9ZM278.224 148.686H280.672L283.498 154.5H280.708L278.224 148.686ZM285.183 141.9H287.631V154.5H285.183V141.9ZM286.173 148.164H289.485V150.288H286.173V148.164ZM289.485 148.164C290.097 148.164 290.619 148.11 291.051 148.002C291.495 147.882 291.831 147.678 292.059 147.39C292.299 147.09 292.419 146.658 292.419 146.094C292.419 145.53 292.299 145.104 292.059 144.816C291.831 144.516 291.495 144.312 291.051 144.204C290.619 144.096 290.097 144.042 289.485 144.042V141.9C290.589 141.9 291.549 142.038 292.365 142.314C293.193 142.59 293.835 143.034 294.291 143.646C294.747 144.246 294.975 145.062 294.975 146.094C294.975 147.102 294.747 147.918 294.291 148.542C293.835 149.166 293.193 149.616 292.365 149.892C291.549 150.156 290.589 150.288 289.485 150.288V148.164ZM286.173 141.9H289.485V144.042H286.173V141.9ZM300.177 154.5V141.9H304.767C306.099 141.9 307.227 142.176 308.151 142.728C309.075 143.268 309.777 144.012 310.257 144.96C310.737 145.896 310.977 146.97 310.977 148.182C310.977 149.406 310.737 150.492 310.257 151.44C309.777 152.388 309.075 153.138 308.151 153.69C307.227 154.23 306.099 154.5 304.767 154.5H300.177ZM302.625 152.358H304.767C305.619 152.358 306.315 152.166 306.855 151.782C307.395 151.398 307.791 150.888 308.043 150.252C308.295 149.616 308.421 148.926 308.421 148.182C308.421 147.45 308.295 146.766 308.043 146.13C307.791 145.494 307.395 144.99 306.855 144.618C306.315 144.234 305.619 144.042 304.767 144.042H302.625V152.358ZM318.531 148.74H320.961V154.5H318.531V148.74ZM316.641 144.132C318.057 144.132 319.131 144.546 319.863 145.374C320.595 146.202 320.961 147.324 320.961 148.74H318.531C318.531 148.272 318.483 147.852 318.387 147.48C318.291 147.108 318.105 146.814 317.829 146.598C317.553 146.37 317.157 146.256 316.641 146.256C315.969 146.256 315.465 146.43 315.129 146.778C314.793 147.114 314.625 147.51 314.625 147.966H312.105C312.105 147.282 312.279 146.652 312.627 146.076C312.987 145.488 313.503 145.02 314.175 144.672C314.859 144.312 315.681 144.132 316.641 144.132ZM318.765 148.182L319.143 149.82C317.667 149.736 316.593 149.868 315.921 150.216C315.261 150.552 314.931 150.978 314.931 151.494C314.931 151.866 315.063 152.148 315.327 152.34C315.603 152.52 315.933 152.61 316.317 152.61C316.677 152.61 317.025 152.55 317.361 152.43C317.709 152.298 317.991 152.082 318.207 151.782C318.423 151.482 318.531 151.062 318.531 150.522L319.017 151.332C319.005 152.004 318.867 152.598 318.603 153.114C318.351 153.63 317.991 154.038 317.523 154.338C317.067 154.638 316.503 154.788 315.831 154.788C315.171 154.788 314.583 154.668 314.067 154.428C313.563 154.176 313.161 153.816 312.861 153.348C312.561 152.88 312.411 152.31 312.411 151.638C312.411 150.99 312.543 150.456 312.807 150.036C313.071 149.616 313.419 149.286 313.851 149.046C314.295 148.794 314.793 148.608 315.345 148.488C315.897 148.368 316.467 148.29 317.055 148.254C317.643 148.206 318.213 148.182 318.765 148.182ZM321.925 144.42H327.235V146.49H321.925V144.42ZM323.167 141.9H325.579V151.494C325.579 151.806 325.663 152.04 325.831 152.196C325.999 152.352 326.245 152.43 326.569 152.43H327.523V154.5H326.551C325.423 154.5 324.577 154.248 324.013 153.744C323.449 153.228 323.167 152.478 323.167 151.494V141.9ZM334.896 148.74H337.326V154.5H334.896V148.74ZM333.006 144.132C334.422 144.132 335.496 144.546 336.228 145.374C336.96 146.202 337.326 147.324 337.326 148.74H334.896C334.896 148.272 334.848 147.852 334.752 147.48C334.656 147.108 334.47 146.814 334.194 146.598C333.918 146.37 333.522 146.256 333.006 146.256C332.334 146.256 331.83 146.43 331.494 146.778C331.158 147.114 330.99 147.51 330.99 147.966H328.47C328.47 147.282 328.644 146.652 328.992 146.076C329.352 145.488 329.868 145.02 330.54 144.672C331.224 144.312 332.046 144.132 333.006 144.132ZM335.13 148.182L335.508 149.82C334.032 149.736 332.958 149.868 332.286 150.216C331.626 150.552 331.296 150.978 331.296 151.494C331.296 151.866 331.428 152.148 331.692 152.34C331.968 152.52 332.298 152.61 332.682 152.61C333.042 152.61 333.39 152.55 333.726 152.43C334.074 152.298 334.356 152.082 334.572 151.782C334.788 151.482 334.896 151.062 334.896 150.522L335.382 151.332C335.37 152.004 335.232 152.598 334.968 153.114C334.716 153.63 334.356 154.038 333.888 154.338C333.432 154.638 332.868 154.788 332.196 154.788C331.536 154.788 330.948 154.668 330.432 154.428C329.928 154.176 329.526 153.816 329.226 153.348C328.926 152.88 328.776 152.31 328.776 151.638C328.776 150.99 328.908 150.456 329.172 150.036C329.436 149.616 329.784 149.286 330.216 149.046C330.66 148.794 331.158 148.608 331.71 148.488C332.262 148.368 332.832 148.29 333.42 148.254C334.008 148.206 334.578 148.182 335.13 148.182Z" fill="#101828"/>
</g>
<rect x="54" y="46" width="397" height="389" rx="15.5" stroke="#E5E7EB" stroke-linecap="round"/>
<rect x="54" y="448" width="397" height="47" rx="5.5" fill="url(#paint0_linear_2483_121)"/>
<rect x="54" y="448" width="397" height="47" rx="5.5" stroke="url(#paint1_linear_2483_121)"/>
<path d="M177.5 473C177.502 473.306 177.409 473.605 177.234 473.855C177.059 474.106 176.811 474.297 176.523 474.401L171.688 476.188L169.906 481.027C169.801 481.313 169.61 481.561 169.359 481.735C169.109 481.91 168.811 482.004 168.506 482.004C168.2 482.004 167.902 481.91 167.652 481.735C167.401 481.561 167.211 481.313 167.105 481.027L165.313 476.188L160.473 474.406C160.187 474.301 159.939 474.11 159.765 473.859C159.59 473.609 159.496 473.311 159.496 473.006C159.496 472.7 159.59 472.402 159.765 472.152C159.939 471.901 160.187 471.71 160.473 471.605L165.313 469.812L167.094 464.973C167.199 464.687 167.39 464.439 167.641 464.265C167.891 464.09 168.189 463.996 168.494 463.996C168.8 463.996 169.098 464.09 169.348 464.265C169.599 464.439 169.79 464.687 169.895 464.973L171.688 469.812L176.527 471.594C176.815 471.699 177.063 471.89 177.237 472.142C177.412 472.394 177.503 472.694 177.5 473ZM172.25 464H173.75V465.5C173.75 465.699 173.829 465.89 173.97 466.03C174.11 466.171 174.301 466.25 174.5 466.25C174.699 466.25 174.89 466.171 175.03 466.03C175.171 465.89 175.25 465.699 175.25 465.5V464H176.75C176.949 464 177.14 463.921 177.28 463.78C177.421 463.64 177.5 463.449 177.5 463.25C177.5 463.051 177.421 462.86 177.28 462.72C177.14 462.579 176.949 462.5 176.75 462.5H175.25V461C175.25 460.801 175.171 460.61 175.03 460.47C174.89 460.329 174.699 460.25 174.5 460.25C174.301 460.25 174.11 460.329 173.97 460.47C173.829 460.61 173.75 460.801 173.75 461V462.5H172.25C172.051 462.5 171.86 462.579 171.72 462.72C171.579 462.86 171.5 463.051 171.5 463.25C171.5 463.449 171.579 463.64 171.72 463.78C171.86 463.921 172.051 464 172.25 464ZM180.5 467H179.75V466.25C179.75 466.051 179.671 465.86 179.53 465.72C179.39 465.579 179.199 465.5 179 465.5C178.801 465.5 178.61 465.579 178.47 465.72C178.329 465.86 178.25 466.051 178.25 466.25V467H177.5C177.301 467 177.11 467.079 176.97 467.22C176.829 467.36 176.75 467.551 176.75 467.75C176.75 467.949 176.829 468.14 176.97 468.28C177.11 468.421 177.301 468.5 177.5 468.5H178.25V469.25C178.25 469.449 178.329 469.64 178.47 469.78C178.61 469.921 178.801 470 179 470C179.199 470 179.39 469.921 179.53 469.78C179.671 469.64 179.75 469.449 179.75 469.25V468.5H180.5C180.699 468.5 180.89 468.421 181.03 468.28C181.171 468.14 181.25 467.949 181.25 467.75C181.25 467.551 181.171 467.36 181.03 467.22C180.89 467.079 180.699 467 180.5 467Z" fill="#7F22FE"/>
<path d="M193.486 466.2H194.942L191.918 476H190.322L193.486 466.2ZM195.572 466.2L198.806 476H197.21L194.102 466.2H195.572ZM191.848 472.388H197.126V473.732H191.848V472.388ZM199.903 466.2H201.429V476H199.903V466.2ZM205.836 476V466.2H212.57V467.558H207.362V470.4H212.01V471.744H207.362V474.642H212.626V476H205.836ZM213.469 468.16H215.205L220.203 476H218.467L213.469 468.16ZM220.161 468.16L215.163 476H213.427L218.425 468.16H220.161ZM220.865 468.16H224.995V469.448H220.865V468.16ZM222.041 466.2H223.539V473.872C223.539 474.161 223.609 474.376 223.749 474.516C223.889 474.647 224.095 474.712 224.365 474.712H225.219V476H224.351C223.586 476 223.007 475.813 222.615 475.44C222.233 475.057 222.041 474.535 222.041 473.872V466.2ZM226.329 468.16H227.827V476H226.329V468.16ZM227.827 471.884L227.617 470.722C227.617 470.479 227.645 470.199 227.701 469.882C227.766 469.565 227.892 469.261 228.079 468.972C228.275 468.673 228.559 468.426 228.933 468.23C229.315 468.034 229.819 467.936 230.445 467.936V469.448C229.894 469.448 229.423 469.523 229.031 469.672C228.639 469.821 228.34 470.073 228.135 470.428C227.929 470.773 227.827 471.259 227.827 471.884ZM236.139 471.52H237.637V476H236.139V471.52ZM234.389 467.936C235.463 467.936 236.27 468.258 236.811 468.902C237.362 469.546 237.637 470.419 237.637 471.52H236.139C236.139 471.063 236.083 470.671 235.971 470.344C235.859 470.008 235.673 469.747 235.411 469.56C235.159 469.373 234.819 469.28 234.389 469.28C233.792 469.28 233.335 469.439 233.017 469.756C232.709 470.073 232.555 470.461 232.555 470.918H230.973C230.973 470.405 231.104 469.924 231.365 469.476C231.627 469.019 232.014 468.65 232.527 468.37C233.041 468.081 233.661 467.936 234.389 467.936ZM236.265 471.142L236.559 472.234C235.253 472.122 234.287 472.215 233.661 472.514C233.045 472.803 232.737 473.195 232.737 473.69C232.737 474.091 232.863 474.395 233.115 474.6C233.377 474.796 233.736 474.894 234.193 474.894C234.567 474.894 234.898 474.819 235.187 474.67C235.486 474.511 235.719 474.283 235.887 473.984C236.055 473.685 236.139 473.326 236.139 472.906L236.517 473.578C236.461 474.101 236.331 474.563 236.125 474.964C235.92 475.356 235.631 475.664 235.257 475.888C234.884 476.112 234.422 476.224 233.871 476.224C233.358 476.224 232.896 476.131 232.485 475.944C232.075 475.748 231.748 475.468 231.505 475.104C231.272 474.74 231.155 474.297 231.155 473.774C231.155 473.27 231.258 472.855 231.463 472.528C231.669 472.192 231.944 471.926 232.289 471.73C232.635 471.534 233.027 471.394 233.465 471.31C233.913 471.217 234.375 471.161 234.851 471.142C235.327 471.123 235.799 471.123 236.265 471.142ZM246.353 472.71C246.325 473.382 246.157 473.984 245.849 474.516C245.551 475.048 245.131 475.468 244.589 475.776C244.048 476.075 243.409 476.224 242.671 476.224C241.859 476.224 241.155 476.051 240.557 475.706C239.96 475.351 239.493 474.861 239.157 474.236C238.831 473.611 238.667 472.897 238.667 472.094C238.667 471.282 238.831 470.563 239.157 469.938C239.493 469.313 239.96 468.823 240.557 468.468C241.155 468.113 241.859 467.936 242.671 467.936C243.381 467.936 244.006 468.095 244.547 468.412C245.089 468.72 245.513 469.126 245.821 469.63C246.129 470.125 246.297 470.661 246.325 471.24H244.729C244.711 470.913 244.627 470.605 244.477 470.316C244.328 470.027 244.104 469.789 243.805 469.602C243.516 469.415 243.138 469.322 242.671 469.322C242.121 469.322 241.663 469.443 241.299 469.686C240.935 469.919 240.66 470.246 240.473 470.666C240.296 471.086 240.207 471.562 240.207 472.094C240.207 472.617 240.296 473.088 240.473 473.508C240.66 473.919 240.935 474.245 241.299 474.488C241.663 474.721 242.121 474.838 242.671 474.838C243.157 474.838 243.549 474.74 243.847 474.544C244.155 474.339 244.384 474.077 244.533 473.76C244.683 473.433 244.767 473.083 244.785 472.71H246.353ZM246.856 468.16H250.986V469.448H246.856V468.16ZM248.032 466.2H249.53V473.872C249.53 474.161 249.6 474.376 249.74 474.516C249.88 474.647 250.085 474.712 250.356 474.712H251.21V476H250.342C249.576 476 248.998 475.813 248.606 475.44C248.223 475.057 248.032 474.535 248.032 473.872V466.2ZM252.362 468.16H253.874V476H252.362V468.16ZM252.278 465.5H253.958V467.222H252.278V465.5ZM259.023 476.224C258.211 476.224 257.506 476.051 256.909 475.706C256.312 475.351 255.845 474.861 255.509 474.236C255.182 473.611 255.019 472.897 255.019 472.094C255.019 471.282 255.182 470.563 255.509 469.938C255.845 469.313 256.312 468.823 256.909 468.468C257.506 468.113 258.211 467.936 259.023 467.936C259.835 467.936 260.54 468.113 261.137 468.468C261.734 468.823 262.196 469.313 262.523 469.938C262.859 470.563 263.027 471.282 263.027 472.094C263.027 472.897 262.859 473.611 262.523 474.236C262.196 474.861 261.734 475.351 261.137 475.706C260.54 476.051 259.835 476.224 259.023 476.224ZM259.023 474.852C259.536 474.852 259.975 474.74 260.339 474.516C260.703 474.283 260.983 473.961 261.179 473.55C261.375 473.13 261.473 472.645 261.473 472.094C261.473 471.534 261.375 471.044 261.179 470.624C260.983 470.204 260.703 469.882 260.339 469.658C259.975 469.425 259.536 469.308 259.023 469.308C258.51 469.308 258.066 469.425 257.693 469.658C257.329 469.882 257.049 470.204 256.853 470.624C256.657 471.044 256.559 471.534 256.559 472.094C256.559 472.645 256.657 473.13 256.853 473.55C257.049 473.961 257.329 474.283 257.693 474.516C258.066 474.74 258.51 474.852 259.023 474.852ZM264.09 468.16H265.588V469.448C265.7 469.187 265.864 469.444 266.078 469.22C266.293 468.987 266.573 468.8 266.918 468.66C267.264 468.511 267.684 468.436 268.178 468.436C268.682 468.436 269.13 468.539 269.522 468.744C269.924 468.949 270.236 469.29 270.46 469.766C270.694 470.233 270.81 470.867 270.81 471.67V476.5H269.312V471.852C269.312 471.423 269.27 471.054 269.186 470.746C269.102 470.429 268.948 470.186 268.724 470.018C268.5 469.841 268.188 469.752 267.786 469.752C267.413 469.752 267.058 469.859 266.722 470.074C266.386 470.289 266.111 470.606 265.896 471.026C265.691 471.446 265.588 471.969 265.588 472.594V476.5H264.09V468.16Z" fill="#6A7282"/>
</g>
<defs>
<filter id="filter0_d_2483_121" x="0" y="0" width="505" height="557" filterUnits="userSpaceOnUse" color-interpolation-filters="sRGB">
<feFlood flood-opacity="0" result="BackgroundImageFix"/>
<feColorMatrix in="SourceAlpha" type="matrix" values="0 0 0 0 0 0 0 0 0 0 0 0 0 0 0 0 0 0 127 0" result="hardAlpha"/>
<feOffset dy="8"/>
<feGaussianBlur stdDeviation="20"/>
<feComposite in2="hardAlpha" operator="out"/>
<feColorMatrix type="matrix" values="0 0 0 0 0 0 0 0 0 0 0 0 0 0 0 0 0 0 0.05 0"/>
<feBlend mode="normal" in2="BackgroundImageFix" result="effect1_dropShadow_2483_121"/>
<feBlend mode="normal" in="SourceGraphic" in2="effect1_dropShadow_2483_121" result="shape"/>
</filter>
<linearGradient id="paint0_linear_2483_121" x1="53.5" y1="471.5" x2="451.5" y2="471.5" gradientUnits="userSpaceOnUse">
<stop stop-color="#8E51FF" stop-opacity="0.1"/>
<stop offset="0.50267" stop-color="#C7A8FF" stop-opacity="0.049733"/>
<stop offset="1" stop-color="white" stop-opacity="0"/>
</linearGradient>
<linearGradient id="paint1_linear_2483_121" x1="412.615" y1="552.5" x2="443.023" y2="445.1" gradientUnits="userSpaceOnUse">
<stop stop-color="white" stop-opacity="0"/>
<stop offset="1" stop-color="#8E51FF" stop-opacity="0.9"/>
</linearGradient>
<clipPath id="clip0_2483_121">
<rect x="53.5" y="45.5" width="398" height="390" rx="16" fill="white"/>
</clipPath>
</defs>
</svg>