<svg width="285" height="198" viewBox="0 0 285 198" fill="none" xmlns="http://www.w3.org/2000/svg">
<g filter="url(#filter0_d_2483_17)">
<g clip-path="url(#clip0_2483_17)">
<rect x="39.1996" y="48.5409" width="164" height="32" rx="8" transform="rotate(-6.06979 39.1996 48.5409)" fill="white"/>
<path d="M70.8711 65.0344L55.1964 66.7012C55.3924 66.1863 55.5879 65.6574 55.7825 65.12C57.1972 65.1251 58.7327 63.9785 60.383 61.695C60.9825 62.9002 62.0367 64.4352 63.5436 64.3051C64.39 64.2321 65.1803 63.6408 65.9375 62.5072C66.651 63.1969 68.037 63.8273 70.7125 63.5428C70.9103 63.5218 71.0917 63.423 71.2167 63.2683C71.3416 63.1135 71.4 62.9155 71.379 62.7177C71.358 62.5199 71.2592 62.3386 71.1045 62.2136C70.9498 62.0886 70.7517 62.0302 70.5539 62.0512C67.7171 62.3529 66.7745 61.4679 66.6652 60.9459C66.6566 60.7849 66.5942 60.6316 66.4879 60.5104C66.3817 60.3891 66.2378 60.3071 66.0794 60.2775C65.9148 60.2466 65.7446 60.2706 65.595 60.346C65.4454 60.4214 65.3247 60.5438 65.2517 60.6946C64.3102 62.5426 63.6475 62.7913 63.4101 62.8108C62.6385 62.8778 61.6635 61.1563 61.2572 59.889C61.2138 59.7532 61.1326 59.6327 61.0232 59.5414C60.9137 59.4501 60.7805 59.3919 60.6392 59.3736C60.4979 59.3553 60.3543 59.3777 60.2252 59.438C60.0961 59.4984 59.9868 59.5943 59.9103 59.7145C58.2783 62.277 57.1006 63.2065 56.3367 63.4961C56.9411 61.6528 57.3679 60.0452 57.6081 58.7045C58.0115 56.4517 57.8956 54.9188 57.2522 54.0189C56.9192 53.5471 56.2645 53.0115 55.0787 53.1376C53.5815 53.2968 52.5508 54.8375 52.2502 57.3651C52.0712 58.8652 52.1897 60.5025 52.575 61.8559C52.9602 63.2093 53.5619 64.1598 54.345 64.6789C54.0738 65.4356 53.7943 66.1762 53.5202 66.8794L51.4805 67.0963C51.2827 67.1173 51.1013 67.2161 50.9763 67.3708C50.8513 67.5256 50.7929 67.7236 50.814 67.9214C50.835 68.1192 50.9337 68.3005 51.0885 68.4255C51.2432 68.5505 51.4413 68.6089 51.6391 68.5879L52.8892 68.455C52.0421 70.5249 51.3668 71.9769 51.3562 72.0007C51.3119 72.0903 51.286 72.1879 51.2801 72.2877C51.2741 72.3875 51.2881 72.4874 51.3213 72.5817C51.3545 72.676 51.4062 72.7627 51.4734 72.8367C51.5405 72.9107 51.6218 72.9706 51.7125 73.0127C51.8031 73.0549 51.9013 73.0785 52.0012 73.0821C52.1011 73.0858 52.2007 73.0695 52.2942 73.0341C52.3877 72.9987 52.4731 72.945 52.5456 72.8761C52.618 72.8072 52.6759 72.7246 52.7159 72.633C52.7274 72.6072 53.5803 70.7695 54.5812 68.275L71.0297 66.526C71.2275 66.5049 71.4089 66.4062 71.5339 66.2515C71.6589 66.0967 71.7173 65.8987 71.6962 65.7009C71.6752 65.5031 71.5765 65.3217 71.4217 65.1967C71.267 65.0718 71.0689 65.0134 70.8711 65.0344ZM53.7398 57.5423C53.9376 55.8742 54.54 54.7033 55.2373 54.6292C55.7342 54.5763 55.9176 54.7322 56.0316 54.8907C56.3641 55.3579 56.8792 57.0812 54.8688 63.1591C53.9869 62.1894 53.4694 59.8139 53.7398 57.5423Z" fill="#FE9A00"/>
<path d="M76.8949 55.2929L78.4123 55.1315L79.4486 64.8766L77.9311 65.0379L76.8949 55.2929ZM83.1456 54.6282L84.6631 54.4668L85.6993 64.2119L84.1819 64.3732L83.1456 54.6282ZM77.9515 59.4042L84.8009 58.6758L84.943 60.0123L78.0936 60.7406L77.9515 59.4042ZM91.6705 59.0717L93.1601 58.9133L93.6338 63.3682L92.1442 63.5266L91.6705 59.0717ZM89.5514 55.6928C90.6187 55.5793 91.4555 55.8141 92.0619 56.3973C92.6776 56.9795 93.0437 57.8181 93.1601 58.9133L91.6705 59.0717C91.6222 58.6169 91.525 58.233 91.3791 57.92C91.2322 57.5978 91.019 57.3576 90.7393 57.1996C90.469 57.0407 90.1204 56.9839 89.6935 57.0293C89.0995 57.0924 88.6615 57.2986 88.3795 57.6477C88.1068 57.9958 87.9946 58.3972 88.043 58.852L86.4698 59.0193C86.4155 58.5088 86.4947 58.0171 86.7071 57.5439C86.9187 57.0615 87.2648 56.654 87.7457 56.3213C88.2255 55.9793 88.8274 55.7698 89.5514 55.6928ZM91.7558 58.6825L92.1637 59.7373C90.8525 59.7641 89.9018 59.959 89.3115 60.3221C88.7296 60.675 88.4647 61.0973 88.517 61.5892C88.5595 61.9883 88.7168 62.2766 88.9891 62.4542C89.2697 62.6214 89.6374 62.6809 90.0922 62.6325C90.4634 62.593 90.785 62.4838 91.0569 62.3047C91.3371 62.1153 91.545 61.8633 91.6805 61.5485C91.8159 61.2337 91.8615 60.8675 91.8171 60.4499L92.264 61.0782C92.2636 61.6038 92.1825 62.077 92.0208 62.4978C91.858 62.9094 91.6029 63.2462 91.2553 63.5084C90.9078 63.7707 90.4602 63.9309 89.9126 63.9891C89.4022 64.0434 88.9329 63.9994 88.5048 63.8572C88.0757 63.7058 87.7213 63.4619 87.4415 63.1256C87.171 62.7883 87.0081 62.3598 86.9528 61.84C86.8995 61.3389 86.9577 60.915 87.1273 60.5685C87.296 60.2126 87.5416 59.919 87.8643 59.6876C88.187 59.4562 88.562 59.2755 88.9893 59.1456C89.4249 59.0054 89.8784 58.9009 90.3498 58.832C90.8211 58.7631 91.2898 58.7132 91.7558 58.6825ZM94.135 55.4307L95.6246 55.2723L95.7608 56.553C95.8445 56.2813 95.9813 56.0228 96.1711 55.7773C96.3598 55.5226 96.6185 55.3074 96.9471 55.1316C97.2747 54.9466 97.6845 54.828 98.1764 54.7757C98.6776 54.7224 99.1339 54.7771 99.5454 54.9398C99.9662 55.1016 100.313 55.4073 100.586 55.8569C100.868 56.2963 101.051 56.9151 101.136 57.7132L101.646 62.5161L100.157 62.6745L99.6652 58.0526C99.6198 57.6257 99.5391 57.2635 99.423 56.9661C99.3059 56.6594 99.1271 56.4344 98.8866 56.2911C98.6451 56.1384 98.3248 56.0833 97.9257 56.1257C97.5545 56.1652 97.2132 56.3094 96.9017 56.5584C96.5903 56.8074 96.3501 57.1521 96.181 57.5924C96.0213 58.0318 95.9744 58.5624 96.0406 59.1842L96.4536 63.0683L94.964 63.2267L94.135 55.4307ZM106.252 62.2517C105.537 62.3277 104.897 62.2221 104.332 61.9349C103.774 61.6375 103.319 61.1932 102.965 60.602C102.611 60.0107 102.392 59.316 102.307 58.5179C102.221 57.7104 102.289 56.9805 102.511 56.3281C102.732 55.6756 103.084 55.1455 103.566 54.7375C104.058 54.3286 104.661 54.0861 105.376 54.0101C105.97 53.947 106.489 54.0185 106.933 54.2246C107.377 54.4308 107.744 54.7438 108.032 55.1637L108.608 60.5791C108.422 61.0307 108.138 61.4082 107.757 61.7115C107.376 62.0055 106.874 62.1855 106.252 62.2517ZM106.302 60.8666C106.821 60.8114 107.236 60.65 107.546 60.3824C107.863 60.1046 108.083 59.748 108.206 59.3126C108.338 58.8762 108.376 58.3981 108.321 57.8784C108.265 57.3493 108.126 56.8854 107.906 56.4865C107.694 56.0866 107.404 55.7843 107.035 55.5795C106.675 55.3737 106.235 55.2984 105.716 55.3537C105.27 55.4011 104.897 55.5581 104.597 55.8246C104.296 56.0819 104.079 56.4287 103.947 56.8651C103.816 57.3015 103.779 57.7982 103.838 58.355C103.897 58.9026 104.036 59.3758 104.257 59.7747C104.477 60.1644 104.761 60.4579 105.111 60.6554C105.459 60.8436 105.856 60.914 106.302 60.8666ZM108.734 61.7625L107.624 51.3213L109.113 51.1629L110.224 61.6041L108.734 61.7625ZM110.413 53.6997L112.014 53.5295L114.472 61.1523L113.191 61.2885L110.413 53.6997ZM116.079 53.0972L115.126 61.0828L113.734 61.2308L114.701 53.2438L116.079 53.0972ZM114.951 53.2171L116.344 53.0691L118.954 60.6757L117.576 60.8222L114.951 53.2171ZM120.631 52.6132L119.511 60.6164L118.217 60.7541L119.016 52.7849L120.631 52.6132ZM121.652 52.5046L123.141 52.3462L123.97 60.1423L122.481 60.3007L121.652 52.5046ZM123.535 56.0494L123.203 54.9161C123.178 54.6748 123.176 54.3934 123.198 54.0719C123.23 53.7495 123.323 53.4345 123.478 53.127C123.641 52.8093 123.898 52.5333 124.249 52.2989C124.608 52.0635 125.099 51.9128 125.721 51.8467L125.881 53.3502C125.333 53.4084 124.872 53.5325 124.498 53.7225C124.124 53.9124 123.854 54.1946 123.687 54.569C123.52 54.9341 123.469 55.4275 123.535 56.0494ZM126.807 51.9565L128.31 51.7966L129.139 59.5926L127.636 59.7525L126.807 51.9565ZM126.442 49.3203L128.113 49.1426L128.295 50.855L126.624 51.0326L126.442 49.3203ZM129.461 51.6743L133.568 51.2376L133.704 52.5183L129.597 52.955L129.461 51.6743ZM130.423 49.6009L131.913 49.4425L132.724 57.0715C132.754 57.3592 132.847 57.5653 133.001 57.6897C133.154 57.8048 133.365 57.8481 133.634 57.8194L134.483 57.7291L134.619 59.0099L133.756 59.1017C132.995 59.1826 132.4 59.0582 131.971 58.7284C131.55 58.3883 131.304 57.8888 131.234 57.2299L130.423 49.6009ZM134.545 51.1336L138.652 50.6969L138.788 51.9777L134.682 52.4144L134.545 51.1336ZM135.508 49.0602L136.997 48.9018L137.808 56.5308C137.839 56.8185 137.931 57.0246 138.085 57.149C138.238 57.2641 138.449 57.3074 138.719 57.2788L139.568 57.1885L139.704 58.4692L138.841 58.561C138.08 58.6419 137.485 58.5175 137.055 58.1877C136.634 57.8477 136.389 57.3482 136.319 56.6892L135.508 49.0602ZM144.139 58.2229C143.332 58.3087 142.613 58.2115 141.982 57.9313C141.351 57.6418 140.835 57.2039 140.435 56.6176C140.044 56.0303 139.806 55.3376 139.721 54.5394C139.635 53.732 139.722 53 139.98 52.3437C140.248 51.6863 140.661 51.1497 141.217 50.7339C141.774 50.318 142.455 50.0672 143.263 49.9813C143.792 49.9251 144.299 49.9744 144.785 50.1292C145.271 50.284 145.702 50.5432 146.079 50.9068C146.455 51.2704 146.753 51.7315 146.972 52.2901C147.19 52.8395 147.301 53.4847 147.304 54.2258L140.622 54.9364L140.489 53.6834L146.336 53.0617L145.755 53.5599C145.736 53.1114 145.628 52.7146 145.432 52.3694C145.234 52.0149 144.966 51.7431 144.627 51.5539C144.288 51.3647 143.881 51.2953 143.408 51.3456C142.86 51.4039 142.419 51.5729 142.082 51.8527C141.746 52.1325 141.507 52.4911 141.366 52.9284C141.234 53.3648 141.196 53.8475 141.252 54.3766C141.308 54.8963 141.446 55.3556 141.666 55.7545C141.896 56.1524 142.205 56.4528 142.593 56.6556C142.98 56.8491 143.447 56.9168 143.994 56.8586C144.542 56.8003 144.96 56.6292 145.249 56.345C145.546 56.0506 145.735 55.7114 145.817 55.3273L147.404 55.1585C147.34 55.7097 147.167 56.202 146.885 56.6357C146.612 57.0683 146.242 57.4268 145.774 57.7111C145.315 57.9852 144.77 58.1558 144.139 58.2229ZM147.972 49.7058L149.462 49.5474L149.598 50.8282C149.682 50.5565 149.818 50.2979 150.008 50.0525C150.197 49.7978 150.456 49.5825 150.784 49.4068C151.112 49.2218 151.522 49.1031 152.013 49.0508C152.515 48.9975 152.971 49.0523 153.383 49.215C153.803 49.3767 154.15 49.6824 154.423 50.1321C154.705 50.5715 154.888 51.1902 154.973 51.9884L155.483 56.7913L153.994 56.9497L153.502 52.3278C153.457 51.9009 153.376 51.5387 153.26 51.2413C153.143 50.9346 152.964 50.7096 152.724 50.5662C152.482 50.4136 152.162 50.3585 151.763 50.4009C151.392 50.4404 151.05 50.5846 150.739 50.8336C150.427 51.0826 150.187 51.4273 150.018 51.8676C149.858 52.307 149.812 52.8376 149.878 53.4594L150.291 57.3435L148.801 57.5019L147.972 49.7058ZM158.848 48.5493L160.338 48.3909L160.474 49.6717C160.558 49.4 160.695 49.1414 160.884 48.896C161.073 48.6412 161.332 48.426 161.66 48.2503C161.988 48.0653 162.398 47.9466 162.89 47.8943C163.391 47.841 163.847 47.8957 164.259 48.0585C164.679 48.2202 165.026 48.5259 165.3 48.9756C165.581 49.4149 165.764 50.0337 165.849 50.8319L166.36 55.6348L164.87 55.7932L164.379 51.1712C164.333 50.7443 164.252 50.3822 164.136 50.0848C164.019 49.7781 163.84 49.5531 163.6 49.4097C163.358 49.2571 163.038 49.2019 162.639 49.2444C162.268 49.2839 161.926 49.4281 161.615 49.6771C161.304 49.9261 161.063 50.2707 160.894 50.7111C160.735 51.1504 160.688 51.681 160.754 52.3029L161.167 56.187L159.677 56.3454L158.848 48.5493ZM171.411 55.3229C170.604 55.4087 169.885 55.3115 169.254 55.0313C168.623 54.7418 168.107 54.3039 167.707 53.7176C167.316 53.1303 167.078 52.4376 166.993 51.6394C166.907 50.832 166.994 50.1001 167.252 49.4437C167.52 48.7863 167.933 48.2497 168.489 47.8339C169.046 47.418 169.728 47.1672 170.535 47.0813C171.342 46.9955 172.062 47.0973 172.693 47.3868C173.325 47.6763 173.836 48.1147 174.227 48.702C174.627 49.2883 174.87 49.9852 174.956 50.7926C175.041 51.5908 174.95 52.3186 174.682 52.9759C174.423 53.6323 174.015 54.1684 173.459 54.5842C172.901 54.9908 172.219 55.237 171.411 55.3229ZM171.266 53.9586C171.777 53.9043 172.201 53.7465 172.539 53.4853C172.877 53.2148 173.121 52.865 173.273 52.4359C173.423 51.9975 173.469 51.5045 173.411 50.957C173.352 50.4001 173.202 49.9232 172.963 49.5263C172.724 49.1294 172.411 48.8388 172.026 48.6545C171.639 48.461 171.191 48.3914 170.68 48.4456C170.17 48.4999 169.741 48.6628 169.395 48.9343C169.056 49.1956 168.812 49.5454 168.661 49.9837C168.511 50.4221 168.465 50.9197 168.524 51.4766C168.583 52.0242 168.731 52.4964 168.971 52.8933C169.209 53.281 169.522 53.5715 169.908 53.7651C170.303 53.9484 170.756 54.0128 171.266 53.9586ZM174.978 46.8342L179.084 46.3975L179.221 47.6783L175.114 48.115L174.978 46.8342ZM175.94 44.7608L177.429 44.6024L178.241 52.2314C178.271 52.5191 178.364 52.7252 178.518 52.8496C178.671 52.9647 178.882 53.008 179.151 52.9794L180 52.8891L180.136 54.1698L179.273 54.2616C178.512 54.3425 177.917 54.2181 177.488 53.8883C177.067 53.5483 176.821 53.0488 176.751 52.3898L175.94 44.7608ZM184.572 53.9235C183.764 54.0093 183.045 53.9121 182.415 53.6319C181.783 53.3424 181.267 52.9045 180.867 52.3182C180.476 51.7309 180.238 51.0382 180.153 50.24C180.067 49.4326 180.154 48.7007 180.413 48.0443C180.681 47.3869 181.093 46.8503 181.649 46.4345C182.206 46.0186 182.888 45.7678 183.695 45.6819C184.224 45.6257 184.732 45.675 185.217 45.8298C185.703 45.9847 186.134 46.2438 186.511 46.6074C186.887 46.971 187.185 47.4321 187.404 47.9907C187.622 48.5401 187.733 49.1853 187.737 49.9264L181.054 50.637L180.921 49.384L186.768 48.7623L186.188 49.2605C186.168 48.812 186.06 48.4152 185.864 48.07C185.667 47.7155 185.398 47.4437 185.059 47.2545C184.72 47.0653 184.314 46.9959 183.84 47.0462C183.293 47.1045 182.851 47.2735 182.514 47.5533C182.178 47.8331 181.939 48.1917 181.798 48.629C181.666 49.0654 181.628 49.5482 181.685 50.0772C181.74 50.5969 181.878 51.0562 182.099 51.4551C182.329 51.853 182.638 52.1534 183.025 52.3562C183.412 52.5497 183.879 52.6174 184.426 52.5592C184.974 52.5009 185.392 52.3298 185.681 52.0456C185.978 51.7512 186.168 51.412 186.249 51.0279L187.836 50.8591C187.772 51.4103 187.599 51.9026 187.317 52.3363C187.044 52.7689 186.674 53.1274 186.207 53.4117C185.748 53.6858 185.203 53.8564 184.572 53.9235ZM190.277 50.5995C190.374 51.0679 190.611 51.3994 190.988 51.5939C191.375 51.7875 191.819 51.8576 192.32 51.8043C192.821 51.751 193.21 51.6158 193.487 51.3986C193.774 51.1804 193.896 50.8717 193.854 50.4726C193.828 50.2313 193.716 50.0602 193.517 49.9593C193.327 49.8481 193.08 49.7712 192.775 49.7285C192.479 49.6849 192.152 49.654 191.794 49.6358C191.444 49.6166 191.089 49.584 190.727 49.538C190.366 49.492 190.028 49.4058 189.714 49.2797C189.409 49.1432 189.153 48.9451 188.947 48.6854C188.741 48.4258 188.615 48.0732 188.567 47.6277C188.523 47.21 188.611 46.8018 188.831 46.4029C189.051 45.9948 189.385 45.6541 189.835 45.3811C190.293 45.0977 190.837 44.9225 191.468 44.8554C192.034 44.7952 192.566 44.8559 193.064 45.0376C193.561 45.21 193.97 45.481 194.291 45.8504C194.621 46.2189 194.815 46.6677 194.871 47.1967L193.451 47.3477C193.363 46.8783 193.141 46.55 192.783 46.3628C192.434 46.1653 192.022 46.0917 191.549 46.1421C191.01 46.1993 190.614 46.3541 190.359 46.6065C190.113 46.8486 190.007 47.1367 190.043 47.4708C190.07 47.7306 190.18 47.9208 190.371 48.0413C190.571 48.1607 190.819 48.2423 191.115 48.286C191.42 48.3286 191.752 48.3591 192.11 48.3772C192.469 48.3954 192.824 48.428 193.177 48.475C193.538 48.5211 193.871 48.6077 194.176 48.7348C194.488 48.8518 194.747 49.0354 194.952 49.2858C195.157 49.5362 195.283 49.8795 195.329 50.3157C195.382 50.8076 195.298 51.253 195.077 51.6519C194.856 52.0415 194.515 52.364 194.054 52.6195C193.601 52.8648 193.045 53.0224 192.386 53.0925C191.774 53.1576 191.209 53.1003 190.693 52.9206C190.175 52.7316 189.747 52.4533 189.407 52.0858C189.076 51.7081 188.874 51.2649 188.801 50.7565L190.277 50.5995Z" fill="#101828"/>
</g>
<rect x="39.7497" y="48.9852" width="163" height="31" rx="7.5" transform="rotate(-6.06979 39.7497 48.9852)" stroke="#E5E7EB"/>
</g>
<rect width="219.313" height="64" transform="translate(43.0062 84.3391) rotate(-6.06979)" fill="#FEE685"/>
<g filter="url(#filter1_f_2483_17)">
<rect width="207.218" height="9.99168" transform="matrix(0.982121 -0.188251 0.13832 0.990388 59.2429 177.542)" fill="black" fill-opacity="0.1"/>
</g>
<g filter="url(#filter2_f_2483_17)">
<rect x="58.1188" y="167.206" width="206.78" height="10" transform="rotate(-6.06979 58.1188 167.206)" fill="black" fill-opacity="0.1"/>
</g>
<rect x="49.7736" y="147.98" width="219.313" height="30" transform="rotate(-6.06979 49.7736 147.98)" fill="#FEE685"/>
<defs>
<filter id="filter0_d_2483_17" x="-0.800415" y="-0.800415" width="246.464" height="129.162" filterUnits="userSpaceOnUse" color-interpolation-filters="sRGB">
<feFlood flood-opacity="0" result="BackgroundImageFix"/>
<feColorMatrix in="SourceAlpha" type="matrix" values="0 0 0 0 0 0 0 0 0 0 0 0 0 0 0 0 0 0 127 0" result="hardAlpha"/>
<feOffset dy="8"/>
<feGaussianBlur stdDeviation="20"/>
<feComposite in2="hardAlpha" operator="out"/>
<feColorMatrix type="matrix" values="0 0 0 0 0 0 0 0 0 0 0 0 0 0 0 0 0 0 0.05 0"/>
<feBlend mode="normal" in2="BackgroundImageFix" result="effect1_dropShadow_2483_17"/>
<feBlend mode="normal" in="SourceGraphic" in2="effect1_dropShadow_2483_17" result="shape"/>
</filter>
<filter id="filter1_f_2483_17" x="49.2429" y="128.533" width="224.895" height="68.9046" filterUnits="userSpaceOnUse" color-interpolation-filters="sRGB">
<feFlood flood-opacity="0" result="BackgroundImageFix"/>
<feBlend mode="normal" in="SourceGraphic" in2="BackgroundImageFix" result="shape"/>
<feGaussianBlur stdDeviation="5" result="effect1_foregroundBlur_2483_17"/>
</filter>
<filter id="filter2_f_2483_17" x="38.1188" y="125.341" width="246.679" height="71.8088" filterUnits="userSpaceOnUse" color-interpolation-filters="sRGB">
<feFlood flood-opacity="0" result="BackgroundImageFix"/>
<feBlend mode="normal" in="SourceGraphic" in2="BackgroundImageFix" result="shape"/>
<feGaussianBlur stdDeviation="10" result="effect1_foregroundBlur_2483_17"/>
</filter>
<clipPath id="clip0_2483_17">
<rect x="39.1996" y="48.5409" width="164" height="32" rx="8" transform="rotate(-6.06979 39.1996 48.5409)" fill="white"/>
</clipPath>
</defs>
</svg>