<svg width="208" height="230" viewBox="0 0 208 230" fill="none" xmlns="http://www.w3.org/2000/svg">
<g filter="url(#filter0_d_2483_106)">
<g clip-path="url(#clip0_2483_106)">
<path d="M40.1522 56.0352C39.2987 51.7002 42.1211 47.494 46.4561 46.6405L120.043 32.1522C124.378 31.2987 128.585 34.1211 129.438 38.4561L132.529 54.1547C133.382 58.4898 130.56 62.696 126.225 63.5495L52.6378 78.0377C48.3027 78.8913 44.0966 76.0689 43.2431 71.7338L40.1522 56.0352Z" fill="white"/>
<g clip-path="url(#clip1_2483_106)">
<path d="M67.8218 50.3326L51.6326 53.52C51.2423 53.5969 50.8985 53.8257 50.6768 54.156C50.4552 54.4864 50.3738 54.8912 50.4507 55.2816L53.0585 68.5273C53.1354 68.9176 53.3642 69.2614 53.6945 69.4831C54.0249 69.7047 54.4297 69.7861 54.8201 69.7093L71.0093 66.5218C71.3996 66.445 71.7434 66.2162 71.9651 65.8859C72.1867 65.5555 72.2681 65.1507 72.1912 64.7603L69.5834 51.5146C69.5065 51.1243 69.2777 50.7805 68.9474 50.5588C68.617 50.3371 68.2122 50.2558 67.8218 50.3326ZM68.1116 51.8044L69.9724 61.2557L67.1025 59.3308C66.9389 59.221 66.7553 59.1445 66.5621 59.1057C66.369 59.0668 66.1701 59.0664 65.9768 59.1045C65.7835 59.1426 65.5996 59.2183 65.4355 59.3275C65.2715 59.4366 65.1306 59.577 65.0209 59.7406L63.5434 61.9425L58.6992 58.6921C58.369 58.4706 57.9642 58.3893 57.5741 58.4662C57.1839 58.543 56.8402 58.7716 56.6185 59.1017L53.6134 63.5804L51.9224 54.9918L68.1116 51.8044ZM54.0232 65.662L57.8646 59.937L66.6722 65.8469L54.5303 68.2375L54.0232 65.662ZM70.7195 65.0501L68.7538 65.4371L64.7904 62.7776L66.2679 60.5758L70.3823 63.3373L70.7195 65.0501ZM62.2856 57.1556C62.2426 56.9373 62.2653 56.7112 62.3509 56.5058C62.4364 56.3004 62.581 56.1249 62.7662 56.0017C62.9515 55.8784 63.1691 55.8129 63.3916 55.8133C63.6141 55.8137 63.8315 55.8801 64.0163 56.0041C64.201 56.1281 64.3449 56.3041 64.4296 56.5098C64.5144 56.7155 64.5362 56.9418 64.4924 57.1599C64.4485 57.3781 64.341 57.5783 64.1834 57.7353C64.0257 57.8924 63.825 57.9991 63.6067 58.0421C63.314 58.0997 63.0103 58.0387 62.7626 57.8725C62.5148 57.7062 62.3432 57.4484 62.2856 57.1556Z" fill="#00A63E"/>
</g>
<path d="M76.7512 51.5812L78.2485 51.2864L80.1416 60.9019L78.6444 61.1966L76.7512 51.5812ZM78.4776 56.3638L80.8952 55.8878L81.1548 57.2065L78.7373 57.6825L78.4776 56.3638ZM80.8952 55.8878C81.4538 55.7778 81.9155 55.6346 82.2803 55.4582C82.6542 55.2799 82.9158 55.0382 83.065 54.7329C83.2233 54.4259 83.2556 54.0343 83.1619 53.5581C83.0663 53.0727 82.888 52.7226 82.6269 52.5076C82.3731 52.2817 82.0403 52.1618 81.6285 52.1477C81.2241 52.1227 80.7426 52.1652 80.1839 52.2752L79.9243 50.9565C80.7851 50.787 81.5467 50.7417 82.2091 50.8206C82.8806 50.8976 83.4309 51.1317 83.8599 51.5229C84.287 51.9049 84.5763 52.4805 84.7278 53.2498C84.8756 54.0007 84.8261 54.643 84.5793 55.1768C84.3306 55.7014 83.911 56.1312 83.3206 56.4662C82.7376 56.7903 82.0157 57.037 81.1548 57.2065L80.8952 55.8878ZM77.5067 51.4325L79.9243 50.9565L80.1839 52.2752L77.7664 52.7512L77.5067 51.4325ZM85.0389 49.2361L86.5087 48.9467L88.5371 59.2489L87.0673 59.5383L85.0389 49.2361ZM87.7825 55.4165L87.2652 53.9488C87.2184 53.7107 87.2073 53.437 87.232 53.1277C87.2567 52.8185 87.3437 52.5112 87.4929 52.206C87.6494 51.8898 87.8891 51.6095 88.212 51.3652C88.5349 51.1209 88.9711 50.9447 89.5205 50.8365C90.015 50.7391 90.4744 50.7533 90.8987 50.879C91.3321 51.003 91.7047 51.2768 92.0164 51.7006C92.3355 52.1134 92.5726 52.7136 92.7277 53.5011L93.6607 58.2401L92.1909 58.5295L91.293 53.9691C91.2101 53.5478 91.0977 53.1942 90.9558 52.9082C90.812 52.6131 90.6141 52.4048 90.3618 52.2832C90.1078 52.1525 89.7839 52.1259 89.3901 52.2034C89.0238 52.2755 88.6966 52.4494 88.4084 52.7249C88.1202 53.0004 87.9113 53.365 87.7818 53.8185C87.6615 54.2703 87.6617 54.8029 87.7825 55.4165ZM98.6645 57.4833C97.8678 57.6401 97.143 57.6068 96.4903 57.3834C95.8357 57.1508 95.2831 56.7602 94.8327 56.2115C94.3913 55.6611 94.0932 54.9921 93.9381 54.2045C93.7812 53.4078 93.8027 52.6712 94.0024 51.9945C94.2112 51.316 94.5745 50.7451 95.092 50.2817C95.6096 49.8184 96.2667 49.5082 97.0634 49.3514C97.8602 49.1945 98.5858 49.2324 99.2404 49.465C99.895 49.6976 100.443 50.0891 100.884 50.6396C101.335 51.1882 101.638 51.8609 101.795 52.6576C101.95 53.4451 101.923 54.1781 101.715 54.8566C101.515 55.5333 101.156 56.1033 100.639 56.5666C100.119 57.0209 99.4612 57.3264 98.6645 57.4833ZM98.3995 56.1371C98.9031 56.0379 99.3119 55.8433 99.6258 55.5532C99.9378 55.254 100.15 54.8839 100.263 54.4431C100.375 53.9932 100.377 53.4981 100.271 52.9578C100.162 52.4083 99.9715 51.9465 99.6981 51.5723C99.4247 51.198 99.0877 50.9362 98.6873 50.7867C98.2851 50.6281 97.8322 50.5984 97.3285 50.6975C96.8248 50.7967 96.4124 50.9968 96.0912 51.2979C95.7773 51.588 95.5648 51.958 95.4536 52.4079C95.3424 52.8579 95.3409 53.3576 95.4491 53.907C95.5555 54.4473 95.7454 54.9046 96.0188 55.2788C96.2905 55.6439 96.6274 55.9057 97.0296 56.0644C97.4392 56.212 97.8958 56.2363 98.3995 56.1371ZM101.467 48.7127L105.519 47.9149L105.768 49.1786L101.716 49.9764L101.467 48.7127ZM102.242 46.5624L103.712 46.2731L105.194 53.8006C105.25 54.0844 105.36 54.2815 105.524 54.3919C105.687 54.493 105.901 54.5175 106.167 54.4652L107.005 54.3002L107.253 55.5639L106.402 55.7316C105.651 55.8795 105.047 55.8081 104.59 55.5175C104.141 55.216 103.852 54.7401 103.724 54.0899L102.242 46.5624ZM111.65 54.9267C110.853 55.0835 110.128 55.0503 109.475 54.8268C108.821 54.5942 108.268 54.2036 107.818 53.655C107.376 53.1045 107.078 52.4355 106.923 51.648C106.766 50.8513 106.788 50.1146 106.987 49.4379C107.196 48.7595 107.56 48.1885 108.077 47.7252C108.595 47.2618 109.252 46.9517 110.049 46.7948C110.845 46.6379 111.571 46.6758 112.225 46.9084C112.88 47.141 113.428 47.5325 113.869 48.083C114.32 48.6316 114.623 49.3043 114.78 50.101C114.935 50.8885 114.908 51.6216 114.7 52.3C114.5 52.9767 114.141 53.5467 113.624 54.0101C113.104 54.4643 112.446 54.7698 111.65 54.9267ZM111.385 53.5805C111.888 53.4814 112.297 53.2867 112.611 52.9966C112.923 52.6974 113.135 52.3274 113.248 51.8866C113.36 51.4366 113.362 50.9415 113.256 50.4012C113.147 49.8517 112.957 49.3899 112.683 49.0157C112.41 48.6415 112.073 48.3796 111.672 48.2301C111.27 48.0715 110.817 48.0418 110.314 48.141C109.81 48.2401 109.397 48.4402 109.076 48.7413C108.762 49.0314 108.55 49.4014 108.439 49.8514C108.327 50.3013 108.326 50.801 108.434 51.3505C108.541 51.8908 108.73 52.348 109.004 52.7223C109.276 53.0873 109.612 53.3492 110.015 53.5078C110.424 53.6554 110.881 53.6797 111.385 53.5805ZM117.321 51.0562C117.459 51.5143 117.724 51.8235 118.117 51.9839C118.519 52.1425 118.968 52.1732 119.462 52.0758C119.957 51.9784 120.332 51.8093 120.589 51.5685C120.855 51.3258 120.95 51.0076 120.872 50.6139C120.825 50.3758 120.699 50.2152 120.492 50.1322C120.293 50.0383 120.039 49.9835 119.732 49.968C119.434 49.9506 119.105 49.9487 118.746 49.9623C118.397 49.974 118.04 49.973 117.675 49.9591C117.311 49.9451 116.967 49.8892 116.644 49.7912C116.327 49.6823 116.055 49.5076 115.827 49.2671C115.599 49.0266 115.442 48.6866 115.355 48.2471C115.274 47.835 115.326 47.4205 115.51 47.0037C115.692 46.5778 115.995 46.209 116.419 45.8972C116.85 45.5745 117.377 45.3519 118 45.2293C118.559 45.1193 119.094 45.1328 119.606 45.2698C120.116 45.3976 120.548 45.6314 120.9 45.9711C121.261 46.3089 121.493 46.7389 121.596 47.2609L120.195 47.5367C120.066 47.0769 119.816 46.7695 119.443 46.6147C119.077 46.4488 118.661 46.4119 118.194 46.5038C117.663 46.6084 117.281 46.7976 117.05 47.0715C116.826 47.3344 116.746 47.6307 116.811 47.9604C116.862 48.2168 116.987 48.3966 117.188 48.4997C117.399 48.601 117.653 48.6603 117.951 48.6777C118.259 48.6932 118.592 48.6942 118.951 48.6807C119.309 48.6671 119.666 48.6682 120.021 48.6839C120.386 48.6978 120.725 48.7546 121.039 48.8544C121.361 48.9432 121.635 49.1033 121.862 49.3346C122.088 49.5659 122.244 49.8968 122.328 50.3272C122.424 50.8125 122.379 51.2636 122.195 51.6804C122.009 52.088 121.698 52.4394 121.261 52.7347C120.832 53.0189 120.292 53.2251 119.642 53.3531C119.038 53.4721 118.47 53.4649 117.94 53.3315C117.408 53.189 116.956 52.9496 116.586 52.6136C116.223 52.2665 115.982 51.843 115.865 51.3429L117.321 51.0562Z" fill="#101828"/>
</g>
<path d="M46.5527 47.1311L120.14 32.6428C124.204 31.8426 128.147 34.4886 128.948 38.5527L132.038 54.2513C132.839 58.3154 130.193 62.2587 126.128 63.0589L52.5412 77.5472C48.4771 78.3473 44.5338 75.7014 43.7336 71.6373L40.6428 55.9386C39.8426 51.8745 42.4886 47.9312 46.5527 47.1311Z" stroke="#E5E7EB"/>
</g>
<g filter="url(#filter1_d_2483_106)">
<rect x="45.5612" y="83.5078" width="107.123" height="103.123" rx="16" transform="rotate(-11.1382 45.5612 83.5078)" fill="white"/>
<rect x="46.1483" y="83.9018" width="106.123" height="102.123" rx="15.5" transform="rotate(-11.1382 46.1483 83.9018)" stroke="#E5E7EB"/>
<g clip-path="url(#clip2_2483_106)">
<path d="M90.6875 145.199C85.904 145.63 81.3733 142.951 79.4176 138.53L79.2821 138.196C78.809 137.021 78.5649 136.02 78.4734 135.004L76.6386 114.631L71.5691 139.481C70.9573 143.124 73.4141 146.622 77.0671 147.284L124.385 155.497C124.975 155.594 125.558 155.614 126.126 155.563C129.102 155.295 131.643 153.075 132.143 150.095L134.064 141.293L90.6875 145.199Z" fill="#D1D5DC"/>
<path d="M139.62 94.8557L142.715 129.218C143.049 132.923 140.303 136.213 136.598 136.546L90.2838 140.717C89.985 140.744 89.6836 140.741 89.4117 140.735C86.2396 140.63 83.5582 138.281 83.0338 135.135C82.9876 134.958 82.9714 134.779 82.9553 134.6L79.8606 100.238C79.5269 96.5327 82.273 93.243 85.9781 92.9094L132.292 88.7382C135.997 88.4046 139.287 91.1507 139.62 94.8557Z" fill="#E5E7EB"/>
<path d="M101.516 106.571C101.814 109.871 99.3792 112.788 96.079 113.086C92.7782 113.383 89.8618 110.948 89.5646 107.648C89.2674 104.347 91.7018 101.431 95.0025 101.133C98.3027 100.836 101.219 103.271 101.516 106.571Z" fill="#FFB900"/>
<path d="M141.959 120.821L142.715 129.218C143.049 132.923 140.303 136.213 136.598 136.546L90.2837 140.717C89.985 140.744 89.6835 140.741 89.4117 140.735L117.416 107.188C119.265 104.973 122.611 104.671 124.826 106.52L141.959 120.821Z" fill="#00A63E"/>
<path d="M125.572 137.539L90.2838 140.717C89.9851 140.744 89.6836 140.741 89.4118 140.735C86.2397 140.63 83.5582 138.281 83.0339 135.135L95.9483 119.664C97.7974 117.449 101.144 117.148 103.358 118.996L125.572 137.539Z" fill="#00C950"/>
</g>
</g>
<defs>
<filter id="filter0_d_2483_106" x="-1.39319" y="-1.39319" width="175.468" height="128.976" filterUnits="userSpaceOnUse" color-interpolation-filters="sRGB">
<feFlood flood-opacity="0" result="BackgroundImageFix"/>
<feColorMatrix in="SourceAlpha" type="matrix" values="0 0 0 0 0 0 0 0 0 0 0 0 0 0 0 0 0 0 127 0" result="hardAlpha"/>
<feOffset dy="8"/>
<feGaussianBlur stdDeviation="20"/>
<feComposite in2="hardAlpha" operator="out"/>
<feColorMatrix type="matrix" values="0 0 0 0 0 0 0 0 0 0 0 0 0 0 0 0 0 0 0.05 0"/>
<feBlend mode="normal" in2="BackgroundImageFix" result="effect1_dropShadow_2483_106"/>
<feBlend mode="normal" in="SourceGraphic" in2="effect1_dropShadow_2483_106" result="shape"/>
</filter>
<filter id="filter1_d_2483_106" x="5.56116" y="30.8142" width="205.026" height="201.874" filterUnits="userSpaceOnUse" color-interpolation-filters="sRGB">
<feFlood flood-opacity="0" result="BackgroundImageFix"/>
<feColorMatrix in="SourceAlpha" type="matrix" values="0 0 0 0 0 0 0 0 0 0 0 0 0 0 0 0 0 0 127 0" result="hardAlpha"/>
<feOffset dy="8"/>
<feGaussianBlur stdDeviation="20"/>
<feComposite in2="hardAlpha" operator="out"/>
<feColorMatrix type="matrix" values="0 0 0 0 0 0 0 0 0 0 0 0 0 0 0 0 0 0 0.05 0"/>
<feBlend mode="normal" in2="BackgroundImageFix" result="effect1_dropShadow_2483_106"/>
<feBlend mode="normal" in="SourceGraphic" in2="effect1_dropShadow_2483_106" result="shape"/>
</filter>
<clipPath id="clip0_2483_106">
<path d="M40.1522 56.0352C39.2987 51.7002 42.1211 47.494 46.4561 46.6405L120.043 32.1522C124.378 31.2987 128.585 34.1211 129.438 38.4561L132.529 54.1547C133.382 58.4898 130.56 62.696 126.225 63.5495L52.6378 78.0377C48.3027 78.8913 44.0966 76.0689 43.2431 71.7338L40.1522 56.0352Z" fill="white"/>
</clipPath>
<clipPath id="clip1_2483_106">
<rect width="24" height="24" fill="white" transform="translate(47.2289 50.5651) rotate(-11.1382)"/>
</clipPath>
<clipPath id="clip2_2483_106">
<rect width="72" height="72" fill="white" transform="translate(67.0277 91.5117) rotate(-5.14627)"/>
</clipPath>
</defs>
</svg>