<svg width="325" height="370" viewBox="-10 -30 345 400" fill="none" xmlns="http://www.w3.org/2000/svg" xmlns:xlink="http://www.w3.org/1999/xlink">

<!-- Tag: "Scans" label, translated to align with card and sit above it -->
<g transform="translate(28, -47)" filter="url(#filter_tag)">
<g clip-path="url(#clip_tag)">
<path d="M42.0467 39.0087C42.5946 34.6246 46.5929 31.5147 50.9771 32.0626L119.444 40.6194C123.829 41.1673 126.939 45.1655 126.391 49.5497L124.406 65.4262C123.859 69.8104 119.86 72.9203 115.476 72.3724L47.0087 63.8156C42.6245 63.2677 39.5146 59.2694 40.0625 54.8852L42.0467 39.0087Z" fill="white"/>
<path d="M70.854 42.357L70.3889 46.0781C70.3643 46.2755 70.2622 46.455 70.1052 46.5771C69.9482 46.6992 69.7491 46.754 69.5517 46.7293C69.3543 46.7046 69.1749 46.6026 69.0527 46.4455C68.9306 46.2885 68.8759 46.0894 68.9005 45.8921L69.2726 42.9152L66.2957 42.5432C66.0983 42.5185 65.9188 42.4165 65.7967 42.2594C65.6746 42.1024 65.6198 41.9033 65.6445 41.706C65.6692 41.5086 65.7712 41.3291 65.9283 41.207C66.0853 41.0849 66.2844 41.0301 66.4817 41.0548L70.2028 41.5198C70.4002 41.5445 70.5797 41.6465 70.7018 41.8036C70.8239 41.9606 70.8787 42.1597 70.854 42.357ZM55.505 56.3113L52.5282 55.9393L52.9002 52.9624C52.9249 52.765 52.8701 52.566 52.748 52.4089C52.6259 52.2519 52.4464 52.1499 52.249 52.1252C52.0516 52.1005 51.8525 52.1553 51.6955 52.2774C51.5385 52.3995 51.4365 52.579 51.4118 52.7764L50.9467 56.4975C50.9221 56.6948 50.9768 56.8939 51.099 57.0509C51.2211 57.2079 51.4006 57.31 51.5979 57.3347L55.319 57.7997C55.5164 57.8244 55.7155 57.7696 55.8725 57.6475C56.0295 57.5254 56.1316 57.3459 56.1562 57.1485C56.1809 56.9511 56.1261 56.752 56.004 56.595C55.8819 56.438 55.7024 56.336 55.505 56.3113ZM68.6216 54.1714C68.4243 54.1467 68.2252 54.2015 68.0682 54.3236C67.9112 54.4457 67.8091 54.6252 67.7844 54.8226L67.4124 57.7994L64.4355 57.4274C64.2382 57.4027 64.0391 57.4575 63.8821 57.5796C63.7251 57.7017 63.623 57.8812 63.5983 58.0786C63.5737 58.276 63.6284 58.4751 63.7505 58.6321C63.8727 58.7891 64.0521 58.8912 64.2495 58.9158L67.9706 59.3809C68.168 59.4055 68.367 59.3508 68.5241 59.2287C68.6811 59.1065 68.7831 58.927 68.8078 58.7297L69.2728 55.0086C69.2975 54.8112 69.2428 54.6121 69.1206 54.4551C68.9985 54.2981 68.819 54.1961 68.6216 54.1714ZM53.1791 44.6831C53.3765 44.7078 53.5756 44.653 53.7326 44.5309C53.8896 44.4088 53.9916 44.2293 54.0163 44.0319L54.3883 41.0551L57.3652 41.4271C57.5626 41.4518 57.7617 41.397 57.9187 41.2749C58.0757 41.1528 58.1777 40.9733 58.2024 40.7759C58.2271 40.5785 58.1723 40.3794 58.0502 40.2224C57.9281 40.0654 57.7486 39.9633 57.5512 39.9387L53.8301 39.4736C53.6328 39.449 53.4337 39.5037 53.2767 39.6258C53.1197 39.748 53.0176 39.9274 52.9929 40.1248L52.5279 43.8459C52.5032 44.0433 52.558 44.2423 52.6801 44.3994C52.8022 44.5564 52.9817 44.6584 53.1791 44.6831ZM57.0862 43.6597L66.0167 44.7758C66.2141 44.8005 66.3936 44.9026 66.5157 45.0596C66.6378 45.2166 66.6926 45.4157 66.6679 45.613L65.5518 54.5436C65.5271 54.7409 65.4251 54.9204 65.268 55.0426C65.111 55.1647 64.9119 55.2194 64.7146 55.1948L55.784 54.0787C55.5867 54.054 55.4072 53.9519 55.285 53.7949C55.1629 53.6379 55.1082 53.4388 55.1328 53.2414L56.2489 44.3109C56.2736 44.1135 56.3757 43.9341 56.5327 43.8119C56.6897 43.6898 56.8888 43.6351 57.0862 43.6597ZM56.7143 52.6833L64.1564 53.6133L65.0865 46.1712L57.6444 45.2411L56.7143 52.6833Z" fill="#2B7FFF"/>
<path d="M78.7591 53.0478C78.7464 53.4507 78.8286 53.809 79.0057 54.1227C79.1921 54.4376 79.452 54.6911 79.7854 54.8833C80.1281 55.0766 80.5263 55.2016 80.9801 55.2583C81.6284 55.3394 82.1667 55.2844 82.595 55.0933C83.0338 54.8942 83.2821 54.5631 83.34 54.1001C83.3793 53.7852 83.2989 53.5259 83.0986 53.3221C82.8983 53.1184 82.6193 52.9424 82.2616 52.7942C81.9131 52.6472 81.5265 52.5048 81.1016 52.3671C80.6779 52.2201 80.2507 52.0632 79.8201 51.8965C79.3998 51.7217 79.0172 51.5093 78.6722 51.2593C78.3377 51.0011 78.0812 50.6822 77.9029 50.3025C77.7258 49.9135 77.6726 49.4366 77.7432 48.8716C77.8103 48.3345 78.0279 47.8726 78.396 47.4859C78.7746 47.0911 79.2666 46.8046 79.872 46.6263C80.4786 46.4387 81.1663 46.393 81.935 46.4891C82.6388 46.577 83.2553 46.7999 83.7844 47.1576C84.3238 47.5072 84.729 47.9529 84.9999 48.4946C85.272 49.0271 85.3675 49.6176 85.2865 50.2658L83.6611 50.0627C83.6993 49.4561 83.5581 48.9681 83.2374 48.5989C82.9271 48.2215 82.4108 47.9876 81.6884 47.8974C80.9661 47.8071 80.4029 47.8731 79.9988 48.0954C79.6052 48.3095 79.3812 48.6343 79.3268 49.0695C79.284 49.4122 79.3616 49.6947 79.5595 49.9169C79.7587 50.1299 80.0319 50.3146 80.3792 50.4709C80.7369 50.619 81.1282 50.762 81.5531 50.8997C81.9883 51.0294 82.4161 51.1816 82.8363 51.3564C83.2577 51.5219 83.6363 51.7292 83.972 51.978C84.3182 52.2188 84.5804 52.5291 84.7587 52.9088C84.9474 53.2804 85.007 53.744 84.9375 54.2997C84.8241 55.2073 84.3935 55.8683 83.6457 56.2828C82.9082 56.6892 81.9329 56.8165 80.7197 56.6649C79.9695 56.5712 79.3114 56.3431 78.7453 55.9808C78.1896 55.6103 77.767 55.1531 77.4776 54.609C77.1974 54.066 77.0828 53.478 77.1337 52.8447L78.7591 53.0478ZM93.4876 54.7192C93.3765 55.3826 93.1351 55.9591 92.7635 56.4488C92.4012 56.9397 91.9323 57.3043 91.357 57.5428C90.7828 57.7721 90.1299 57.841 89.3982 57.7495C88.5925 57.6488 87.9147 57.3901 87.3648 56.9734C86.816 56.5473 86.4137 56.0033 86.1579 55.3411C85.9113 54.6801 85.8378 53.9513 85.9373 53.1549C86.038 52.3491 86.2892 51.6563 86.6909 51.0763C87.1018 50.4974 87.6257 50.0691 88.2624 49.7912C88.8991 49.5134 89.6203 49.4248 90.426 49.5255C91.1299 49.6135 91.7307 49.8484 92.2285 50.2305C92.7275 50.6032 93.0985 51.0587 93.3416 51.597C93.5859 52.1261 93.6861 52.6795 93.6421 53.2571L92.0584 53.0592C92.0804 52.7327 92.0352 52.4167 91.9229 52.1111C91.8106 51.8055 91.6179 51.5415 91.3447 51.3193C91.0807 51.0982 90.7172 50.9587 90.2542 50.9008C89.7077 50.8325 89.2389 50.8962 88.8476 51.0918C88.4575 51.2782 88.1438 51.5682 87.9065 51.9618C87.6784 52.3566 87.5314 52.8179 87.4654 53.3458C87.4006 53.8645 87.4301 54.3432 87.554 54.7819C87.6883 55.2125 87.921 55.5708 88.2521 55.8568C88.5844 56.1334 89.0237 56.3059 89.5701 56.3742C90.0517 56.4344 90.4528 56.3858 90.7735 56.2283C91.1046 56.0628 91.3639 55.8318 91.5514 55.5354C91.7401 55.2298 91.8669 54.8929 91.9317 54.5248L93.4876 54.7192ZM99.6033 54.2843L101.09 54.4701L100.534 58.9155L99.0477 58.7297L99.6033 54.2843ZM98.3112 50.5109C99.3763 50.6441 100.137 51.0637 100.595 51.7698C101.061 52.4772 101.226 53.3772 101.09 54.4701L99.6033 54.2843C99.66 53.8305 99.653 53.4346 99.5824 53.0965C99.5129 52.7493 99.3601 52.4668 99.1239 52.2492C98.897 52.0327 98.5706 51.8978 98.1446 51.8446C97.5518 51.7705 97.0784 51.8712 96.7241 52.1468C96.3791 52.4234 96.1783 52.7887 96.1216 53.2425L94.5518 53.0463C94.6155 52.5369 94.8047 52.0762 95.1196 51.6641C95.4356 51.2427 95.8657 50.9249 96.4098 50.7107C96.955 50.4872 97.5888 50.4207 98.3112 50.5109ZM99.7752 53.9248L99.9315 55.0449C98.6488 54.7717 97.6787 54.7445 97.0211 54.9633C96.374 55.174 96.0198 55.5248 95.9584 56.0157C95.9086 56.4139 95.9961 56.7305 96.2206 56.9655C96.4557 57.1924 96.8001 57.3342 97.2539 57.3909C97.6243 57.4372 97.9624 57.4042 98.268 57.2919C98.584 57.1715 98.8439 56.9736 99.0476 56.698C99.2514 56.4225 99.3793 56.0764 99.4314 55.6596L99.7231 56.3733C99.6027 56.885 99.4158 57.3272 99.1623 57.7C98.9099 58.0635 98.5846 58.3332 98.1864 58.5092C97.7882 58.6852 97.3158 58.739 96.7694 58.6707C96.26 58.6071 95.8132 58.4572 95.4288 58.221C95.0457 57.9756 94.7562 57.6573 94.5606 57.266C94.3742 56.8758 94.3134 56.4215 94.3782 55.9028C94.4407 55.4027 94.5941 55.0033 94.8384 54.7046C95.0838 54.3967 95.39 54.1669 95.7569 54.0152C96.1239 53.8636 96.5302 53.7733 96.9759 53.7443C97.4321 53.7073 97.8974 53.709 98.3721 53.7495C98.8467 53.79 99.3144 53.8485 99.7752 53.9248ZM102.834 51.3019L104.32 51.4877L104.16 52.7657C104.304 52.5203 104.496 52.2998 104.737 52.1041C104.979 51.8992 105.28 51.7487 105.64 51.6526C106.001 51.5472 106.427 51.5252 106.918 51.5866C107.418 51.6491 107.85 51.8065 108.213 52.0589C108.586 52.3124 108.854 52.6892 109.017 53.1893C109.191 53.6813 109.228 54.3255 109.129 55.122L108.53 59.9147L107.043 59.729L107.62 55.1168C107.673 54.6908 107.677 54.3198 107.632 54.0038C107.588 53.6785 107.465 53.4186 107.264 53.2241C107.063 53.0203 106.764 52.8936 106.366 52.8438C105.995 52.7975 105.63 52.86 105.27 53.0314C104.91 53.2027 104.597 53.4835 104.332 53.8736C104.077 54.2649 103.91 54.7708 103.832 55.3913L103.348 59.2671L101.861 59.0814L102.834 51.3019ZM111.367 57.7721C111.355 58.2502 111.51 58.627 111.833 58.9025C112.165 59.1792 112.581 59.3488 113.081 59.4113C113.581 59.4738 113.991 59.431 114.311 59.2828C114.639 59.1357 114.829 58.8631 114.878 58.4649C114.909 58.2241 114.839 58.0319 114.668 57.8884C114.509 57.7367 114.285 57.6053 113.998 57.4942C113.72 57.3842 113.409 57.2795 113.064 57.1799C112.728 57.0815 112.389 56.9687 112.048 56.8413C111.706 56.714 111.397 56.5531 111.121 56.3586C110.854 56.156 110.651 55.9048 110.509 55.605C110.368 55.3052 110.325 54.933 110.381 54.4884C110.433 54.0717 110.612 53.6943 110.917 53.3562C111.224 53.0089 111.628 52.7536 112.128 52.5904C112.638 52.4191 113.208 52.3727 113.838 52.4514C114.403 52.522 114.907 52.7026 115.351 52.9932C115.795 53.2745 116.132 53.6316 116.36 54.0646C116.597 54.4987 116.683 54.9797 116.617 55.5076L115.2 55.3305C115.222 54.8536 115.08 54.4831 114.774 54.2192C114.479 53.9471 114.095 53.7816 113.623 53.7226C113.086 53.6554 112.664 53.7156 112.359 53.9032C112.064 54.0826 111.895 54.3391 111.853 54.6725C111.821 54.9318 111.884 55.1419 112.043 55.3028C112.211 55.4649 112.433 55.6009 112.711 55.7109C112.998 55.822 113.314 55.9273 113.659 56.0269C114.004 56.1264 114.343 56.2393 114.675 56.3655C115.017 56.4928 115.321 56.6531 115.589 56.8464C115.866 57.0317 116.077 57.2696 116.219 57.5601C116.361 57.8507 116.405 58.2136 116.351 58.6489C116.29 59.1398 116.106 59.5542 115.801 59.8922C115.496 60.221 115.09 60.4572 114.583 60.6008C114.087 60.7362 113.51 60.7629 112.852 60.6807C112.241 60.6043 111.704 60.4197 111.242 60.1268C110.782 59.8246 110.428 59.4559 110.181 59.0207C109.945 58.5773 109.85 58.0997 109.895 57.5881L111.367 57.7721Z" fill="#101828"/>
</g>
<path d="M50.9151 32.5587L119.382 41.1155C123.493 41.6292 126.408 45.3775 125.894 49.4877L123.91 65.3642C123.397 69.4744 119.648 72.3899 115.538 71.8762L47.0707 63.3194C42.9605 62.8058 40.045 59.0574 40.5587 54.9472L42.5429 39.0707C43.0565 34.9606 46.8049 32.0451 50.9151 32.5587Z" stroke="#E5E7EB"/>
</g>

<!-- Card body at original coordinates -->
<g filter="url(#filter_card)">
<g clip-path="url(#clip_card)">
<rect x="67.9037" y="30.141" width="220.385" height="240" rx="16" transform="rotate(7.12366 67.9037 30.141)" fill="white"/>

<!-- Scanned document content as text -->
<g transform="rotate(7.12366 67.9037 30.141)">
  <rect x="85" y="50" width="185" height="200" rx="10" fill="#F0F5FA"/>
  <text x="177.5" y="88" text-anchor="middle" font-family="'Inter', 'Helvetica', sans-serif" font-weight="700" font-size="16" fill="#0f172b">Items Required</text>
  <text x="110" y="122" font-family="'Inter', 'Helvetica', sans-serif" font-weight="400" font-size="14" fill="#0f172b">A5006-00-nos</text>
  <text x="110" y="152" font-family="'Inter', 'Helvetica', sans-serif" font-weight="400" font-size="14" fill="#0f172b">A5001-00-nos</text>
</g>

<rect x="90.7581" y="178.885" width="134" height="20" rx="4" transform="rotate(7.12366 90.7581 178.885)" fill="#DBEAFE"/>
<rect x="86.4177" y="213.615" width="134" height="20" rx="4" transform="rotate(7.12366 86.4177 213.615)" fill="#DBEAFE"/>
<path fill-rule="evenodd" clip-rule="evenodd" d="M79.135 54.632C79.0603 55.2295 78.5148 55.6538 77.9172 55.5792C77.3197 55.5045 76.8953 54.9589 76.97 54.3614L77.917 46.784C78.1402 44.9979 79.7842 43.7191 81.5703 43.9424L89.1478 44.8893C89.7453 44.964 90.1696 45.5096 90.095 46.1071C90.0203 46.7047 89.4747 47.129 88.8772 47.0543L81.2998 46.1073C80.7044 46.0329 80.1564 46.4592 80.082 47.0545L79.135 54.632Z" fill="#51A2FF"/>
<path fill-rule="evenodd" clip-rule="evenodd" d="M269.292 78.397C269.217 78.9946 269.642 79.5401 270.239 79.6148C270.837 79.6895 271.382 79.2651 271.457 78.6676L272.404 71.0902C272.627 69.3041 271.349 67.6601 269.562 67.4369L261.985 66.4899C261.388 66.4152 260.842 66.8395 260.767 67.4371C260.693 68.0346 261.117 68.5802 261.714 68.6548L269.292 69.6018C269.887 69.6762 270.314 70.2242 270.239 70.8196L269.292 78.397Z" fill="#51A2FF"/>
<path fill-rule="evenodd" clip-rule="evenodd" d="M55.0542 247.315C55.1289 246.717 54.7045 246.172 54.107 246.097C53.5095 246.022 52.9639 246.447 52.8892 247.044L51.9422 254.622C51.719 256.408 52.9977 258.052 54.7838 258.275L62.3613 259.222C62.9588 259.297 63.5044 258.872 63.579 258.275C63.6537 257.677 63.2294 257.132 62.6318 257.057L55.0544 256.11C54.459 256.036 54.0328 255.488 54.1072 254.892L55.0542 247.315Z" fill="#51A2FF"/>
<path fill-rule="evenodd" clip-rule="evenodd" d="M245.211 271.08C245.286 270.482 245.832 270.058 246.429 270.133C247.027 270.207 247.451 270.753 247.376 271.35L246.429 278.928C246.206 280.714 244.562 281.993 242.776 281.769L235.199 280.823C234.601 280.748 234.177 280.202 234.251 279.605C234.326 279.007 234.872 278.583 235.469 278.658L243.047 279.605C243.642 279.679 244.19 279.253 244.264 278.657L245.211 271.08Z" fill="#51A2FF"/>
</g>
<rect x="68.3378" y="30.6991" width="219.385" height="239" rx="15.5" transform="rotate(7.12366 68.3378 30.6991)" stroke="#E5E7EB"/>
</g>

<defs>
<!-- Tag drop shadow filter -->
<filter id="filter_tag" x="-40" y="-40" width="248" height="162" filterUnits="userSpaceOnUse" color-interpolation-filters="sRGB">
<feFlood flood-opacity="0" result="BackgroundImageFix"/>
<feColorMatrix in="SourceAlpha" type="matrix" values="0 0 0 0 0 0 0 0 0 0 0 0 0 0 0 0 0 0 127 0" result="hardAlpha"/>
<feOffset dy="8"/>
<feGaussianBlur stdDeviation="20"/>
<feComposite in2="hardAlpha" operator="out"/>
<feColorMatrix type="matrix" values="0 0 0 0 0 0 0 0 0 0 0 0 0 0 0 0 0 0 0.05 0"/>
<feBlend mode="normal" in2="BackgroundImageFix" result="effect1_dropShadow_tag"/>
<feBlend mode="normal" in="SourceGraphic" in2="effect1_dropShadow_tag" result="shape"/>
</filter>

<!-- Tag clip path -->
<clipPath id="clip_tag">
<path d="M42.0467 39.0087C42.5946 34.6246 46.5929 31.5147 50.9771 32.0626L119.444 40.6194C123.829 41.1673 126.939 45.1655 126.391 49.5497L124.406 65.4262C123.859 69.8104 119.86 72.9203 115.476 72.3724L47.0087 63.8156C42.6245 63.2677 39.5146 59.2694 40.0625 54.8852L42.0467 39.0087Z" fill="white"/>
</clipPath>

<!-- Card drop shadow filter -->
<filter id="filter_card" x="-1.859" y="-1.859" width="328.446" height="345.478" filterUnits="userSpaceOnUse" color-interpolation-filters="sRGB">
<feFlood flood-opacity="0" result="BackgroundImageFix"/>
<feColorMatrix in="SourceAlpha" type="matrix" values="0 0 0 0 0 0 0 0 0 0 0 0 0 0 0 0 0 0 127 0" result="hardAlpha"/>
<feOffset dy="8"/>
<feGaussianBlur stdDeviation="20"/>
<feComposite in2="hardAlpha" operator="out"/>
<feColorMatrix type="matrix" values="0 0 0 0 0 0 0 0 0 0 0 0 0 0 0 0 0 0 0.05 0"/>
<feBlend mode="normal" in2="BackgroundImageFix" result="effect1_dropShadow_card"/>
<feBlend mode="normal" in="SourceGraphic" in2="effect1_dropShadow_card" result="shape"/>
</filter>

<!-- Card clip path -->
<clipPath id="clip_card">
<rect x="67.9037" y="30.141" width="220.385" height="240" rx="16" transform="rotate(7.12366 67.9037 30.141)" fill="white"/>
</clipPath>

</defs>
</svg>