<svg viewBox="0 0 24 24" fill="none" xmlns="http://www.w3.org/2000/svg">
<g clip-path="url(#clip0_0_355)">
<path d="M22.1862 -0.0634219C23.1649 -0.0634219 23.962 0.711563 23.962 1.66748V22.2105C23.962 23.1664 23.1649 23.9427 22.1862 23.9427H1.72716C0.750328 23.9427 -0.0434531 23.1664 -0.0434531 22.2105V1.66748C-0.0434531 0.711563 0.750328 -0.0634219 1.72716 -0.0634219H22.1862ZM20.4129 20.3923V14.1095C20.4129 11.0241 19.7467 8.65195 16.1417 8.65195C14.4094 8.65195 13.2477 9.60178 12.7729 10.5024H12.7242V8.93625H9.31116V20.3923H12.8674V14.7262C12.8674 13.2316 13.1501 11.7837 15.0027 11.7837C16.83 11.7837 16.8528 13.4928 16.8528 14.8213V20.3923H20.4129ZM7.07752 8.93625H3.51342V20.3923H7.07752V8.93625ZM5.29641 3.24145C4.15289 3.24145 3.23081 4.16653 3.23081 5.30616C3.23081 6.44606 4.15289 7.37109 5.29641 7.37109C6.43542 7.37109 7.36013 6.44606 7.36013 5.30616C7.36013 4.16653 6.43542 3.24145 5.29641 3.24145Z" fill="#101828"/>
</g>
<defs>
<clipPath id="clip0_0_355">
<rect width="24" height="24" fill="white"/>
</clipPath>
</defs>
</svg>
